<?xml version="1.0" standalone="no"?>
<!DOCTYPE svg PUBLIC "-//W3C//DTD SVG 1.1//EN" "http://www.w3.org/Graphics/SVG/1.1/DTD/svg11.dtd" >
<svg xmlns="http://www.w3.org/2000/svg">
<metadata></metadata>
<defs>
<font id="andale_monoregular" horiz-adv-x="1229" >
<font-face units-per-em="2048" ascent="1638" descent="-410" />
<missing-glyph horiz-adv-x="500" />
<glyph horiz-adv-x="0" />
<glyph horiz-adv-x="0" />
<glyph unicode="&#xd;" />
<glyph unicode=" " />
<glyph unicode="!" d="M479 104q0 54 35.5 89.5t87.5 35.5q53 0 89 -36t36 -89t-36.5 -92t-88.5 -39q-51 0 -87 38.5t-36 92.5zM508 952v459h180v-459l-47 -528h-86z" />
<glyph unicode="&#x22;" d="M356 1171v240h154v-240l-37 -280h-80zM719 1171v240h153v-240l-36 -280h-80z" />
<glyph unicode="#" d="M88 397v131h219l76 359h-295v131h322l84 393h141l-84 -393h268l84 393h141l-83 -393h186v-131h-213l-76 -359h289v-131h-318l-84 -397h-141l84 397h-268l-84 -397h-141l84 397h-191zM449 528h268l76 359h-269z" />
<glyph unicode="$" d="M227 1067q0 142 89 238t249 125v106h117v-98q137 0 270 -43l-37 -140q-122 43 -233 43v-489q189 -81 264.5 -179.5t75.5 -223.5q0 -158 -90.5 -268.5t-249.5 -149.5v-129h-117v114h-8q-182 0 -319 72l34 141q161 -73 281 -73h12v583q-215 92 -276.5 181.5t-61.5 189.5z M387 1073q0 -121 178 -209v420q-178 -47 -178 -211zM682 131q180 65 180 254q0 84 -42.5 143t-137.5 111v-508z" />
<glyph unicode="%" d="M47 1104q0 144 76.5 239t206.5 95q133 0 207.5 -93t74.5 -241t-75 -241t-207 -93q-131 0 -207 93.5t-76 240.5zM168 0l745 1411h140l-746 -1411h-139zM190 1104q0 -213 140 -213q139 0 139 213t-139 213q-140 0 -140 -213zM614 307q0 145 76.5 239.5t206.5 94.5 q133 0 208 -92.5t75 -241.5q0 -147 -75.5 -240.5t-207.5 -93.5q-131 0 -207 94t-76 240zM758 307q0 -213 139 -213t139 213t-139 213t-139 -213z" />
<glyph unicode="&#x26;" d="M80 365q0 107 64 202.5t239 216.5q-166 195 -166 340q0 140 92.5 227t233.5 87q131 0 216 -74.5t85 -206.5q0 -95 -58 -182t-217 -203l295 -364q68 174 101.5 242t94.5 117.5t157 49.5h8v-137h-8q-61 0 -117 -65t-148 -318q75 -90 117 -129t94 -39q24 0 64 6v-127 q-44 -18 -109 -18q-53 0 -105 37.5t-134 146.5q-156 -201 -377 -201q-177 0 -299.5 112.5t-122.5 279.5zM244 371q0 -110 77.5 -185t184.5 -75q167 0 289 165l-336 414q-118 -86 -166.5 -158.5t-48.5 -160.5zM362 1124q0 -108 134 -258q118 82 164.5 145t46.5 134 q0 78 -47.5 118t-114.5 40q-78 0 -130.5 -47.5t-52.5 -131.5z" />
<glyph unicode="'" d="M539 1171v240h153v-240l-37 -280h-80z" />
<glyph unicode="(" d="M440 571q0 251 116 473.5t341 391.5l61 -86q-183 -164 -263.5 -343.5t-80.5 -433.5q0 -263 83.5 -442.5t260.5 -339.5l-61 -86q-223 169 -340 393t-117 473z" />
<glyph unicode=")" d="M270 -209q183 162 263.5 344.5t80.5 437.5q0 263 -83 440t-261 337l62 86q224 -169 340 -391.5t116 -473.5q0 -249 -116.5 -473t-339.5 -393z" />
<glyph unicode="*" d="M260 858l252 164l-252 164l59 100l240 -160v285h111v-283l237 158l60 -100l-248 -164l248 -164l-60 -100l-237 157v-286h-111v286l-240 -159z" />
<glyph unicode="+" d="M141 657v131h410v410h131v-410h405v-131h-405v-409h-131v409h-410z" />
<glyph unicode="," d="M494 -168q122 60 122 141q-52 6 -86 43t-34 84q0 51 33 86t83 35q56 0 97 -45.5t41 -109.5q0 -196 -218 -306z" />
<glyph unicode="-" d="M307 487v152h594v-152h-594z" />
<glyph unicode="." d="M485 104q0 54 35.5 89.5t87.5 35.5q53 0 89 -36t36 -89q0 -54 -36.5 -92.5t-88.5 -38.5q-51 0 -87 38.5t-36 92.5z" />
<glyph unicode="/" d="M215 -27l610 1465h150l-613 -1465h-147z" />
<glyph unicode="0" d="M147 705q0 338 117.5 535.5t347.5 197.5q224 0 344.5 -192.5t120.5 -540.5q0 -337 -117 -534.5t-348 -197.5q-223 0 -344 192t-121 540zM322 705q0 -305 71.5 -446.5t218.5 -141.5q148 0 219.5 140.5t71.5 447.5q0 308 -71.5 447.5t-219.5 139.5q-146 0 -218 -143 t-72 -444zM460 705q0 64 42.5 107t105.5 43t106.5 -43.5t43.5 -106.5q0 -65 -44 -111.5t-106 -46.5q-61 0 -104.5 46.5t-43.5 111.5z" />
<glyph unicode="1" d="M276 0v143h299v1096l-282 -141v164l305 157h141v-1276h279v-143h-742z" />
<glyph unicode="2" d="M205 0v119q295 329 383 441t143 235t55 245q0 118 -71.5 186t-200.5 68q-99 0 -266 -61l-23 141q151 64 316 64q189 0 304.5 -106.5t115.5 -284.5q0 -127 -59.5 -252t-152.5 -240t-362 -412h594v-143h-776z" />
<glyph unicode="3" d="M199 47l32 135q139 -65 275 -65q128 0 218.5 79.5t90.5 204.5q0 123 -97 200t-257 77h-43v135h12q154 0 254 72.5t100 195.5q0 100 -72 156.5t-198 56.5q-109 0 -244 -59l-22 141q136 62 274 62q189 0 311.5 -99.5t122.5 -255.5q0 -108 -74.5 -201.5t-179.5 -117.5v-6 q129 -36 207 -131.5t78 -214.5q0 -186 -145 -312.5t-342 -126.5q-168 0 -301 74z" />
<glyph unicode="4" d="M121 326v125l557 960h221v-942h174v-143h-174v-326h-164v326h-614zM287 469h448v780z" />
<glyph unicode="5" d="M225 35l33 139q136 -57 281 -57q129 0 208.5 83t79.5 232q0 141 -75 217t-193 76q-86 0 -170 -33l-98 45v674h645v-143h-502v-426q68 18 133 18q200 0 316 -122.5t116 -305.5q0 -192 -135 -325.5t-329 -133.5q-185 0 -310 62z" />
<glyph unicode="6" d="M188 688q0 320 137.5 535t376.5 215q165 0 285 -49l-26 -146q-139 51 -254 51q-163 0 -254 -156t-91 -403q132 107 287 107q179 0 298.5 -114.5t119.5 -295.5q0 -199 -106 -329t-283 -130q-226 0 -358 207.5t-132 507.5zM367 594q0 -181 85 -329t214 -148q109 0 168 80 t59 221q0 130 -65 205t-183 75q-153 0 -278 -104z" />
<glyph unicode="7" d="M199 1268v143h837v-117l-559 -1294h-168l551 1268h-661z" />
<glyph unicode="8" d="M164 393q0 134 82 236t229 145q-117 30 -187.5 115.5t-70.5 191.5q0 136 108 246.5t285 110.5q175 0 289.5 -110t114.5 -247q0 -103 -72 -189.5t-186 -117.5q144 -42 223.5 -143t79.5 -236q0 -194 -128.5 -308t-316.5 -114q-197 0 -323.5 115t-126.5 305zM336 401 q0 -129 83 -206.5t195 -77.5q116 0 195.5 76.5t79.5 207.5q0 99 -55 177.5t-224 123.5q-274 -80 -274 -301zM379 1073q0 -59 24.5 -103t61 -71t84 -42t61.5 -15q5 0 48 12t73.5 29.5t56.5 44.5t42 63.5t16 81.5q0 96 -69 159.5t-167 63.5q-95 0 -163 -65t-68 -158z" />
<glyph unicode="9" d="M178 981q0 194 114.5 326.5t295.5 132.5q221 0 345 -202t124 -513t-145.5 -530.5t-389.5 -219.5q-164 0 -284 50l26 145q138 -51 254 -51q166 0 265.5 161t99.5 398q-122 -107 -287 -107q-179 0 -298.5 114.5t-119.5 295.5zM352 995q0 -123 68.5 -201.5t179.5 -78.5 q153 0 266 94l13 10q0 190 -77 333.5t-202 143.5q-113 0 -180.5 -83.5t-67.5 -217.5z" />
<glyph unicode=":" d="M487 102q0 51 34.5 85t84.5 34q51 0 86 -34t35 -85q0 -50 -35 -84t-86 -34q-50 0 -84.5 34t-34.5 84zM487 938q0 50 34.5 84.5t84.5 34.5q51 0 86 -34.5t35 -84.5t-35 -84.5t-86 -34.5q-50 0 -84.5 34.5t-34.5 84.5z" />
<glyph unicode=";" d="M494 -168q122 60 122 141q-52 6 -86 43t-34 84q0 51 33 86t83 35q56 0 97 -45.5t41 -109.5q0 -196 -218 -306zM496 938q0 50 34 84.5t84 34.5q51 0 86 -34.5t35 -84.5q0 -51 -35 -85t-86 -34q-50 0 -84 34.5t-34 84.5z" />
<glyph unicode="&#x3c;" d="M227 664v120l748 445v-144l-600 -366l600 -357v-147z" />
<glyph unicode="=" d="M141 457v131h946v-131h-946zM141 858v131h946v-131h-946z" />
<glyph unicode="&#x3e;" d="M266 215v147l600 357l-600 366v144l748 -445v-120z" />
<glyph unicode="?" d="M240 1358q177 80 317 80q189 0 292 -85t103 -251q0 -172 -223 -357q-97 -80 -118.5 -106.5t-34.5 -64.5t-13 -95v-55h-137v57q0 174 111 271l132 116q64 54 94 109.5t30 118.5q0 104 -66 159.5t-180 55.5q-103 0 -260 -74zM389 104q0 54 35.5 89.5t87.5 35.5q53 0 89 -36 t36 -89q0 -54 -36.5 -92.5t-88.5 -38.5q-51 0 -87 38.5t-36 92.5z" />
<glyph unicode="@" d="M98 567q0 401 149.5 632t391.5 231q224 0 365 -182.5t141 -491.5q0 -231 -92.5 -382t-239.5 -151q-101 0 -129 119q-57 -119 -162 -119q-76 0 -127 80t-51 209q0 202 86.5 337.5t214.5 135.5q50 0 103 -37l4 25h125q-60 -539 -60 -578q0 -27 11.5 -45t29.5 -18 q67 0 122.5 119.5t55.5 304.5q0 264 -108 417.5t-289 153.5q-194 0 -313 -203t-119 -557q0 -284 120.5 -454t315.5 -170q161 0 303 69l23 -90q-151 -84 -326 -84q-242 0 -393.5 197.5t-151.5 531.5zM471 526q0 -91 25 -142.5t63 -51.5q57 0 94 55t39 78l41 375 q-30 37 -82 37q-82 0 -131 -96t-49 -255z" />
<glyph unicode="A" d="M57 0l461 1411h197l461 -1411h-172l-156 494h-463l-158 -494h-170zM432 637h369l-185 584z" />
<glyph unicode="B" d="M209 0v1411h391q204 0 319 -89.5t115 -252.5q0 -100 -66.5 -178t-183.5 -113v-4q141 -33 221 -128t80 -226q0 -192 -139.5 -306t-335.5 -114h-401zM373 143h186q163 0 258.5 74t95.5 203q0 137 -94 212t-272 75h-174v-564zM373 850h192q301 0 301 215q0 98 -74 150.5 t-217 52.5h-202v-418z" />
<glyph unicode="C" d="M127 705q0 344 138 538.5t421 194.5q102 0 202 -26t161 -69l-54 -129q-141 80 -309 80q-195 0 -290 -141.5t-95 -447.5q0 -588 385 -588q163 0 334 100l51 -129q-166 -115 -385 -115q-274 0 -416.5 188t-142.5 544z" />
<glyph unicode="D" d="M209 0v1411h278q277 0 444 -188.5t167 -517.5q0 -336 -169.5 -520.5t-434.5 -184.5h-285zM373 143h116q201 0 318 149t117 413q0 262 -117.5 412.5t-317.5 150.5h-116v-1125z" />
<glyph unicode="E" d="M256 0v1411h731v-143h-567v-437h545v-143h-545v-545h573v-143h-737z" />
<glyph unicode="F" d="M256 0v1411h748v-143h-584v-461h532v-143h-532v-664h-164z" />
<glyph unicode="G" d="M127 705q0 347 137.5 540t421.5 193q102 0 202 -26t161 -69l-54 -129q-141 80 -309 80q-194 0 -289.5 -142t-95.5 -447q0 -588 385 -588q145 0 219 61v348h-254v142h418v-568q-173 -127 -383 -127q-275 0 -417 186.5t-142 545.5z" />
<glyph unicode="H" d="M209 0v1411h164v-567h483v567h164v-1411h-164v700h-483v-700h-164z" />
<glyph unicode="I" d="M287 0v143h243v1125h-243v143h641v-143h-234v-1125h234v-143h-641z" />
<glyph unicode="J" d="M156 45l49 131q119 -59 262 -59q124 0 179.5 65.5t55.5 204.5v1024h164v-1036q0 -194 -101.5 -298t-297.5 -104q-171 0 -311 72z" />
<glyph unicode="K" d="M209 0v1411h164v-676l626 676h189l-551 -596l569 -815h-207l-477 692l-149 -162v-530h-164z" />
<glyph unicode="L" d="M256 0v1411h164v-1268h604v-143h-768z" />
<glyph unicode="M" d="M172 0v1411h213l236 -643l235 643h213v-1411h-158v1210l-213 -579h-155l-213 579v-1210h-158z" />
<glyph unicode="N" d="M188 0v1411h183l508 -1104v1104h161v-1411h-182l-506 1114v-1114h-164z" />
<glyph unicode="O" d="M127 705q0 357 124 545t361 188t361.5 -187.5t124.5 -545.5q0 -356 -124 -544t-362 -188q-236 0 -360.5 187.5t-124.5 544.5zM301 705q0 -287 79 -437.5t232 -150.5q312 0 312 588q0 589 -312 589q-152 0 -231.5 -152.5t-79.5 -436.5z" />
<glyph unicode="P" d="M256 0v1411h358q203 0 325 -102t122 -281q0 -180 -121.5 -287.5t-318.5 -107.5h-201v-633h-164zM420 776h178q289 0 289 242q0 112 -78.5 181t-202.5 69h-186v-492z" />
<glyph unicode="Q" d="M127 705q0 357 124 545t361 188t361.5 -187.5t124.5 -545.5q0 -520 -260 -676q37 -146 141 -146q58 0 127 15l29 -131q-87 -27 -172 -27q-220 0 -285 240q-39 -7 -66 -7q-236 0 -360.5 187.5t-124.5 544.5zM301 705q0 -287 79 -437.5t232 -150.5q312 0 312 588 q0 589 -312 589q-152 0 -231.5 -152.5t-79.5 -436.5z" />
<glyph unicode="R" d="M209 0v1411h399q201 0 317.5 -97.5t116.5 -271.5q0 -129 -85 -229.5t-234 -136.5l451 -676h-205l-414 641h-182v-641h-164zM373 784h207q130 0 211 70.5t81 177.5q0 236 -288 236h-211v-484z" />
<glyph unicode="S" d="M227 1067q0 175 126 273t319 98q141 0 280 -43l-37 -140q-126 43 -239 43q-128 0 -208.5 -58.5t-80.5 -166.5q0 -128 211 -225q156 -72 206.5 -100t102.5 -77t83.5 -115.5t31.5 -149.5q0 -206 -138.5 -319.5t-326.5 -113.5q-182 0 -319 72l34 141q161 -73 281 -73 q140 0 224.5 72.5t84.5 199.5q0 94 -55 159.5t-203 133.5q-152 70 -196.5 95.5t-88.5 70.5t-68 101t-24 122z" />
<glyph unicode="T" d="M98 1278v133h1035v-133h-435v-1278h-163v1278h-437z" />
<glyph unicode="U" d="M209 440v971h164v-956q0 -338 245 -338q123 0 180.5 80t57.5 260v954h164v-967q0 -245 -99.5 -358t-302.5 -113q-409 0 -409 467z" />
<glyph unicode="V" d="M53 1411h172l387 -1221l389 1221h170l-460 -1411h-197z" />
<glyph unicode="W" d="M43 1411h162l119 -1147l208 694h164l209 -696l121 1149h160l-180 -1411h-152l-240 795l-239 -795h-156z" />
<glyph unicode="X" d="M86 0l451 719l-449 692h188l347 -559l350 559h180l-442 -692l452 -719h-182l-358 578l-355 -578h-182z" />
<glyph unicode="Y" d="M94 1411h185l337 -635l338 635h185l-441 -807v-604h-163v604z" />
<glyph unicode="Z" d="M182 0v115l668 1153h-639v143h829v-117l-671 -1151h659v-143h-846z" />
<glyph unicode="[" d="M522 -270v1681h389v-137h-233v-1409h233v-135h-389z" />
<glyph unicode="\" d="M213 1438h149l611 -1465h-148z" />
<glyph unicode="]" d="M279 -131h243v1407h-243v135h399v-1677h-399v135z" />
<glyph unicode="^" d="M111 788l448 748h121l444 -748h-143l-367 601l-356 -601h-147z" />
<glyph unicode="_" d="M0 -315h1229v-131h-1229v131z" />
<glyph unicode="`" d="M348 1466h225l199 -301h-113z" />
<glyph unicode="a" d="M215 268q0 77 31 136t91 99.5t146 64t204 32.5l175 14v50q0 268 -250 268q-59 0 -149.5 -25.5t-155.5 -60.5l-41 112q213 109 396 109q356 0 356 -377v-448q0 -136 26 -242h-155q-19 63 -19 168q-133 -195 -362 -195q-116 0 -204.5 82.5t-88.5 212.5zM379 279 q0 -70 49 -113t125 -43q83 0 165 49.5t144 136.5v189q-211 -19 -289.5 -35.5t-136 -61.5t-57.5 -122z" />
<glyph unicode="b" d="M215 0v1411h156v-504q52 72 140.5 116t186.5 44q182 0 283.5 -146t101.5 -384q0 -241 -108 -402.5t-289 -161.5q-97 0 -181.5 48.5t-133.5 128.5v-150h-156zM371 319q44 -88 119 -147t155 -59q126 0 200.5 120t74.5 295q0 180 -71 292t-198 112q-165 0 -280 -180v-433z " />
<glyph unicode="c" d="M176 520q0 248 147.5 397.5t387.5 149.5q157 0 299 -55l-41 -129q-142 49 -256 49q-172 0 -272.5 -111t-100.5 -301q0 -174 104 -292.5t271 -118.5q132 0 272 51l27 -125q-136 -62 -299 -62q-246 0 -392.5 149.5t-146.5 397.5z" />
<glyph unicode="d" d="M145 537q0 229 108.5 379.5t287.5 150.5q197 0 317 -160v504h156v-1411h-156v150q-48 -77 -137.5 -127t-188.5 -50q-179 0 -283 159.5t-104 404.5zM309 528q0 -180 70.5 -297.5t193.5 -117.5q59 0 119 32t113 96t53 78v433q-112 180 -270 180q-129 0 -204 -114.5 t-75 -289.5z" />
<glyph unicode="e" d="M170 524q0 248 127.5 395.5t329.5 147.5q180 0 301 -137t121 -365v-49h-715q0 -177 102.5 -292t251.5 -115q142 0 293 51l27 -125q-138 -62 -322 -62q-232 0 -374 149t-142 402zM344 643h535q0 122 -76 205.5t-170 83.5q-121 0 -200.5 -80t-88.5 -209z" />
<glyph unicode="f" d="M223 907v135h262v35q0 199 68 279t235 80q108 0 240 -41l-41 -127q-111 32 -199 32q-84 0 -115.5 -47.5t-31.5 -191.5v-19h350v-135h-350v-907h-156v907h-262z" />
<glyph unicode="g" d="M178 -152q0 125 170 211q-141 66 -141 162q0 110 182 205q-84 51 -129 132t-45 171q0 147 100 241.5t250 94.5q108 0 195 -45l309 47v-152h-199q45 -79 45 -186q0 -142 -99 -240t-251 -98q-32 0 -61 2q-146 -71 -146 -125q0 -29 33.5 -49t91.5 -20l351 10 q125 0 194.5 -61t69.5 -173q0 -177 -158 -282t-369 -105q-173 0 -283 72.5t-110 187.5zM324 -143q0 -61 68 -104.5t179 -43.5q154 0 262.5 68.5t108.5 169.5q0 104 -154 104q-51 0 -176 -6q-79 -4 -124 -4q-22 0 -68.5 -36t-71 -72.5t-24.5 -75.5zM369 727 q0 -94 56.5 -154.5t139.5 -60.5q86 0 140.5 59.5t54.5 155.5q0 101 -53 158t-142 57q-83 0 -139.5 -59.5t-56.5 -155.5z" />
<glyph unicode="h" d="M215 0v1411h156v-522q168 178 354 178q293 0 293 -354v-713h-156v668q0 139 -44.5 201.5t-139.5 62.5q-143 0 -307 -178v-754h-156z" />
<glyph unicode="i" d="M295 907v135h463v-1042h-156v907h-307zM578 1329q0 43 31.5 75t72.5 32q44 0 75 -31.5t31 -75.5q0 -46 -30.5 -77t-75.5 -31q-41 0 -72.5 32.5t-31.5 75.5z" />
<glyph unicode="j" d="M215 -371l41 127q111 -32 199 -32q84 0 115.5 47.5t31.5 191.5v944h-307v135h463v-1095q0 -196 -67.5 -277.5t-235.5 -81.5q-108 0 -240 41zM578 1329q0 43 31.5 75t72.5 32q44 0 75 -31.5t31 -75.5q0 -46 -30.5 -77t-75.5 -31q-41 0 -72.5 32.5t-31.5 75.5z" />
<glyph unicode="k" d="M215 0v1411h156v-809l489 440h199l-475 -426l536 -616h-205l-442 518l-102 -88v-430h-156z" />
<glyph unicode="l" d="M244 1276v135h428v-1276h270v-135h-426v1276h-272z" />
<glyph unicode="m" d="M129 0v1042h150v-157q44 83 104.5 132.5t120.5 49.5q63 0 113 -49.5t69 -132.5q44 83 105 132.5t120 49.5q189 0 189 -338v-729h-156v684q0 248 -92 248q-47 0 -103.5 -85.5t-56.5 -94.5v-752h-155v684q0 248 -93 248q-46 0 -102.5 -85.5t-56.5 -94.5v-752h-156z" />
<glyph unicode="n" d="M215 0v1042h156v-153q168 178 354 178q293 0 293 -354v-713h-156v668q0 139 -44.5 201.5t-139.5 62.5q-143 0 -307 -178v-754h-156z" />
<glyph unicode="o" d="M145 522q0 246 127 395.5t342 149.5t342 -150t127 -395q0 -247 -127 -398t-342 -151q-216 0 -342.5 150.5t-126.5 398.5zM309 520q0 -174 81 -292.5t224 -118.5q142 0 224 120t82 291q0 180 -81 296t-225 116q-145 0 -225 -114.5t-80 -297.5z" />
<glyph unicode="p" d="M215 -412v1454h156v-135q52 72 140.5 116t186.5 44q180 0 282.5 -148.5t102.5 -386.5q0 -240 -107.5 -399.5t-289.5 -159.5q-97 0 -181.5 48.5t-133.5 128.5v-562h-156zM371 319q44 -88 119 -147t155 -59q126 0 200.5 118t74.5 293q0 180 -71 294t-198 114 q-165 0 -280 -180v-433z" />
<glyph unicode="q" d="M145 530q0 233 108 385t288 152q197 0 317 -160v135h156v-1454h-156v562q-48 -77 -137.5 -127t-188.5 -50q-179 0 -283 157t-104 400zM309 522q0 -179 70.5 -294t193.5 -115q59 0 119 32t113 96t53 78v433q-112 180 -270 180q-129 0 -204 -117t-75 -293z" />
<glyph unicode="r" d="M326 0v1042h155v-211q125 236 324 236q118 0 229 -53l-63 -150q-103 45 -178 45q-69 0 -135 -39.5t-121.5 -113t-55.5 -82.5v-674h-155z" />
<glyph unicode="s" d="M233 774q0 135 118 214t313 79q126 0 280 -43l-35 -131q-131 43 -247 43q-127 0 -201 -42.5t-74 -113.5q0 -45 34 -78.5t136 -62.5l149 -43q103 -29 168 -69.5t97.5 -98t32.5 -133.5q0 -149 -125 -235.5t-318 -86.5q-192 0 -317 58l30 135q131 -62 281 -62 q130 0 211.5 48.5t81.5 128.5q0 54 -40.5 96.5t-190.5 88.5q-121 37 -178 55.5t-106 54.5t-74.5 86t-25.5 112z" />
<glyph unicode="t" d="M240 907v135h200v285h152v-285h354v-135h-354v-596q0 -95 42 -147.5t114 -52.5q128 0 253 57l27 -121q-157 -72 -309 -72q-279 0 -279 295v637h-200z" />
<glyph unicode="u" d="M213 330v712h156v-667q0 -133 42 -198.5t142 -65.5q143 0 307 178v753h156v-1042h-156v154q-168 -179 -354 -179q-293 0 -293 355z" />
<glyph unicode="v" d="M135 1042h170l295 -829l295 829h170l-395 -1042h-142z" />
<glyph unicode="w" d="M115 1042h155q83 -730 86 -766l191 453h160l190 -450l84 763h160l-150 -1042h-119l-245 590l-246 -590h-119z" />
<glyph unicode="x" d="M145 0l371 522l-371 520h179l280 -405l285 405h166l-369 -514l369 -528h-176l-279 408l-289 -408h-166z" />
<glyph unicode="y" d="M117 -377l26 125q76 -24 136 -24q84 0 138 65t109 213l-391 1040h170l295 -831l295 831h170l-395 -1042q-86 -230 -170.5 -321t-192.5 -91q-96 0 -190 35z" />
<glyph unicode="z" d="M203 0v84l594 821h-580v137h787v-77l-594 -828h594v-137h-801z" />
<glyph unicode="{" d="M358 453v163q109 0 158 73.5t49 260.5v97q0 209 63.5 286.5t207.5 77.5h79v-131h-30q-93 0 -129.5 -40t-36.5 -191v-64q0 -207 -48 -305t-163 -145q115 -48 163 -146t48 -305v-64q0 -151 36.5 -191t129.5 -40h30v-131h-79q-144 0 -207.5 77.5t-63.5 287.5v96 q0 187 -49 260.5t-158 73.5z" />
<glyph unicode="|" d="M532 -383v1794h154v-1794h-154z" />
<glyph unicode="}" d="M309 -211h31q93 0 129.5 40t36.5 191v64q0 207 48 305t163 146q-115 47 -163 145t-48 305v64q0 151 -36.5 191t-129.5 40h-31v131h80q144 0 207 -77.5t63 -286.5v-97q0 -169 44 -251.5t163 -82.5v-163q-108 0 -157.5 -73.5t-49.5 -260.5v-96q0 -210 -63 -287.5 t-207 -77.5h-80v131z" />
<glyph unicode="~" d="M59 399v144q158 131 306 131q86 0 258 -78t245 -78q117 0 287 137v-143q-155 -131 -299 -131q-84 0 -256 78q-176 78 -250 78q-117 0 -291 -138z" />
<glyph unicode="&#xa0;" />
<glyph unicode="&#xa1;" d="M498 936q0 54 36.5 92.5t88.5 38.5q51 0 86.5 -38.5t35.5 -92.5q0 -53 -35 -89t-87 -36q-53 0 -89 36t-36 89zM537 88l47 528h86l47 -528v-459h-180v459z" />
<glyph unicode="&#xa2;" d="M197 520q0 217 117 363t325 178v186h117v-180q144 -3 274 -55l-41 -129q-123 43 -233 49v-823q126 5 252 51l26 -125q-126 -58 -278 -62v-180h-117v187q-210 31 -326 176.5t-116 363.5zM360 520q0 -144 74.5 -255t204.5 -146v803q-134 -30 -206.5 -136t-72.5 -266z" />
<glyph unicode="&#xa3;" d="M162 631v133h196v170q0 257 95.5 379.5t298.5 122.5q145 0 266 -54l-37 -133q-115 43 -227 43q-121 0 -176.5 -86t-55.5 -274v-168h252v-133h-252v-199q0 -116 -61 -180q93 0 226 -64q112 -53 177 -53q121 0 248 111v-168q-115 -98 -258 -98q-79 0 -204 60 q-114 56 -181 56q-127 0 -258 -106v157q112 86 129.5 148.5t17.5 118.5v217h-196z" />
<glyph unicode="&#xa4;" d="M72 266l184 211q-106 131 -106 295q0 168 106 295l-184 213l114 100l185 -211q108 70 241 66q74 0 126.5 -16.5t117.5 -49.5l186 211l115 -100l-184 -213q104 -137 104 -295q0 -161 -104 -295l184 -211l-115 -96l-186 207q-114 -68 -244 -68q-124 0 -241 68l-185 -207z M305 774q0 -127 90 -217t217 -90t218.5 90.5t91.5 216.5q0 127 -91 217t-219 90q-127 0 -217 -90t-90 -217z" />
<glyph unicode="&#xa5;" d="M94 1411h185l337 -639l338 639h185l-389 -717h340v-131h-392v-143h392v-131h-392v-293h-163v293h-392v131h392v143h-392v131h340z" />
<glyph unicode="&#xa6;" d="M532 348h154v-760h-154v760zM532 651v760h154v-760h-154z" />
<glyph unicode="&#xa7;" d="M190 559q0 92 55 167t156 118q-174 98 -174 262q0 151 124 241.5t323 90.5q147 0 282 -39l-36 -137q-130 38 -242 38q-133 0 -210 -48t-77 -140q0 -127 211 -203q163 -59 217 -85.5t103.5 -71.5t76.5 -104t27 -132q0 -182 -166 -297q129 -113 129 -258 q0 -176 -133 -281.5t-328 -105.5q-172 0 -323 74l33 135q151 -70 282 -70q142 0 224.5 61t82.5 169q0 92 -58.5 153.5t-193.5 112.5q-154 58 -199.5 80.5t-91 63t-70 92t-24.5 114.5zM350 561q0 -53 49.5 -98t143 -80.5t198.5 -73.5q125 62 125 189q0 40 -10 73.5t-35 63.5 t-69.5 57.5t-112.5 52.5t-74 25q-69 0 -142 -58.5t-73 -150.5z" />
<glyph unicode="&#xa8;" d="M309 1298q0 47 32 78t77 31q46 0 76 -30.5t30 -78.5q0 -44 -31 -76t-75 -32t-76.5 32.5t-32.5 75.5zM705 1298q0 47 31 78t77 31q45 0 75 -31t30 -78q0 -43 -31 -75.5t-74 -32.5q-45 0 -76.5 32.5t-31.5 75.5z" />
<glyph unicode="&#xa9;" d="M10 836q0 250 176.5 426t427.5 176q250 0 427.5 -177t177.5 -425q0 -251 -177.5 -429t-427.5 -178t-427 178t-177 429zM119 836q0 -206 145 -351t350 -145q206 0 352 145.5t146 350.5q0 204 -146 349.5t-352 145.5q-204 0 -349.5 -145.5t-145.5 -349.5zM346 838 q0 153 75.5 241t209.5 88q89 0 180 -49l-35 -94q-67 37 -145 37q-82 0 -120 -52.5t-38 -170.5q0 -222 158 -222q73 0 160 54l32 -92q-92 -68 -192 -68q-130 0 -207.5 92t-77.5 236z" />
<glyph unicode="&#xaa;" d="M338 971q0 186 389 203v18q0 70 -36.5 105.5t-92.5 35.5q-86 0 -192 -55l-41 90q154 70 262 70q233 0 233 -234v-252q0 -68 17 -155h-136q-8 38 -8 82q-37 -43 -96.5 -71t-110.5 -28q-79 0 -133.5 53t-54.5 138zM477 971q0 -37 25 -61.5t59 -24.5q97 0 166 92v119 q-153 -7 -201.5 -40t-48.5 -85z" />
<glyph unicode="&#xab;" d="M176 502v121l381 440l92 -80l-358 -422l358 -422l-92 -80zM578 502v121l380 440l93 -80l-359 -422l359 -422l-93 -80z" />
<glyph unicode="&#xac;" d="M141 858v131h946v-491h-131v360h-815z" />
<glyph unicode="&#xad;" d="M307 487v152h594v-152h-594z" />
<glyph unicode="&#xae;" d="M10 836q0 250 176.5 426t427.5 176q250 0 427.5 -177t177.5 -425q0 -251 -177.5 -429t-427.5 -178t-427 178t-177 429zM119 836q0 -206 145 -351t350 -145q206 0 352 145.5t146 350.5q0 204 -146 349.5t-352 145.5q-204 0 -349.5 -145.5t-145.5 -349.5zM403 512v653h205 q103 0 169.5 -52t66.5 -140q0 -122 -125 -172l203 -289h-144l-170 258h-78v-258h-127zM530 874h68q123 0 123 95q0 90 -117 90h-74v-185z" />
<glyph unicode="&#xaf;" d="M0 1726v132h1229v-132h-1229z" />
<glyph unicode="&#xb0;" d="M336 1161q0 115 81 196t195 81q115 0 196 -81t81 -196q0 -114 -81 -195t-196 -81q-114 0 -195 81t-81 195zM444 1161q0 -70 49 -120t119 -50q71 0 120.5 50t49.5 120t-49.5 119t-120.5 49q-70 0 -119 -48.5t-49 -119.5z" />
<glyph unicode="&#xb1;" d="M141 0v131h946v-131h-946zM141 657v131h410v410h131v-410h405v-131h-405v-409h-131v409h-410z" />
<glyph unicode="&#xb2;" d="M393 698l2 84q210 227 249.5 296.5t39.5 129.5q0 47 -30 74t-85 27q-44 0 -151 -35l-17 106q91 37 183 37q105 0 168 -55t63 -150q0 -56 -41 -132t-227 -273h278v-109h-432z" />
<glyph unicode="&#xb3;" d="M367 733l26 103q84 -41 152 -41q54 0 92.5 31.5t38.5 80.5q0 50 -42 81.5t-112 31.5h-45v102h29q68 0 112 28.5t44 78.5q0 80 -113 80q-53 0 -141 -35l-17 106q86 37 162 37q104 0 172 -52.5t68 -133.5q0 -54 -38.5 -96t-101.5 -58v-2q65 -10 109.5 -56t44.5 -106 q0 -96 -79 -162.5t-187 -66.5q-91 0 -174 49z" />
<glyph unicode="&#xb4;" d="M459 1165l198 301h226l-312 -301h-112z" />
<glyph unicode="&#xb5;" d="M213 -338v1380h156v-667q0 -133 42 -198.5t142 -65.5q143 0 307 178v753h156v-1042h-156v154q-168 -179 -354 -179q-81 0 -137 27v-340h-156z" />
<glyph unicode="&#xb6;" d="M41 967q0 204 139 324t371 120h586v-106h-150v-1655h-117v1655h-237v-1655h-119v901q-165 0 -319 120t-154 296z" />
<glyph unicode="&#xb7;" d="M485 678q0 53 35.5 89t87.5 36q53 0 89 -36t36 -89q0 -54 -36.5 -92.5t-88.5 -38.5q-51 0 -87 38.5t-36 92.5z" />
<glyph unicode="&#xb8;" d="M449 -264q34 -4 55 -4q55 0 93 22.5t38 50.5q0 66 -127 66l45 129h100l-16 -53q119 -28 119 -125q0 -87 -64.5 -138t-161.5 -51q-40 0 -81 7v96z" />
<glyph unicode="&#xb9;" d="M401 698v109h150v467l-141 -70v123l170 84h98v-604h139v-109h-416z" />
<glyph unicode="&#xba;" d="M303 1112q0 144 80.5 235t218.5 91q136 0 217.5 -90.5t81.5 -235.5q0 -147 -82 -238.5t-217 -91.5q-137 0 -218 90.5t-81 239.5zM442 1110q0 -95 43.5 -159t116.5 -64t116.5 64t43.5 159q0 223 -160 223q-74 0 -117 -61.5t-43 -161.5z" />
<glyph unicode="&#xbb;" d="M176 139l359 422l-359 422l92 80l381 -440v-121l-381 -443zM578 139l358 422l-358 422l92 80l381 -440v-121l-381 -443z" />
<glyph unicode="&#xbc;" d="M58 698v109h150v467l-141 -70v123l170 84h98v-604h139v-109h-416zM236 0l641 1411h118l-643 -1411h-116zM629 161v86l286 467h148v-442h86v-111h-86v-160h-127v160h-307zM762 272h174v282z" />
<glyph unicode="&#xbd;" d="M58 698v109h150v467l-141 -70v123l170 84h98v-604h139v-109h-416zM236 0l641 1411h118l-643 -1411h-116zM750 1l2 84q210 227 249.5 296.5t39.5 129.5q0 47 -30 74t-85 27q-44 0 -151 -35l-17 106q91 37 183 37q105 0 168 -55t63 -150q0 -56 -41 -132t-227 -273h278v-109 h-432z" />
<glyph unicode="&#xbe;" d="M60 733l26 103q84 -41 152 -41q54 0 92.5 31.5t38.5 80.5q0 50 -42 81.5t-112 31.5h-45v102h29q68 0 112 28.5t44 78.5q0 80 -113 80q-53 0 -141 -35l-17 106q86 37 162 37q104 0 172 -52.5t68 -133.5q0 -54 -38.5 -96t-101.5 -58v-2q65 -10 109.5 -56t44.5 -106 q0 -96 -79 -162.5t-187 -66.5q-91 0 -174 49zM236 0l641 1411h118l-643 -1411h-116zM629 161v86l286 467h148v-442h86v-111h-86v-160h-127v160h-307zM762 272h174v282z" />
<glyph unicode="&#xbf;" d="M281 -61q0 172 222 356q98 80 119 106.5t34.5 65t13.5 94.5v55h137v-57q0 -174 -111 -270l-133 -116q-63 -55 -93 -110.5t-30 -117.5q0 -105 66 -160t180 -55q103 0 260 73l47 -120q-177 -80 -317 -80q-189 0 -292 85t-103 251zM596 936q0 54 36.5 92.5t88.5 38.5 q51 0 87 -38.5t36 -92.5t-35.5 -89.5t-87.5 -35.5q-53 0 -89 36t-36 89z" />
<glyph unicode="&#xc0;" d="M57 0l461 1411h197l461 -1411h-172l-156 494h-463l-158 -494h-170zM352 1835h225l199 -301h-113zM432 637h369l-185 584z" />
<glyph unicode="&#xc1;" d="M57 0l461 1411h197l461 -1411h-172l-156 494h-463l-158 -494h-170zM432 637h369l-185 584zM456 1534l198 301h226l-312 -301h-112z" />
<glyph unicode="&#xc2;" d="M57 0l461 1411h197l461 -1411h-172l-156 494h-463l-158 -494h-170zM309 1534l199 301h225l199 -301h-113l-198 193l-199 -193h-113zM432 637h369l-185 584z" />
<glyph unicode="&#xc3;" d="M57 0l461 1411h197l461 -1411h-172l-156 494h-463l-158 -494h-170zM280 1552q34 230 192 230q56 0 174 -57q101 -48 142 -48q39 0 68 30t36 75h84q-34 -230 -192 -230q-56 0 -174 57q-101 48 -142 48q-39 0 -68 -30t-36 -75h-84zM432 637h369l-185 584z" />
<glyph unicode="&#xc4;" d="M57 0l461 1411h197l461 -1411h-172l-156 494h-463l-158 -494h-170zM309 1650q0 47 32 78t77 31q46 0 76 -30.5t30 -78.5q0 -44 -31 -76t-75 -32t-76.5 32.5t-32.5 75.5zM432 637h369l-185 584zM705 1650q0 47 31 78t77 31q45 0 75 -31t30 -78q0 -43 -31 -75.5t-74 -32.5 q-45 0 -76.5 32.5t-31.5 75.5z" />
<glyph unicode="&#xc5;" d="M57 0l447 1368q-80 61 -80 156q0 78 56 134t134 56t134.5 -56t56.5 -134q0 -94 -78 -154q0 1 224 -684l225 -686h-172l-156 494h-463l-158 -494h-170zM432 637h369l-185 584zM502 1524q0 -46 33 -79.5t79 -33.5t79.5 33.5t33.5 79.5t-33.5 79t-79.5 33q-45 0 -78.5 -33 t-33.5 -79z" />
<glyph unicode="&#xc6;" d="M12 0l451 1411h713v-143h-416v-437h393v-143h-393v-545h422v-143h-586v504h-260l-156 -504h-168zM383 647h213v615h-23z" />
<glyph unicode="&#xc7;" d="M127 705q0 344 138 538.5t421 194.5q102 0 202 -26t161 -69l-54 -129q-141 80 -309 80q-195 0 -290 -141.5t-95 -447.5q0 -588 385 -588q163 0 334 100l51 -129q-148 -104 -344 -113l-8 -28q119 -28 119 -125q0 -87 -64.5 -138t-161.5 -51q-40 0 -82 7v96q35 -4 56 -4 q55 0 93 22.5t38 50.5q0 66 -127 66l37 104q-247 21 -373.5 208.5t-126.5 521.5z" />
<glyph unicode="&#xc8;" d="M256 0v1411h731v-143h-567v-437h545v-143h-545v-545h573v-143h-737zM354 1835h225l199 -301h-113z" />
<glyph unicode="&#xc9;" d="M256 0v1411h731v-143h-567v-437h545v-143h-545v-545h573v-143h-737zM461 1534l198 301h226l-312 -301h-112z" />
<glyph unicode="&#xca;" d="M256 0v1411h731v-143h-567v-437h545v-143h-545v-545h573v-143h-737zM317 1534l199 301h225l199 -301h-113l-198 193l-199 -193h-113z" />
<glyph unicode="&#xcb;" d="M256 0v1411h731v-143h-567v-437h545v-143h-545v-545h573v-143h-737zM326 1650q0 47 32 78t77 31q46 0 76 -30.5t30 -78.5q0 -44 -31 -76t-75 -32t-76.5 32.5t-32.5 75.5zM722 1650q0 47 31 78t77 31q45 0 75 -31t30 -78q0 -43 -31 -75.5t-74 -32.5q-45 0 -76.5 32.5 t-31.5 75.5z" />
<glyph unicode="&#xcc;" d="M287 0v143h243v1125h-243v143h641v-143h-234v-1125h234v-143h-641zM323 1835h225l199 -301h-113z" />
<glyph unicode="&#xcd;" d="M287 0v143h243v1125h-243v143h641v-143h-234v-1125h234v-143h-641zM421 1534l198 301h226l-312 -301h-112z" />
<glyph unicode="&#xce;" d="M287 0v143h243v1125h-243v143h641v-143h-234v-1125h234v-143h-641zM296 1534l199 301h225l199 -301h-113l-198 193l-199 -193h-113z" />
<glyph unicode="&#xcf;" d="M287 0v143h243v1125h-243v143h641v-143h-234v-1125h234v-143h-641zM304 1650q0 47 32 78t77 31q46 0 76 -30.5t30 -78.5q0 -44 -31 -76t-75 -32t-76.5 32.5t-32.5 75.5zM700 1650q0 47 31 78t77 31q45 0 75 -31t30 -78q0 -43 -31 -75.5t-74 -32.5q-45 0 -76.5 32.5 t-31.5 75.5z" />
<glyph unicode="&#xd0;" d="M63 651v144h146v616h278q277 0 444 -188.5t167 -517.5q0 -336 -169.5 -520.5t-434.5 -184.5h-285v651h-146zM373 143h116q201 0 318 149t117 413q0 262 -117.5 412.5t-317.5 150.5h-116v-473h194v-144h-194v-508z" />
<glyph unicode="&#xd1;" d="M188 0v1411h183l508 -1104v1104h161v-1411h-182l-506 1114v-1114h-164zM267 1552q34 230 192 230q56 0 174 -57q101 -48 142 -48q39 0 68 30t36 75h84q-34 -230 -192 -230q-56 0 -174 57q-101 48 -142 48q-39 0 -68 -30t-36 -75h-84z" />
<glyph unicode="&#xd2;" d="M127 705q0 357 124 545t361 188t361.5 -187.5t124.5 -545.5q0 -356 -124 -544t-362 -188q-236 0 -360.5 187.5t-124.5 544.5zM301 705q0 -287 79 -437.5t232 -150.5q312 0 312 588q0 589 -312 589q-152 0 -231.5 -152.5t-79.5 -436.5zM333 1835h225l199 -301h-113z" />
<glyph unicode="&#xd3;" d="M127 705q0 357 124 545t361 188t361.5 -187.5t124.5 -545.5q0 -356 -124 -544t-362 -188q-236 0 -360.5 187.5t-124.5 544.5zM301 705q0 -287 79 -437.5t232 -150.5q312 0 312 588q0 589 -312 589q-152 0 -231.5 -152.5t-79.5 -436.5zM450 1534l198 301h226l-312 -301 h-112z" />
<glyph unicode="&#xd4;" d="M127 705q0 357 124 545t361 188t361.5 -187.5t124.5 -545.5q0 -356 -124 -544t-362 -188q-236 0 -360.5 187.5t-124.5 544.5zM301 705q0 -287 79 -437.5t232 -150.5q312 0 312 588q0 589 -312 589q-152 0 -231.5 -152.5t-79.5 -436.5zM302 1534l199 301h225l199 -301 h-113l-198 193l-199 -193h-113z" />
<glyph unicode="&#xd5;" d="M127 705q0 357 124 545t361 188t361.5 -187.5t124.5 -545.5q0 -356 -124 -544t-362 -188q-236 0 -360.5 187.5t-124.5 544.5zM257 1552q34 230 192 230q56 0 174 -57q101 -48 142 -48q39 0 68 30t36 75h84q-34 -230 -192 -230q-56 0 -174 57q-101 48 -142 48 q-39 0 -68 -30t-36 -75h-84zM301 705q0 -287 79 -437.5t232 -150.5q312 0 312 588q0 589 -312 589q-152 0 -231.5 -152.5t-79.5 -436.5z" />
<glyph unicode="&#xd6;" d="M127 705q0 357 124 545t361 188t361.5 -187.5t124.5 -545.5q0 -356 -124 -544t-362 -188q-236 0 -360.5 187.5t-124.5 544.5zM301 705q0 -287 79 -437.5t232 -150.5q312 0 312 588q0 589 -312 589q-152 0 -231.5 -152.5t-79.5 -436.5zM309 1652q0 47 32 78t77 31 q46 0 76 -30.5t30 -78.5q0 -44 -31 -76t-75 -32t-76.5 32.5t-32.5 75.5zM705 1652q0 47 31 78t77 31q45 0 75 -31t30 -78q0 -43 -31 -75.5t-74 -32.5q-45 0 -76.5 32.5t-31.5 75.5z" />
<glyph unicode="&#xd7;" d="M205 406l317 319l-317 317l92 95l319 -320l316 316l92 -93l-315 -315l319 -319l-94 -93l-318 318l-319 -318z" />
<glyph unicode="&#xd8;" d="M127 705q0 357 124 545t361 188q126 0 222 -56l65 154h137l-100 -236q162 -187 162 -595q0 -356 -124 -544t-362 -188q-124 0 -221 54l-61 -144h-135l96 226q-164 183 -164 596zM301 705q0 -260 68 -414l403 948q-68 55 -160 55q-152 0 -231.5 -152.5t-79.5 -436.5z M453 172q68 -55 159 -55q312 0 312 588q0 268 -66 413z" />
<glyph unicode="&#xd9;" d="M209 440v971h164v-956q0 -338 245 -338q123 0 180.5 80t57.5 260v954h164v-967q0 -245 -99.5 -358t-302.5 -113q-409 0 -409 467zM327 1835h225l199 -301h-113z" />
<glyph unicode="&#xda;" d="M209 440v971h164v-956q0 -338 245 -338q123 0 180.5 80t57.5 260v954h164v-967q0 -245 -99.5 -358t-302.5 -113q-409 0 -409 467zM458 1534l198 301h226l-312 -301h-112z" />
<glyph unicode="&#xdb;" d="M209 440v971h164v-956q0 -338 245 -338q123 0 180.5 80t57.5 260v954h164v-967q0 -245 -99.5 -358t-302.5 -113q-409 0 -409 467zM306 1534l199 301h225l199 -301h-113l-198 193l-199 -193h-113z" />
<glyph unicode="&#xdc;" d="M209 440v971h164v-956q0 -338 245 -338q123 0 180.5 80t57.5 260v954h164v-967q0 -245 -99.5 -358t-302.5 -113q-409 0 -409 467zM309 1650q0 47 32 78t77 31q46 0 76 -30.5t30 -78.5q0 -44 -31 -76t-75 -32t-76.5 32.5t-32.5 75.5zM705 1650q0 47 31 78t77 31 q45 0 75 -31t30 -78q0 -43 -31 -75.5t-74 -32.5q-45 0 -76.5 32.5t-31.5 75.5z" />
<glyph unicode="&#xdd;" d="M94 1411h185l337 -635l338 635h185l-441 -807v-604h-163v604zM469 1534l198 301h226l-312 -301h-112z" />
<glyph unicode="&#xde;" d="M256 0v1411h164v-291h194q203 0 325 -102t122 -281q0 -180 -121.5 -287.5t-318.5 -107.5h-201v-342h-164zM420 485h178q289 0 289 242q0 112 -78.5 181t-202.5 69h-186v-492z" />
<glyph unicode="&#xdf;" d="M156 0v1030q0 193 104.5 299.5t296.5 106.5q367 0 367 -301q0 -54 -29 -106t-134 -126q-74 -52 -92 -78.5t-18 -52.5q0 -56 47.5 -86t204.5 -94q234 -95 234 -313q0 -139 -100 -222.5t-261 -83.5q-152 0 -278 54l32 135q120 -58 240 -58q91 0 152 49t61 119 q0 68 -39 115.5t-153 93.5q-134 54 -182 83t-79.5 80t-31.5 126q0 49 27.5 96.5t127.5 118.5q78 55 97.5 84t19.5 57q0 83 -54 128.5t-157 45.5q-119 0 -183.5 -77.5t-64.5 -227.5v-995h-155z" />
<glyph unicode="&#xe0;" d="M215 268q0 77 31 136t91 99.5t146 64t204 32.5l175 14v50q0 268 -250 268q-59 0 -149.5 -25.5t-155.5 -60.5l-41 112q213 109 396 109q356 0 356 -377v-448q0 -136 26 -242h-155q-19 63 -19 168q-133 -195 -362 -195q-116 0 -204.5 82.5t-88.5 212.5zM379 279 q0 -70 49 -113t125 -43q83 0 165 49.5t144 136.5v189q-211 -19 -289.5 -35.5t-136 -61.5t-57.5 -122zM397 1466h225l199 -301h-113z" />
<glyph unicode="&#xe1;" d="M215 268q0 77 31 136t91 99.5t146 64t204 32.5l175 14v50q0 268 -250 268q-59 0 -149.5 -25.5t-155.5 -60.5l-41 112q213 109 396 109q356 0 356 -377v-448q0 -136 26 -242h-155q-19 63 -19 168q-133 -195 -362 -195q-116 0 -204.5 82.5t-88.5 212.5zM379 279 q0 -70 49 -113t125 -43q83 0 165 49.5t144 136.5v189q-211 -19 -289.5 -35.5t-136 -61.5t-57.5 -122zM494 1165l198 301h226l-312 -301h-112z" />
<glyph unicode="&#xe2;" d="M215 268q0 77 31 136t91 99.5t146 64t204 32.5l175 14v50q0 268 -250 268q-59 0 -149.5 -25.5t-155.5 -60.5l-41 112q213 109 396 109q356 0 356 -377v-448q0 -136 26 -242h-155q-19 63 -19 168q-133 -195 -362 -195q-116 0 -204.5 82.5t-88.5 212.5zM336 1165l199 301 h225l199 -301h-113l-198 193l-199 -193h-113zM379 279q0 -70 49 -113t125 -43q83 0 165 49.5t144 136.5v189q-211 -19 -289.5 -35.5t-136 -61.5t-57.5 -122z" />
<glyph unicode="&#xe3;" d="M215 268q0 77 31 136t91 99.5t146 64t204 32.5l175 14v50q0 268 -250 268q-59 0 -149.5 -25.5t-155.5 -60.5l-41 112q213 109 396 109q356 0 356 -377v-448q0 -136 26 -242h-155q-19 63 -19 168q-133 -195 -362 -195q-116 0 -204.5 82.5t-88.5 212.5zM292 1185 q34 230 192 230q56 0 174 -57q101 -48 142 -48q39 0 68 30t36 75h84q-34 -230 -192 -230q-56 0 -174 57q-101 48 -142 48q-39 0 -68 -30t-36 -75h-84zM379 279q0 -70 49 -113t125 -43q83 0 165 49.5t144 136.5v189q-211 -19 -289.5 -35.5t-136 -61.5t-57.5 -122z" />
<glyph unicode="&#xe4;" d="M215 268q0 77 31 136t91 99.5t146 64t204 32.5l175 14v50q0 268 -250 268q-59 0 -149.5 -25.5t-155.5 -60.5l-41 112q213 109 396 109q356 0 356 -377v-448q0 -136 26 -242h-155q-19 63 -19 168q-133 -195 -362 -195q-116 0 -204.5 82.5t-88.5 212.5zM334 1283 q0 47 32 78t77 31q46 0 76 -30.5t30 -78.5q0 -44 -31 -76t-75 -32t-76.5 32.5t-32.5 75.5zM379 279q0 -70 49 -113t125 -43q83 0 165 49.5t144 136.5v189q-211 -19 -289.5 -35.5t-136 -61.5t-57.5 -122zM730 1283q0 47 31 78t77 31q45 0 75 -31t30 -78q0 -43 -31 -75.5 t-74 -32.5q-45 0 -76.5 32.5t-31.5 75.5z" />
<glyph unicode="&#xe5;" d="M215 268q0 77 31 136t91 99.5t146 64t204 32.5l175 14v50q0 268 -250 268q-59 0 -149.5 -25.5t-155.5 -60.5l-41 112q213 109 396 109q356 0 356 -377v-448q0 -136 26 -242h-155q-19 63 -19 168q-133 -195 -362 -195q-116 0 -204.5 82.5t-88.5 212.5zM379 279 q0 -70 49 -113t125 -43q83 0 165 49.5t144 136.5v189q-211 -19 -289.5 -35.5t-136 -61.5t-57.5 -122zM451 1358q0 77 56 133.5t134 56.5t134.5 -56.5t56.5 -133.5q0 -78 -56.5 -134.5t-134.5 -56.5t-134 56.5t-56 134.5zM529 1358q0 -47 33 -80t79 -33t79.5 33.5t33.5 79.5 q0 45 -33.5 78.5t-79.5 33.5q-45 0 -78.5 -33.5t-33.5 -78.5z" />
<glyph unicode="&#xe6;" d="M45 268q0 144 108 231.5t388 112.5v52q0 141 -45.5 204.5t-157.5 63.5q-78 0 -211 -58l-41 119q151 74 301 74q185 0 256 -119q91 119 234 119q142 0 224.5 -125t82.5 -367v-59h-488v-18q0 -188 59 -288.5t173 -100.5q108 0 235 51l23 -125q-129 -62 -258 -62 q-210 0 -310 177q-132 -177 -309 -177q-115 0 -189.5 80.5t-74.5 214.5zM209 279q0 -69 42.5 -112.5t104.5 -43.5q73 0 129 53t56 80v242q-163 -10 -247.5 -69.5t-84.5 -149.5zM696 643h314q0 137 -35 214t-98 77q-81 0 -128 -77.5t-53 -213.5z" />
<glyph unicode="&#xe7;" d="M176 520q0 248 147.5 397.5t387.5 149.5q157 0 299 -55l-41 -129q-142 49 -256 49q-172 0 -272.5 -111t-100.5 -301q0 -174 104 -292.5t271 -118.5q132 0 272 51l27 -125q-129 -58 -287 -62l-8 -26q119 -28 119 -125q0 -87 -64.5 -138t-161.5 -51q-40 0 -82 7v96 q35 -4 56 -4q55 0 93 22.5t38 50.5q0 66 -127 66l37 109q-214 28 -332.5 174t-118.5 366z" />
<glyph unicode="&#xe8;" d="M170 524q0 248 127.5 395.5t329.5 147.5q180 0 301 -137t121 -365v-49h-715q0 -177 102.5 -292t251.5 -115q142 0 293 51l27 -125q-138 -62 -322 -62q-232 0 -374 149t-142 402zM344 643h535q0 122 -76 205.5t-170 83.5q-121 0 -200.5 -80t-88.5 -209zM348 1466h225 l199 -301h-113z" />
<glyph unicode="&#xe9;" d="M170 524q0 248 127.5 395.5t329.5 147.5q180 0 301 -137t121 -365v-49h-715q0 -177 102.5 -292t251.5 -115q142 0 293 51l27 -125q-138 -62 -322 -62q-232 0 -374 149t-142 402zM344 643h535q0 122 -76 205.5t-170 83.5q-121 0 -200.5 -80t-88.5 -209zM452 1165l198 301 h226l-312 -301h-112z" />
<glyph unicode="&#xea;" d="M170 524q0 248 127.5 395.5t329.5 147.5q180 0 301 -137t121 -365v-49h-715q0 -177 102.5 -292t251.5 -115q142 0 293 51l27 -125q-138 -62 -322 -62q-232 0 -374 149t-142 402zM304 1165l199 301h225l199 -301h-113l-198 193l-199 -193h-113zM344 643h535 q0 122 -76 205.5t-170 83.5q-121 0 -200.5 -80t-88.5 -209z" />
<glyph unicode="&#xeb;" d="M170 524q0 248 127.5 395.5t329.5 147.5q180 0 301 -137t121 -365v-49h-715q0 -177 102.5 -292t251.5 -115q142 0 293 51l27 -125q-138 -62 -322 -62q-232 0 -374 149t-142 402zM322 1283q0 47 32 78t77 31q46 0 76 -30.5t30 -78.5q0 -44 -31 -76t-75 -32t-76.5 32.5 t-32.5 75.5zM344 643h535q0 122 -76 205.5t-170 83.5q-121 0 -200.5 -80t-88.5 -209zM718 1283q0 47 31 78t77 31q45 0 75 -31t30 -78q0 -43 -31 -75.5t-74 -32.5q-45 0 -76.5 32.5t-31.5 75.5z" />
<glyph unicode="&#xec;" d="M295 907v135h463v-1042h-156v907h-307zM337 1466h225l199 -301h-113z" />
<glyph unicode="&#xed;" d="M295 907v135h463v-1042h-156v907h-307zM443 1165l198 301h226l-312 -301h-112z" />
<glyph unicode="&#xee;" d="M282 1165l199 301h225l199 -301h-113l-198 193l-199 -193h-113zM295 907v135h463v-1042h-156v907h-307z" />
<glyph unicode="&#xef;" d="M295 907v135h463v-1042h-156v907h-307zM302 1283q0 47 32 78t77 31q46 0 76 -30.5t30 -78.5q0 -44 -31 -76t-75 -32t-76.5 32.5t-32.5 75.5zM698 1283q0 47 31 78t77 31q45 0 75 -31t30 -78q0 -43 -31 -75.5t-74 -32.5q-45 0 -76.5 32.5t-31.5 75.5z" />
<glyph unicode="&#xf0;" d="M145 522q0 246 127 395.5t342 149.5q52 0 107 -10q-81 116 -146 178l-116 -84l-76 72l119 82q-60 59 -133 114l75 82q80 -57 160 -127l123 90l72 -69l-121 -90q204 -190 305.5 -380t99.5 -415q0 -235 -127 -386t-342 -151q-216 0 -342.5 150.5t-126.5 398.5zM309 520 q0 -174 81 -292.5t224 -118.5q142 0 224 120t82 291q0 180 -81 296t-225 116q-145 0 -225 -114.5t-80 -297.5z" />
<glyph unicode="&#xf1;" d="M215 0v1042h156v-153q168 178 354 178q293 0 293 -354v-713h-156v668q0 139 -44.5 201.5t-139.5 62.5q-143 0 -307 -178v-754h-156zM265 1185q34 230 192 230q56 0 174 -57q101 -48 142 -48q39 0 68 30t36 75h84q-34 -230 -192 -230q-56 0 -174 57q-101 48 -142 48 q-39 0 -68 -30t-36 -75h-84z" />
<glyph unicode="&#xf2;" d="M145 522q0 246 127 395.5t342 149.5t342 -150t127 -395q0 -247 -127 -398t-342 -151q-216 0 -342.5 150.5t-126.5 398.5zM309 520q0 -174 81 -292.5t224 -118.5q142 0 224 120t82 291q0 180 -81 296t-225 116q-145 0 -225 -114.5t-80 -297.5zM371 1466h225l199 -301h-113 z" />
<glyph unicode="&#xf3;" d="M145 522q0 246 127 395.5t342 149.5t342 -150t127 -395q0 -247 -127 -398t-342 -151q-216 0 -342.5 150.5t-126.5 398.5zM309 520q0 -174 81 -292.5t224 -118.5q142 0 224 120t82 291q0 180 -81 296t-225 116q-145 0 -225 -114.5t-80 -297.5zM469 1165l198 301h226 l-312 -301h-112z" />
<glyph unicode="&#xf4;" d="M145 522q0 246 127 395.5t342 149.5t342 -150t127 -395q0 -247 -127 -398t-342 -151q-216 0 -342.5 150.5t-126.5 398.5zM306 1165l199 301h225l199 -301h-113l-198 193l-199 -193h-113zM309 520q0 -174 81 -292.5t224 -118.5q142 0 224 120t82 291q0 180 -81 296 t-225 116q-145 0 -225 -114.5t-80 -297.5z" />
<glyph unicode="&#xf5;" d="M145 522q0 246 127 395.5t342 149.5t342 -150t127 -395q0 -247 -127 -398t-342 -151q-216 0 -342.5 150.5t-126.5 398.5zM269 1185q34 230 192 230q56 0 174 -57q101 -48 142 -48q39 0 68 30t36 75h84q-34 -230 -192 -230q-56 0 -174 57q-101 48 -142 48q-39 0 -68 -30 t-36 -75h-84zM309 520q0 -174 81 -292.5t224 -118.5q142 0 224 120t82 291q0 180 -81 296t-225 116q-145 0 -225 -114.5t-80 -297.5z" />
<glyph unicode="&#xf6;" d="M145 522q0 246 127 395.5t342 149.5t342 -150t127 -395q0 -247 -127 -398t-342 -151q-216 0 -342.5 150.5t-126.5 398.5zM309 520q0 -174 81 -292.5t224 -118.5q142 0 224 120t82 291q0 180 -81 296t-225 116q-145 0 -225 -114.5t-80 -297.5zM309 1283q0 47 32 78t77 31 q46 0 76 -30.5t30 -78.5q0 -44 -31 -76t-75 -32t-76.5 32.5t-32.5 75.5zM705 1283q0 47 31 78t77 31q45 0 75 -31t30 -78q0 -43 -31 -75.5t-74 -32.5q-45 0 -76.5 32.5t-31.5 75.5z" />
<glyph unicode="&#xf7;" d="M141 657v131h946v-131h-946zM506 340q0 49 31.5 81t78.5 32q48 0 80.5 -32.5t32.5 -80.5t-33 -82.5t-80 -34.5q-46 0 -78 34.5t-32 82.5zM506 1110q0 49 31.5 81t78.5 32q48 0 80.5 -32.5t32.5 -80.5t-33 -82.5t-80 -34.5q-46 0 -78 34.5t-32 82.5z" />
<glyph unicode="&#xf8;" d="M145 522q0 246 127 395.5t342 149.5q86 0 166 -27l64 148h137l-90 -209q192 -149 192 -457q0 -247 -127 -398t-342 -151q-72 0 -147 21l-61 -144h-136l84 197q-209 147 -209 475zM309 520q0 -208 109 -327l307 718q-55 21 -111 21q-145 0 -225 -114.5t-80 -297.5z M522 123q47 -14 92 -14q142 0 224 120t82 291q0 193 -93 311z" />
<glyph unicode="&#xf9;" d="M213 330v712h156v-667q0 -133 42 -198.5t142 -65.5q143 0 307 178v753h156v-1042h-156v154q-168 -179 -354 -179q-293 0 -293 355zM345 1466h225l199 -301h-113z" />
<glyph unicode="&#xfa;" d="M213 330v712h156v-667q0 -133 42 -198.5t142 -65.5q143 0 307 178v753h156v-1042h-156v154q-168 -179 -354 -179q-293 0 -293 355zM465 1165l198 301h226l-312 -301h-112z" />
<glyph unicode="&#xfb;" d="M213 330v712h156v-667q0 -133 42 -198.5t142 -65.5q143 0 307 178v753h156v-1042h-156v154q-168 -179 -354 -179q-293 0 -293 355zM298 1165l199 301h225l199 -301h-113l-198 193l-199 -193h-113z" />
<glyph unicode="&#xfc;" d="M213 330v712h156v-667q0 -133 42 -198.5t142 -65.5q143 0 307 178v753h156v-1042h-156v154q-168 -179 -354 -179q-293 0 -293 355zM302 1283q0 47 32 78t77 31q46 0 76 -30.5t30 -78.5q0 -44 -31 -76t-75 -32t-76.5 32.5t-32.5 75.5zM698 1283q0 47 31 78t77 31 q45 0 75 -31t30 -78q0 -43 -31 -75.5t-74 -32.5q-45 0 -76.5 32.5t-31.5 75.5z" />
<glyph unicode="&#xfd;" d="M117 -377l26 125q76 -24 136 -24q84 0 138 65t109 213l-391 1040h170l295 -831l295 831h170l-395 -1042q-86 -230 -170.5 -321t-192.5 -91q-96 0 -190 35zM455 1165l198 301h226l-312 -301h-112z" />
<glyph unicode="&#xfe;" d="M215 -412v1823h156v-504q52 72 140.5 116t186.5 44q180 0 282.5 -148.5t102.5 -386.5q0 -240 -107.5 -399.5t-289.5 -159.5q-97 0 -181.5 48.5t-133.5 128.5v-562h-156zM371 319q44 -88 119 -147t155 -59q126 0 200.5 118t74.5 293q0 180 -71 294t-198 114 q-165 0 -280 -180v-433z" />
<glyph unicode="&#xff;" d="M117 -377l26 125q76 -24 136 -24q84 0 138 65t109 213l-391 1040h170l295 -831l295 831h170l-395 -1042q-86 -230 -170.5 -321t-192.5 -91q-96 0 -190 35zM300 1283q0 47 32 78t77 31q46 0 76 -30.5t30 -78.5q0 -44 -31 -76t-75 -32t-76.5 32.5t-32.5 75.5zM696 1283 q0 47 31 78t77 31q45 0 75 -31t30 -78q0 -43 -31 -75.5t-74 -32.5q-45 0 -76.5 32.5t-31.5 75.5z" />
<glyph unicode="&#x152;" d="M127 705q0 326 126 516t359 190h490v-143h-352v-439h329v-139h-329v-547h358v-143h-512q-215 0 -342 193.5t-127 511.5zM301 705q0 -264 72.5 -413t222.5 -149v1123q-152 0 -223.5 -133.5t-71.5 -427.5z" />
<glyph unicode="&#x153;" d="M53 520q0 242 111 394.5t297 152.5q126 0 223 -72q77 72 193 72q137 0 222 -124.5t85 -362.5v-64h-488v-18q0 -188 59 -288.5t173 -100.5q108 0 235 51l23 -125q-129 -62 -258 -62q-148 0 -242 88q-97 -88 -225 -88q-179 0 -293.5 157t-114.5 390zM217 520 q0 -198 62 -304.5t182 -106.5q85 0 153 53q-77 156 -77 391q0 190 61 324q-69 55 -137 55q-244 0 -244 -412zM694 643h316q0 137 -35 214t-98 77q-168 0 -183 -291z" />
<glyph unicode="&#x178;" d="M94 1411h185l337 -635l338 635h185l-441 -807v-604h-163v604zM317 1650q0 47 32 78t77 31q46 0 76 -30.5t30 -78.5q0 -44 -31 -76t-75 -32t-76.5 32.5t-32.5 75.5zM713 1650q0 47 31 78t77 31q45 0 75 -31t30 -78q0 -43 -31 -75.5t-74 -32.5q-45 0 -76.5 32.5t-31.5 75.5 z" />
<glyph unicode="&#x2c6;" d="M309 1165l199 301h225l199 -301h-113l-198 193l-199 -193h-113z" />
<glyph unicode="&#x2dc;" d="M293 1200q34 230 192 230q56 0 174 -57q101 -48 142 -48q39 0 68 30t36 75h84q-34 -230 -192 -230q-56 0 -174 57q-101 48 -142 48q-39 0 -68 -30t-36 -75h-84z" />
<glyph unicode="&#x2000;" horiz-adv-x="929" />
<glyph unicode="&#x2001;" horiz-adv-x="1858" />
<glyph unicode="&#x2002;" horiz-adv-x="929" />
<glyph unicode="&#x2003;" horiz-adv-x="1858" />
<glyph unicode="&#x2004;" horiz-adv-x="619" />
<glyph unicode="&#x2005;" horiz-adv-x="464" />
<glyph unicode="&#x2006;" horiz-adv-x="309" />
<glyph unicode="&#x2007;" horiz-adv-x="309" />
<glyph unicode="&#x2008;" horiz-adv-x="232" />
<glyph unicode="&#x2009;" horiz-adv-x="371" />
<glyph unicode="&#x200a;" horiz-adv-x="103" />
<glyph unicode="&#x2010;" d="M307 487v152h594v-152h-594z" />
<glyph unicode="&#x2011;" d="M307 487v152h594v-152h-594z" />
<glyph unicode="&#x2012;" d="M307 487v152h594v-152h-594z" />
<glyph unicode="&#x2013;" d="M184 487v152h820v-152h-820z" />
<glyph unicode="&#x2014;" d="M0 487v152h1229v-152h-1229z" />
<glyph unicode="&#x2018;" d="M479 1135q0 195 217 305l39 -72q-123 -60 -123 -141q53 -6 87 -42.5t34 -84.5q0 -51 -33.5 -86t-83.5 -35q-55 0 -96 45.5t-41 110.5z" />
<glyph unicode="&#x2019;" d="M477 1049q123 60 123 141q-53 6 -87 42.5t-34 84.5q0 51 33.5 86t83.5 35q56 0 96.5 -45.5t40.5 -110.5q0 -195 -217 -305z" />
<glyph unicode="&#x201a;" d="M494 -168q122 60 122 141q-52 6 -86 43t-34 84q0 51 33 86t83 35q56 0 97 -45.5t41 -109.5q0 -196 -218 -306z" />
<glyph unicode="&#x201c;" d="M293 1135q0 195 217 305l39 -72q-123 -60 -123 -141q53 -6 87 -42.5t34 -84.5q0 -51 -33.5 -86t-83.5 -35q-56 0 -96.5 45.5t-40.5 110.5zM659 1135q0 195 218 305l38 -72q-122 -60 -122 -141q52 -6 86 -42.5t34 -84.5q0 -51 -33 -86t-83 -35q-56 0 -97 45.5t-41 110.5z " />
<glyph unicode="&#x201d;" d="M299 1049q123 60 123 141q-53 6 -87 42.5t-34 84.5q0 51 33.5 86t83.5 35q56 0 96.5 -45.5t40.5 -110.5q0 -195 -217 -305zM666 1049q122 60 122 141q-52 6 -86 42.5t-34 84.5q0 51 33.5 86t82.5 35q56 0 97 -45.5t41 -110.5q0 -195 -217 -305z" />
<glyph unicode="&#x201e;" d="M299 -168q123 60 123 141q-53 6 -87 43t-34 84q0 51 33.5 86t83.5 35q56 0 96.5 -45.5t40.5 -109.5q0 -196 -217 -306zM666 -168q122 60 122 141q-52 6 -86 43t-34 84q0 51 33 86t83 35q56 0 97 -45.5t41 -109.5q0 -196 -217 -306z" />
<glyph unicode="&#x2022;" d="M358 698q0 104 75 179t179 75t179 -75t75 -179t-75 -179t-179 -75t-179 75t-75 179z" />
<glyph unicode="&#x2026;" d="M80 104q0 54 35.5 89.5t87.5 35.5t88.5 -36t36.5 -89q0 -54 -36.5 -92.5t-88.5 -38.5t-87.5 38.5t-35.5 92.5zM494 104q0 54 35 89.5t87 35.5q53 0 89 -36t36 -89q0 -54 -36.5 -92.5t-88.5 -38.5q-51 0 -86.5 38.5t-35.5 92.5zM901 104q0 54 35.5 89.5t87.5 35.5 q53 0 89 -36t36 -89q0 -54 -36.5 -92.5t-88.5 -38.5q-51 0 -87 38.5t-36 92.5z" />
<glyph unicode="&#x202f;" horiz-adv-x="371" />
<glyph unicode="&#x2039;" d="M381 502v121l381 440l92 -80l-358 -422l358 -422l-92 -80z" />
<glyph unicode="&#x203a;" d="M375 139l358 422l-358 422l92 80l381 -440v-121l-381 -443z" />
<glyph unicode="&#x205f;" horiz-adv-x="464" />
<glyph unicode="&#x20ac;" d="M0 504l72 131h57q-2 21 -2 70q0 50 2 73h-129l71 131h70q80 529 545 529q102 0 202 -26t161 -69l-54 -129q-141 80 -309 80q-319 0 -373 -385h703l-72 -131h-641q-2 -23 -2 -73q0 -49 2 -70h653l-71 -131h-570q60 -387 371 -387q163 0 334 100l51 -129 q-166 -115 -385 -115q-469 0 -545 531h-141z" />
<glyph unicode="&#x2122;" d="M16 1303v108h471v-108h-172v-635h-127v635h-172zM545 668v743h145l154 -364l162 364h153v-743h-131v549l-137 -310h-94l-131 310v-549h-121z" />
<glyph unicode="&#xe000;" horiz-adv-x="1040" d="M0 0v1040h1040v-1040h-1040z" />
<glyph unicode="&#xfb01;" d="M29 907v135h241v35q0 199 68 279t235 80q108 0 240 -41l-41 -127q-111 32 -199 32q-84 0 -115.5 -47.5t-31.5 -191.5v-19h561v-1042h-156v907h-405v-907h-156v907h-241z" />
<glyph unicode="&#xfb02;" d="M29 907v135h241v35q0 193 73 276t245 83q42 0 115 -9l131 -16h153v-1411h-156v1272q-165 28 -243 28q-92 0 -127 -52.5t-35 -186.5v-19h281v-135h-281v-907h-156v907h-241z" />
</font>
</defs>
</svg>
