<?xml version="1.0" standalone="no"?>
<!DOCTYPE svg PUBLIC "-//W3C//DTD SVG 1.1//EN" "http://www.w3.org/Graphics/SVG/1.1/DTD/svg11.dtd" >
<svg xmlns="http://www.w3.org/2000/svg">
<metadata></metadata>
<defs>
<font id="profontwindowsregular" horiz-adv-x="1024" >
<font-face units-per-em="2048" ascent="1536" descent="-512" />
<missing-glyph horiz-adv-x="500" />
<glyph horiz-adv-x="853" />
<glyph horiz-adv-x="853" />
<glyph unicode="&#xd;" />
<glyph unicode=" " />
<glyph unicode="!" d="M341 85q0 36 25 61t61 25t60.5 -25t24.5 -61t-24.5 -60.5t-60.5 -24.5t-61 24.5t-25 60.5zM341 341v854h171v-854h-171z" />
<glyph unicode="&#x22;" d="M171 853v512h170v-512h-170zM512 853v512h171v-512h-171z" />
<glyph unicode="#" d="M0 512v171h171v170h-171v171h171v171h170v-171h171v171h171v-171h170v-171h-170v-170h170v-171h-170v-171h-171v171h-171v-171h-170v171h-171zM341 683h171v170h-171v-170z" />
<glyph unicode="$" d="M0 341h171q0 -70 50 -120t120 -50v341q-142 0 -241.5 100t-99.5 241q0 142 100 242t241 100v170h171v-170q142 0 241.5 -101t99.5 -241h-170q0 70 -50.5 120.5t-120.5 50.5v-341q140 0 240.5 -101t100.5 -241t-99.5 -240.5t-241.5 -100.5v-169h-171v169 q-142 0 -241.5 100t-99.5 241zM171 853q0 -70 50 -120t120 -50v341q-70 0 -120 -50.5t-50 -120.5zM512 171q70 0 120.5 50t50.5 120t-50.5 120.5t-120.5 50.5v-341z" />
<glyph unicode="%" d="M0 0v292l224 223q-104 22 -164 118q-60 90 -60 220q0 142 75 242t181 100h597v-292l-222 -222q97 -20 159.5 -117t62.5 -223q0 -142 -75 -241.5t-181 -99.5t-181 100t-75 241q0 19 4 53l-174 -174v-220h-171zM171 853q0 -70 24.5 -120t60.5 -50t60.5 50t24.5 120 t-24.5 120.5t-60.5 50.5t-60.5 -50.5t-24.5 -120.5zM476 1024q36 -82 36 -171q0 -36 -2 -51l173 173v49h-207zM512 341q0 -70 24.5 -120t60.5 -50t61 50t25 120t-25 120.5t-61 50.5t-60.5 -50.5t-24.5 -120.5z" />
<glyph unicode="&#x26;" d="M0 341q0 85 38 157l99 98l-99 100q-38 72 -38 157q0 142 100 242t241 100h106q97 0 166.5 -69.5t69.5 -164.5q0 -49 -14 -68l-294 -296l222 -223l176 176l118 -118l-174 -176l164 -166l-118 -116l-166 164l-99 -100q-72 -38 -157 -38q-140 0 -240.5 100t-100.5 241z M171 341q0 -70 50 -120t120 -50q38 0 63 12l76 73l-224 222l-73 -74q-12 -26 -12 -63zM171 853q0 -38 12 -63l75 -75l252 253q2 7 2 13q0 43 -43 43h-128q-70 0 -120 -50.5t-50 -120.5z" />
<glyph unicode="'" d="M341 853v512h171v-512h-171z" />
<glyph unicode="(" d="M171 224v747l426 427l118 -118l-374 -374v-618l374 -372l-118 -117z" />
<glyph unicode=")" d="M138 -84l374 372v618l-374 374l118 118l427 -427v-747l-427 -425z" />
<glyph unicode="*" d="M12 899l84 151l245 -137v282h171v-279l241 139l85 -147l-241 -140l244 -131l-83 -151l-246 135v-280h-171v280l-242 -140l-85 147l242 140z" />
<glyph unicode="+" d="M0 512v171h341v341h171v-341h341v-171h-341v-341h-171v341h-341z" />
<glyph unicode="," d="M213 -222l214 213v52q-70 0 -120.5 50t-50.5 120t50.5 120.5t120.5 50.5t120 -50.5t50 -120.5v-286l-266 -267z" />
<glyph unicode="-" d="M171 512v171h512v-171h-512z" />
<glyph unicode="." d="M256 213q0 70 50.5 120.5t120.5 50.5t117 -49.5t47 -121.5t-47 -121t-117 -49t-120.5 50t-50.5 120z" />
<glyph unicode="/" d="M0 -247l823 1612l152 -78l-823 -1611z" />
<glyph unicode="0" d="M0 341v512q0 140 100.5 241t240.5 101h171q140 0 240.5 -101t100.5 -241v-512q0 -140 -100.5 -240.5t-240.5 -100.5h-171q-140 0 -240.5 100.5t-100.5 240.5zM171 459l486 486q-51 79 -145 79h-171q-70 0 -120 -50.5t-50 -120.5v-394zM200 249q51 -79 141 -78h171 q70 0 120.5 50t50.5 120v391z" />
<glyph unicode="1" d="M0 0v171h341v682h-256v171h86q70 0 120 50.5t50 120.5h171v-1024h341v-171h-853z" />
<glyph unicode="2" d="M0 0v118l671 672q12 26 12 63q0 70 -50.5 120.5t-120.5 50.5h-171q-70 0 -120 -50.5t-50 -120.5h-171q0 140 100.5 241t240.5 101h171q140 0 240.5 -100t100.5 -242q0 -85 -37 -157l-528 -525h565v-171h-853z" />
<glyph unicode="3" d="M0 341h171q0 -70 50 -120t120 -50h171q70 0 120.5 50t50.5 120t-50.5 120.5t-120.5 50.5h-171v171h171q70 0 120.5 50t50.5 120t-50.5 120.5t-120.5 50.5h-171q-70 0 -120 -50.5t-50 -120.5h-171q0 142 100 242t241 100h171q142 0 241.5 -100t99.5 -242q0 -154 -145 -256 q145 -102 145 -256q0 -142 -99.5 -241.5t-241.5 -99.5h-171q-142 0 -241.5 100t-99.5 241z" />
<glyph unicode="4" d="M0 341v289l565 565h118v-683h170v-171h-170v-170h170v-171h-512v171h171v170h-512zM171 512h341v394l-341 -341v-53z" />
<glyph unicode="5" d="M0 341h171q0 -70 50 -120t120 -50h171q70 0 120.5 50t50.5 120v171q0 70 -50.5 120.5t-120.5 50.5h-512v512h853v-171h-682v-171h341q140 0 240.5 -100.5t100.5 -240.5v-171q0 -140 -100.5 -240.5t-240.5 -100.5h-171q-140 0 -240.5 100t-100.5 241z" />
<glyph unicode="6" d="M0 341v512q0 140 100.5 241t240.5 101h342v-171h-342q-70 0 -120 -50.5t-50 -120.5h341q140 0 240.5 -100.5t100.5 -240.5v-171q0 -140 -100.5 -240.5t-240.5 -100.5h-171q-140 0 -240.5 100.5t-100.5 240.5zM171 341q0 -70 50 -120t120 -50h171q70 0 120.5 50t50.5 120 v171q0 70 -50.5 120.5t-120.5 50.5h-341v-342z" />
<glyph unicode="7" d="M0 1024v171h853v-459l-341 -342v-394h-171v459l342 341v224h-683z" />
<glyph unicode="8" d="M0 341q0 154 145 256q-145 102 -145 256q0 142 100 242t241 100h171q142 0 241.5 -100t99.5 -242q0 -154 -145 -256q145 -102 145 -256q0 -142 -99.5 -241.5t-241.5 -99.5h-171q-142 0 -241.5 100t-99.5 241zM171 341q0 -70 50 -120t120 -50h171q72 0 121.5 50t49.5 120 t-50.5 120.5t-120.5 50.5h-171q-70 0 -120 -50.5t-50 -120.5zM171 853q0 -70 50 -120t120 -50h171q70 0 120.5 50t50.5 120t-50.5 120.5t-120.5 50.5h-171q-72 0 -121 -50.5t-49 -120.5z" />
<glyph unicode="9" d="M0 683v170q0 140 100.5 241t240.5 101h171q140 0 240.5 -101t100.5 -241v-512q0 -140 -100.5 -240.5t-240.5 -100.5h-341v171h341q70 0 120.5 50t50.5 120h-342q-140 0 -240.5 101t-100.5 241zM171 683q0 -70 50 -120.5t120 -50.5h342v341q0 70 -50.5 120.5t-120.5 50.5 h-171q-70 0 -120 -50.5t-50 -120.5v-170z" />
<glyph unicode=":" d="M256 213q0 70 50.5 120.5t120.5 50.5t120 -50.5t50 -120.5t-50 -120t-120 -50t-120.5 50t-50.5 120zM256 725q0 70 50.5 120.5t120.5 50.5t120 -50.5t50 -120.5t-50 -120t-120 -50t-120.5 50t-50.5 120z" />
<glyph unicode=";" d="M213 -222l214 213v52q-70 0 -120.5 50t-50.5 120t50.5 120.5t120.5 50.5t120 -50.5t50 -120.5v-286l-266 -267zM256 725q0 70 50.5 120.5t120.5 50.5t120 -50.5t50 -120.5t-50 -120t-120 -50t-120.5 50t-50.5 120z" />
<glyph unicode="&#x3c;" d="M135 597l633 630l118 -118l-509 -512l519 -522l-118 -116z" />
<glyph unicode="=" d="M0 341v171h853v-171h-853zM0 683v170h853v-170h-853z" />
<glyph unicode="&#x3e;" d="M128 1120l118 117l643 -640l-633 -628l-118 116l509 512z" />
<glyph unicode="?" d="M0 853q0 140 100.5 241t240.5 101h171q140 0 240.5 -100t100.5 -242q0 -85 -37 -157l-357 -355h-118v118l330 331q12 26 12 63q0 70 -50.5 120.5t-120.5 50.5h-171q-70 0 -120 -50.5t-50 -120.5h-171zM341 85q0 36 25 61t61 25t60.5 -25t24.5 -61t-24.5 -60.5 t-60.5 -24.5t-61 24.5t-25 60.5z" />
<glyph unicode="@" d="M0 341v512q0 140 100.5 241t240.5 101h171q140 0 240.5 -101t100.5 -241v-341q0 -72 -50 -121.5t-120 -49.5h-171q-70 0 -120.5 52t-50.5 119v171q0 70 50.5 120t120.5 50h171q0 70 -50.5 120.5t-120.5 50.5h-171q-70 0 -120 -50.5t-50 -120.5v-512q0 -70 50 -120 t120 -50h512v-171h-512q-140 0 -240.5 100.5t-100.5 240.5zM512 555q0 -43 43 -43h85q43 0 43 43v85q0 43 -43 43h-85q-43 0 -43 -43v-85z" />
<glyph unicode="A" d="M0 0v555l321 640h213l319 -640v-555h-170v341h-512v-341h-171zM171 512h512l-256 512z" />
<glyph unicode="B" d="M0 0v1195h512q142 0 241.5 -100t99.5 -242q0 -154 -145 -256q145 -102 145 -256q0 -142 -99.5 -241.5t-241.5 -99.5h-512zM171 171h341q70 0 120.5 50t50.5 120t-50.5 120.5t-120.5 50.5h-341v-341zM171 683h341q70 0 120.5 50t50.5 120t-50.5 120.5t-120.5 50.5h-341 v-341z" />
<glyph unicode="C" d="M0 341v512q0 140 100.5 241t240.5 101h171q140 0 240.5 -101t100.5 -241h-170q0 70 -50.5 120.5t-120.5 50.5h-171q-70 0 -120 -50.5t-50 -120.5v-512q0 -70 50 -120t120 -50h171q70 0 120.5 50t50.5 120h170q0 -140 -100.5 -240.5t-240.5 -100.5h-171 q-140 0 -240.5 100.5t-100.5 240.5z" />
<glyph unicode="D" d="M0 0v1195h512q140 0 240.5 -101t100.5 -241v-512q0 -140 -100.5 -240.5t-240.5 -100.5h-512zM171 171h341q70 0 120.5 50t50.5 120v512q0 70 -50.5 120.5t-120.5 50.5h-341v-853z" />
<glyph unicode="E" d="M0 0v1195h853v-171h-682v-341h512v-171h-512v-341h682v-171h-853z" />
<glyph unicode="F" d="M0 0v1195h853v-171h-682v-341h512v-171h-512v-512h-171z" />
<glyph unicode="G" d="M0 341v512q0 140 100.5 241t240.5 101h171q140 0 240.5 -101t100.5 -241h-170q0 70 -50.5 120.5t-120.5 50.5h-171q-70 0 -120 -50.5t-50 -120.5v-512q0 -70 50 -120t120 -50h171q70 0 120.5 50t50.5 120v171h-171v171h341v-342q0 -140 -100.5 -240.5t-240.5 -100.5h-171 q-140 0 -240.5 100.5t-100.5 240.5z" />
<glyph unicode="H" d="M0 0v1195h171v-512h512v512h170v-1195h-170v512h-512v-512h-171z" />
<glyph unicode="I" d="M0 0v171h341v853h-341v171h853v-171h-341v-853h341v-171h-853z" />
<glyph unicode="J" d="M0 341v171h171v-171q0 -70 50 -120t120 -50h171q70 0 120.5 50t50.5 120v854h170v-854q0 -142 -100.5 -241.5t-240.5 -99.5h-171q-140 0 -240.5 100.5t-100.5 240.5z" />
<glyph unicode="K" d="M0 0v1195h171v-512l512 512h170v-63l-534 -535l534 -532v-65h-170l-512 512v-512h-171z" />
<glyph unicode="L" d="M0 0v1195h171v-1024h682v-171h-853z" />
<glyph unicode="M" d="M0 0v1195h128l299 -299l298 299h128v-1195h-170v896l-171 -171v-213h-171v213l-170 171v-896h-171z" />
<glyph unicode="N" d="M0 0v1195h118l565 -565v565h170v-1195h-170v394l-512 512v-906h-171z" />
<glyph unicode="O" d="M0 341v512q0 140 100.5 241t240.5 101h171q140 0 240.5 -101t100.5 -241v-512q0 -140 -100.5 -240.5t-240.5 -100.5h-171q-140 0 -240.5 100.5t-100.5 240.5zM171 341q0 -70 50 -120t120 -50h171q70 0 120.5 50t50.5 120v512q0 70 -50.5 120.5t-120.5 50.5h-171 q-70 0 -120 -50.5t-50 -120.5v-512z" />
<glyph unicode="P" d="M0 0v1195h512q142 0 241.5 -100t99.5 -242q0 -140 -100.5 -240.5t-240.5 -100.5h-341v-512h-171zM171 683h341q70 0 120.5 50t50.5 120t-50.5 120.5t-120.5 50.5h-341v-341z" />
<glyph unicode="Q" d="M0 341v512q0 140 100.5 241t240.5 101h171q140 0 240.5 -101t100.5 -241v-512q0 -164 -126 -264l145 -142l-121 -123l-191 191q-31 -3 -48 -3h-171q-140 0 -240.5 100.5t-100.5 240.5zM171 341q0 -72 50 -122q48 -48 115 -48h5l50 1l-67 67l121 119l161 -160 q77 51 77 143v512q0 70 -50.5 120.5t-120.5 50.5h-171q-70 0 -120 -50.5t-50 -120.5v-512z" />
<glyph unicode="R" d="M0 0v1195h512q142 0 241.5 -100t99.5 -242q0 -154 -145 -256q145 -102 145 -256v-341h-170v341q0 70 -50.5 120.5t-120.5 50.5h-341v-512h-171zM171 683h341q70 0 120.5 50t50.5 120t-50.5 120.5t-120.5 50.5h-341v-341z" />
<glyph unicode="S" d="M0 341h171q0 -70 50 -120t120 -50h171q70 0 120.5 50t50.5 120t-50.5 120.5t-120.5 50.5h-171q-140 0 -240.5 100.5t-100.5 240.5t100.5 241t240.5 101h171q140 0 240.5 -101t100.5 -241h-170q0 70 -50.5 120.5t-120.5 50.5h-171q-70 0 -120 -50.5t-50 -120.5t50 -120 t120 -50h171q140 0 240.5 -101t100.5 -241t-100.5 -240.5t-240.5 -100.5h-171q-140 0 -240.5 100t-100.5 241z" />
<glyph unicode="T" d="M0 1024v171h853v-171h-341v-1024h-171v1024h-341z" />
<glyph unicode="U" d="M0 341v854h171v-854q0 -70 50 -120t120 -50h171q70 0 120.5 50t50.5 120v854h170v-854q0 -142 -100.5 -241.5t-240.5 -99.5h-171q-140 0 -240.5 100t-100.5 241z" />
<glyph unicode="V" d="M0 853v342h171v-302l256 -509l256 512v299h170v-342l-426 -853z" />
<glyph unicode="W" d="M0 0v1195h171v-896l170 170v214h171v-214l171 -170v896h170v-1195h-128l-298 299l-299 -299h-128z" />
<glyph unicode="X" d="M0 0v288l309 309l-309 309v289h171v-224l256 -256l256 256v224h170v-289l-309 -309l309 -309v-288h-170v224l-256 256l-256 -256v-224h-171z" />
<glyph unicode="Y" d="M0 736v459h171v-395l256 -256l256 256v395h170v-459l-341 -342v-394h-171v394z" />
<glyph unicode="Z" d="M0 0v305l683 681v38h-683v171h853v-277l-682 -682v-65h682v-171h-853z" />
<glyph unicode="[" d="M341 -169v1534h342v-170h-171v-1195h171v-169h-342z" />
<glyph unicode="\" d="M60 1289l152 78l812 -1614l-140 -77z" />
<glyph unicode="]" d="M171 0h170v1195h-170v170h341v-1534h-341v169z" />
<glyph unicode="^" d="M3 778l453 453l452 -454l-120 -122l-332 333l-331 -331z" />
<glyph unicode="_" d="M0 -169h1024v-171h-1024v171z" />
<glyph unicode="`" d="M138 1248l118 117l276 -278l-116 -116z" />
<glyph unicode="a" d="M0 341v171q0 142 100 241.5t241 99.5h512v-853h-170v236l-106 -108q-128 -128 -236 -128q-142 0 -241.5 100t-99.5 241zM171 341q0 -70 50 -120t120 -50q85 0 171 85l171 171v256h-342q-70 0 -120 -50.5t-50 -120.5v-171z" />
<glyph unicode="b" d="M0 0v1195h171v-342h341q140 0 240.5 -100.5t100.5 -240.5v-171q0 -140 -100.5 -240.5t-240.5 -100.5h-512zM171 171h341q70 0 120.5 50t50.5 120v171q0 70 -50.5 120.5t-120.5 50.5h-341v-512z" />
<glyph unicode="c" d="M0 341v171q0 140 100.5 240.5t240.5 100.5h171q140 0 240.5 -100.5t100.5 -240.5h-170q0 70 -50.5 120.5t-120.5 50.5h-171q-70 0 -120 -50.5t-50 -120.5v-171q0 -70 50 -120t120 -50h512v-171h-512q-140 0 -240.5 100.5t-100.5 240.5z" />
<glyph unicode="d" d="M0 341v171q0 140 100.5 240.5t240.5 100.5h342v342h170v-1195h-512q-140 0 -240.5 100.5t-100.5 240.5zM171 341q0 -70 50 -120t120 -50h342v512h-342q-70 0 -120 -50.5t-50 -120.5v-171z" />
<glyph unicode="e" d="M0 341v171q0 140 100.5 240.5t240.5 100.5h171q140 0 240.5 -100.5t100.5 -240.5v-171h-682q0 -70 50 -120t120 -50h512v-171h-512q-140 0 -240.5 100.5t-100.5 240.5zM171 512h512q0 70 -50.5 120.5t-120.5 50.5h-171q-70 0 -120 -50.5t-50 -120.5z" />
<glyph unicode="f" d="M171 683v170h170q0 140 101 241t241 101h170v-171h-170q-70 0 -120.5 -50.5t-50.5 -120.5h171v-170h-171v-683h-171v683h-170z" />
<glyph unicode="g" d="M0 341v171q0 140 100.5 240.5t240.5 100.5h512v-853q0 -140 -100.5 -240t-240.5 -100h-341v171h341q70 0 120.5 50.5t50.5 118.5h-342q-140 0 -240.5 100.5t-100.5 240.5zM171 341q0 -70 50 -120t120 -50h342v512h-342q-70 0 -120 -50.5t-50 -120.5v-171z" />
<glyph unicode="h" d="M0 0v1195h171v-342h341q140 0 240.5 -100.5t100.5 -240.5v-512h-170v512q0 70 -50.5 120.5t-120.5 50.5h-341v-683h-171z" />
<glyph unicode="i" d="M171 0v171h170v512h-170v170h341v-682h171v-171h-512zM341 1109q0 36 25 61t61 25t60.5 -25t24.5 -61t-24.5 -60.5t-60.5 -24.5t-61 24.5t-25 60.5z" />
<glyph unicode="j" d="M0 -169h171q70 0 120 50.5t50 118.5v683h-170v170h341v-853q0 -140 -100.5 -240t-240.5 -100h-171v171zM341 1109q0 36 25 61t61 25t60.5 -25t24.5 -61t-24.5 -60.5t-60.5 -24.5t-61 24.5t-25 60.5z" />
<glyph unicode="k" d="M0 0v1195h171v-736l394 394h235l-341 -341l394 -394v-118h-117l-395 394l-170 -170v-224h-171z" />
<glyph unicode="l" d="M171 0v171h170v853h-170v171h341v-1024h171v-171h-512z" />
<glyph unicode="m" d="M0 0v853h512q140 0 240.5 -100.5t100.5 -240.5v-512h-170v512q0 70 -50.5 120.5t-120.5 50.5v-683h-171v683h-170v-683h-171z" />
<glyph unicode="n" d="M0 0v853h171v-233l107 105q128 128 234 128q142 0 241.5 -99.5t99.5 -241.5v-512h-170v512q0 70 -50.5 120.5t-120.5 50.5q-85 0 -171 -86l-170 -170v-427h-171z" />
<glyph unicode="o" d="M0 341v171q0 140 100.5 240.5t240.5 100.5h171q140 0 240.5 -100.5t100.5 -240.5v-171q0 -140 -100.5 -240.5t-240.5 -100.5h-171q-140 0 -240.5 100.5t-100.5 240.5zM171 341q0 -70 50 -120t120 -50h171q70 0 120.5 50t50.5 120v171q0 70 -50.5 120.5t-120.5 50.5h-171 q-70 0 -120 -50.5t-50 -120.5v-171z" />
<glyph unicode="p" d="M0 -340v1193h512q140 0 240.5 -100.5t100.5 -240.5v-171q0 -140 -100.5 -240.5t-240.5 -100.5h-341v-340h-171zM171 171h341q70 0 120.5 50t50.5 120v171q0 70 -50.5 120.5t-120.5 50.5h-341v-512z" />
<glyph unicode="q" d="M0 341v171q0 140 100.5 240.5t240.5 100.5h512v-1193h-170v340h-342q-140 0 -240.5 100.5t-100.5 240.5zM171 341q0 -70 50 -120t120 -50h342v512h-342q-70 0 -120 -50.5t-50 -120.5v-171z" />
<glyph unicode="r" d="M0 0v853h171v-233l107 105q128 128 234 128q142 0 241.5 -99.5t99.5 -241.5h-170q0 70 -50.5 120.5t-120.5 50.5q-85 0 -171 -86l-170 -170v-427h-171z" />
<glyph unicode="s" d="M0 0v171h449q87 0 150 24.5t63 60.5t-63 60.5t-150 24.5h-43q-160 0 -272 75.5t-112 180.5q0 106 112 181t272 75h447v-170h-447q-89 0 -151 -25t-62 -61t62 -60.5t151 -24.5h43q159 0 271.5 -75t112.5 -181t-112.5 -181t-271.5 -75h-449z" />
<glyph unicode="t" d="M171 683v170h170v342h171v-342h171v-170h-171v-342q0 -70 50.5 -120t120.5 -50h170v-171h-170q-140 0 -241 100.5t-101 240.5v342h-170z" />
<glyph unicode="u" d="M0 341v512h171v-512q0 -70 50 -120t120 -50q85 0 171 85l171 171v426h170v-853h-170v236l-106 -108q-128 -128 -236 -128q-142 0 -241.5 100t-99.5 241z" />
<glyph unicode="v" d="M0 683v170h171v-128l256 -512l256 512v128h170v-170l-341 -683h-171z" />
<glyph unicode="w" d="M0 384v469h171v-469q0 -89 24.5 -152t60.5 -63t60.5 63t24.5 152v469h171v-469q0 -89 24.5 -151t60.5 -62t61 62t25 151v469h170v-469q0 -159 -75 -271.5t-181 -112.5q-90 0 -160 171h-21q-70 -171 -160 -171q-106 0 -181 112.5t-75 271.5z" />
<glyph unicode="x" d="M0 0v118l309 309l-309 309v117h171v-53l256 -256l256 256v53h170v-117l-309 -309l309 -309v-118h-170v53l-256 256l-256 -256v-53h-171z" />
<glyph unicode="y" d="M0 341v512h171v-512q0 -70 50 -120t120 -50h342v682h170v-853q0 -140 -100.5 -240t-240.5 -100h-341v171h341q70 0 120.5 50.5t50.5 118.5h-342q-140 0 -240.5 100.5t-100.5 240.5z" />
<glyph unicode="z" d="M0 0v118l565 565h-565v170h853v-117l-565 -565h565v-171h-853z" />
<glyph unicode="{" d="M171 512v171q70 0 120 50t50 120v384q0 123 100 211t242 88v-171q-70 0 -120.5 -50t-50.5 -120v-427q0 -90 -171 -160v-21q171 -70 171 -160v-427q0 -68 50.5 -118.5t120.5 -50.5v-171q-142 0 -242 88t-100 211v382q0 70 -50 120.5t-120 50.5z" />
<glyph unicode="|" d="M341 -169v1534h171v-1534h-171z" />
<glyph unicode="}" d="M171 -169q70 0 120 50.5t50 118.5v427q0 90 171 160v21q-171 70 -171 160v427q0 70 -50 120t-120 50v171q142 0 241.5 -88t99.5 -211v-384q0 -70 50.5 -120t120.5 -50v-171q-70 0 -120.5 -50.5t-50.5 -120.5v-382q0 -123 -100 -211t-241 -88v171z" />
<glyph unicode="~" d="M0 512v85q0 106 75 181t181 75q108 0 171 -63q108 -108 170 -107q36 0 61 24.5t25 60.5v85h170v-85q0 -106 -75 -181t-181 -75t-170 65q-106 106 -171 106q-36 0 -60.5 -25t-24.5 -61v-85h-171z" />
<glyph unicode="&#xa0;" />
<glyph unicode="&#xa1;" d="M512 0v853h171v-853h-171zM512 1109q0 36 24.5 61t60.5 25t61 -25t25 -61t-25 -60.5t-61 -24.5t-60.5 24.5t-24.5 60.5z" />
<glyph unicode="&#xa2;" d="M0 341v171q0 140 100.5 240.5t240.5 100.5v171h171v-171q140 0 240.5 -100.5t100.5 -240.5h-170q0 70 -50.5 120.5t-120.5 50.5v-512h341v-171h-341v-169h-171v169q-140 0 -240.5 100.5t-100.5 240.5zM171 341q0 -70 50 -120t120 -50v512q-70 0 -120 -50.5t-50 -120.5 v-171z" />
<glyph unicode="&#xa3;" d="M0 0v1024q0 140 100.5 240.5t240.5 100.5t241 -100.5t101 -240.5h-171q0 70 -50.5 120.5t-120.5 50.5t-120 -50.5t-50 -120.5v-171h341v-170h-341v-512h341q61 0 116 54.5t55 115.5h170q0 -133 -104 -237t-237 -104h-512z" />
<glyph unicode="&#xa4;" d="M0 121l196 195q-26 51 -25 111q0 60 25 111l-196 194l121 121l195 -196q51 26 111 26t111 -26l194 196l121 -121l-196 -194q26 -51 26 -111t-26 -111l196 -195l-121 -121l-194 196q-51 -26 -111 -25q-60 0 -111 25l-195 -196zM341 427q0 -36 25 -61t61 -25t60.5 25 t24.5 61t-24.5 60.5t-60.5 24.5t-61 -24.5t-25 -60.5z" />
<glyph unicode="&#xa5;" d="M0 1109l118 118l341 -341l341 341l116 -118l-256 -256h226v-170h-342v-171h342v-171h-342v-341h-170v341h-342v171h342v171h-342v170h224z" />
<glyph unicode="&#xa6;" d="M341 -169v681h171v-681h-171zM341 683v682h171v-682h-171z" />
<glyph unicode="&#xa7;" d="M0 171v170h171v-170q0 -70 50 -120.5t120 -50.5h193q34 0 60 24.5t26 60.5q0 22 -11 41l-609 610v288h171v-224l597 -595q38 -38 38 -92q0 -96 -96.5 -189t-197.5 -93h-171q-140 0 -240.5 100t-100.5 240zM48 1253q0 96 96.5 189.5t196.5 93.5h171q142 0 241.5 -100 t99.5 -241q2 -174 0 -171h-170v171q0 70 -50.5 120t-120.5 50h-191q-36 0 -60.5 -24.5t-24.5 -60.5q0 -24 10 -41l607 -609v-289h-170v224l-598 596q-38 38 -37 92z" />
<glyph unicode="&#xa8;" d="M171 1109q0 36 24.5 61t60.5 25t60.5 -25t24.5 -61t-24.5 -60.5t-60.5 -24.5t-60.5 24.5t-24.5 60.5zM512 1109q0 36 24.5 61t60.5 25t61 -25t25 -61t-25 -60.5t-61 -24.5t-60.5 24.5t-24.5 60.5z" />
<glyph unicode="&#xa9;" d="M0 58v198q113 -85 256 -85q177 0 302 124.5t125 301.5t-125 302t-302 125q-140 0 -256 -85v198q121 58 256 58q247 0 422 -175.5t175 -422.5t-175 -422t-422 -175q-135 0 -256 58zM0 597q0 106 75 181t181 75h256v-170h-256q-36 0 -60.5 -25t-24.5 -61t24.5 -60.5 t60.5 -24.5h256v-171h-256q-106 0 -181 75.5t-75 180.5z" />
<glyph unicode="&#xaa;" d="M171 512v171h682v-171h-682zM171 1195q0 140 100.5 240.5t240.5 100.5h341v-683h-341q-140 0 -240.5 101t-100.5 241zM341 1195q0 -70 50.5 -120.5t120.5 -50.5h171v341h-171q-70 0 -120.5 -50t-50.5 -120z" />
<glyph unicode="&#xab;" d="M0 341l167 393l157 -67l-143 -326l143 -326l-157 -64zM512 341l167 393l157 -67l-143 -326l143 -326l-157 -64z" />
<glyph unicode="&#xac;" d="M0 512v171h853v-512h-170v341h-683z" />
<glyph unicode="&#xad;" d="M171 512v171h512v-171h-512z" />
<glyph unicode="&#xae;" d="M0 171v682h256q106 0 181 -75t75 -181q0 -126 -102 -203l53 -53h27q80 0 136.5 56.5t56.5 136.5v63q0 177 -125 302t-302 125q-140 0 -256 -85v198q121 58 256 58q247 0 422 -175t175 -423v-128q0 -125 -87 -211.5t-211 -86.5h-162l-169 170h-53v-170h-171zM171 512h85 q36 0 60.5 24.5t24.5 60.5t-24.5 61t-60.5 25h-85v-171z" />
<glyph unicode="&#xaf;" d="M171 1024v171h512v-171h-512z" />
<glyph unicode="&#xb0;" d="M171 1024q0 142 100.5 241.5t240.5 99.5t240.5 -100.5t100.5 -240.5t-99.5 -240.5t-241.5 -100.5q-140 0 -240.5 100.5t-100.5 240.5zM341 1024q0 -70 50.5 -120.5t120.5 -50.5t120.5 50.5t50.5 120.5t-50.5 120.5t-120.5 50.5t-120.5 -50.5t-50.5 -120.5z" />
<glyph unicode="&#xb1;" d="M0 0v171h341v341h-341v171h341v341h171v-341h341v-171h-341v-341h341v-171h-853z" />
<glyph unicode="&#xb2;" d="M256 939v58l335 336q7 15 6 32q0 36 -24.5 61t-60.5 25h-85q-36 0 -61 -25t-25 -61h-85q0 70 50.5 120.5t120.5 50.5h85q70 0 120.5 -50.5t50.5 -120.5q0 -42 -19 -78l-265 -263h284v-85h-427z" />
<glyph unicode="&#xb3;" d="M256 1109h85q0 -36 25 -60.5t61 -24.5h85q36 0 60.5 24.5t24.5 60.5t-24.5 61t-60.5 25h-85v85h85q36 0 60.5 24.5t24.5 60.5t-24.5 61t-60.5 25h-85q-36 0 -61 -25t-25 -61h-85q0 70 50.5 120.5t120.5 50.5h85q70 0 120.5 -50.5t50.5 -120.5q0 -77 -72 -128 q72 -51 72 -128q0 -70 -50.5 -120t-120.5 -50h-85q-70 0 -120.5 50t-50.5 120z" />
<glyph unicode="&#xb4;" d="M328 1120l278 278l118 -118l-279 -276z" />
<glyph unicode="&#xb6;" d="M0 939q0 177 124.5 301.5t302.5 124.5h426v-1365h-170v512h-171v-512h-171v521q-147 29 -244 146.5t-97 271.5zM171 939q0 -82 47.5 -148.5t122.5 -92.5v481q-75 -27 -122.5 -92.5t-47.5 -147.5zM512 683h171v512h-171v-512z" />
<glyph unicode="&#xb7;" d="M341 555q0 70 50.5 120t120.5 50t120.5 -50t50.5 -120t-50.5 -120.5t-120.5 -50.5t-120.5 50.5t-50.5 120.5z" />
<glyph unicode="&#xb8;" d="M148 -222l193 191v31h-170v171h341v-265l-246 -246z" />
<glyph unicode="&#xb9;" d="M256 939v85h171v341h-128v86h42q36 0 61 24.5t25 60.5h85v-512h171v-85h-427z" />
<glyph unicode="&#xba;" d="M171 512v171h682v-171h-682zM171 1195q0 142 100.5 241.5t240.5 99.5t240.5 -100.5t100.5 -240.5t-99.5 -241t-241.5 -101q-140 0 -240.5 100t-100.5 242zM341 1195q0 -70 50.5 -120.5t120.5 -50.5t120.5 50.5t50.5 120.5t-50.5 120t-120.5 50t-120.5 -50t-50.5 -120z " />
<glyph unicode="&#xbb;" d="M17 15l143 326l-143 326l157 67l167 -393l-167 -390zM529 15l143 326l-143 326l157 67l167 -393l-167 -390z" />
<glyph unicode="&#xbc;" d="M0 210l964 964l60 -60l-964 -964zM85 939v85h171v341h-128v86h43q36 0 60.5 24.5t24.5 60.5h85v-512h171v-85h-427zM512 171v143l283 283h58v-341h86v-85h-86v-86h86v-85h-256v85h85v86h-256zM597 256h171v198l-171 -171v-27z" />
<glyph unicode="&#xbd;" d="M0 210l964 964l60 -60l-964 -964zM85 939v85h171v341h-128v86h43q36 0 60.5 24.5t24.5 60.5h85v-512h171v-85h-427zM512 0v58l335 336q7 15 6 33q0 36 -24.5 60.5t-60.5 24.5h-85q-36 0 -61 -24.5t-25 -60.5h-85q0 70 50.5 120t120.5 50h85q70 0 120.5 -50t50.5 -120 q0 -43 -19 -79l-265 -263h284v-85h-427z" />
<glyph unicode="&#xbe;" d="M0 210l964 964l60 -60l-964 -964zM85 1109h86q0 -36 24.5 -60.5t60.5 -24.5h85q36 0 61 24.5t25 60.5t-25 61t-61 25h-85v85h85q36 0 61 24.5t25 60.5t-25 61t-61 25h-85q-36 0 -60.5 -25t-24.5 -61h-86q0 70 50.5 120.5t120.5 50.5h85q70 0 120.5 -50.5t50.5 -120.5 q0 -77 -72 -128q72 -51 72 -128q0 -70 -50.5 -120t-120.5 -50h-85q-70 0 -120.5 50t-50.5 120zM512 171v143l283 283h58v-341h86v-85h-86v-86h86v-85h-256v85h85v86h-256zM597 256h171v198l-171 -171v-27z" />
<glyph unicode="&#xbf;" d="M0 341q0 85 38 157l356 355h118v-117l-329 -332q-12 -26 -12 -63q0 -70 50 -120t120 -50h171q70 0 120.5 50t50.5 120h170q0 -140 -100.5 -240.5t-240.5 -100.5h-171q-140 0 -240.5 100t-100.5 241zM341 1109q0 36 25 61t61 25t60.5 -25t24.5 -61t-24.5 -60.5 t-60.5 -24.5t-61 24.5t-25 60.5z" />
<glyph unicode="&#xc0;" d="M0 0v555l321 640h43l-226 223l118 118l276 -276l-63 -65h65l319 -640v-555h-170v341h-512v-341h-171zM171 512h512l-256 512z" />
<glyph unicode="&#xc1;" d="M0 0v555l321 640h63l-63 65l276 276l118 -118l-223 -223h42l319 -640v-555h-170v341h-512v-341h-171zM171 512h512l-256 512z" />
<glyph unicode="&#xc2;" d="M0 0v555l321 640h213l319 -640v-555h-170v341h-512v-341h-171zM148 1260l279 276l278 -276l-118 -118l-160 160l-161 -160zM171 512h512l-256 512z" />
<glyph unicode="&#xc3;" d="M0 0v555l321 640h213l319 -640v-555h-170v341h-512v-341h-171zM0 1195v85q0 106 75 181t181 75q108 0 171 -63q108 -108 170 -108q36 0 61 25t25 61v85h170v-85q0 -106 -75 -181t-181 -75t-170 65q-106 106 -171 105q-36 0 -60.5 -24.5t-24.5 -60.5v-85h-171zM171 512 h512l-256 512z" />
<glyph unicode="&#xc4;" d="M0 0v555l321 640h213l319 -640v-555h-170v341h-512v-341h-171zM171 512h512l-256 512zM171 1451q0 36 24.5 60.5t60.5 24.5t60.5 -24.5t24.5 -60.5t-24.5 -61t-60.5 -25t-60.5 25t-24.5 61zM512 1451q0 36 24.5 60.5t60.5 24.5t61 -24.5t25 -60.5t-25 -61t-61 -25 t-60.5 25t-24.5 61z" />
<glyph unicode="&#xc5;" d="M0 0v555l265 527q-94 77 -94 198q0 106 75 181t181 75t181 -75t75 -181q0 -121 -94 -198l264 -527v-555h-170v341h-512v-341h-171zM171 512h512l-256 512zM341 1280q0 -36 25 -60.5t61 -24.5t60.5 24.5t24.5 60.5t-24.5 60.5t-60.5 24.5t-61 -24.5t-25 -60.5z" />
<glyph unicode="&#xc6;" d="M0 0v853q0 142 100.5 242t240.5 100h512v-171h-341v-341h171v-171h-171v-341h341v-171h-512v512h-170v-512h-171zM171 683h170v341q-70 0 -120 -50.5t-50 -120.5v-170z" />
<glyph unicode="&#xc7;" d="M0 341v512q0 140 100.5 241t240.5 101h171q140 0 240.5 -101t100.5 -241h-170q0 70 -50.5 120.5t-120.5 50.5h-171q-70 0 -120 -50.5t-50 -120.5v-512q0 -70 50 -120t120 -50h171q70 0 120.5 50t50.5 120h170q0 -142 -99.5 -241.5t-241.5 -99.5h-32l64 -61l-278 -279 l-118 118l226 222h-33q-142 0 -241.5 100.5t-99.5 240.5zM374 0h106h-106z" />
<glyph unicode="&#xc8;" d="M0 0v1195h364l-226 223l118 118l278 -276l-65 -65h384v-171h-682v-341h512v-171h-512v-341h682v-171h-853z" />
<glyph unicode="&#xc9;" d="M0 0v1195h374l-53 53l276 278l118 -118l-213 -213h351v-171h-682v-341h512v-171h-512v-341h682v-171h-853z" />
<glyph unicode="&#xca;" d="M0 0v1195h213l-65 63l279 278l276 -278l-63 -63h213v-171h-682v-341h512v-171h-512v-341h682v-171h-853zM319 1195h215l-107 105z" />
<glyph unicode="&#xcb;" d="M0 0v1195h853v-171h-682v-341h512v-171h-512v-341h682v-171h-853zM171 1451q0 36 24.5 60.5t60.5 24.5t60.5 -24.5t24.5 -60.5t-24.5 -61t-60.5 -25t-60.5 25t-24.5 61zM512 1451q0 36 24.5 60.5t60.5 24.5t61 -24.5t25 -60.5t-25 -61t-61 -25t-60.5 25t-24.5 61z" />
<glyph unicode="&#xcc;" d="M0 0v171h341v853h-341v171h364l-226 223l118 118l278 -276l-65 -65h384v-171h-341v-853h341v-171h-853z" />
<glyph unicode="&#xcd;" d="M0 0v171h341v853h-341v171h384l-63 65l276 276l118 -118l-223 -223h361v-171h-341v-853h341v-171h-853z" />
<glyph unicode="&#xce;" d="M0 0v171h341v853h-341v171h212q-15 17 -64 63l279 278l276 -278l-63 -63h213v-171h-341v-853h341v-171h-853zM319 1195h213q-27 29 -105 105z" />
<glyph unicode="&#xcf;" d="M0 0v171h341v853h-341v171h853v-171h-341v-853h341v-171h-853zM171 1451q0 36 24.5 60.5t60.5 24.5t60.5 -24.5t24.5 -60.5t-24.5 -61t-60.5 -25t-60.5 25t-24.5 61zM512 1451q0 36 24.5 60.5t60.5 24.5t61 -24.5t25 -60.5t-25 -61t-61 -25t-60.5 25t-24.5 61z" />
<glyph unicode="&#xd0;" d="M0 512v171h171v512h341q140 0 240.5 -101t100.5 -241v-512q0 -140 -100.5 -240.5t-240.5 -100.5h-341v512h-171zM341 171h171q70 0 120.5 50t50.5 120v512q0 70 -50.5 120.5t-120.5 50.5h-171v-341h171v-171h-171v-341z" />
<glyph unicode="&#xd1;" d="M0 17v1186h118l565 -556v556h170v-1186h-170v394l-512 512v-906h-171zM0 1212v85q0 106 75 181t181 75q108 0 171 -63q108 -108 170 -108q36 0 61 25t25 61v85h170v-85q0 -106 -75 -181t-181 -75t-170 65q-106 106 -171 105q-36 0 -60.5 -24.5t-24.5 -60.5v-85h-171z" />
<glyph unicode="&#xd2;" d="M0 341v512q0 142 100 242t241 100h23l-226 223l118 118l278 -276l-65 -65h43q142 0 241.5 -100t99.5 -242v-512q0 -142 -99.5 -241.5t-241.5 -99.5h-171q-142 0 -241.5 100t-99.5 241zM171 341q0 -70 50 -120t120 -50h171q70 0 120.5 50t50.5 120v512q0 70 -50.5 120.5 t-120.5 50.5h-171q-70 0 -120 -50.5t-50 -120.5v-512z" />
<glyph unicode="&#xd3;" d="M0 341v512q0 142 100 242t241 100h43l-63 65l276 276l118 -118l-223 -223h20q142 0 241.5 -100t99.5 -242v-512q0 -142 -99.5 -241.5t-241.5 -99.5h-171q-142 0 -241.5 100t-99.5 241zM171 341q0 -70 50 -120t120 -50h171q70 0 120.5 50t50.5 120v512q0 70 -50.5 120.5 t-120.5 50.5h-171q-70 0 -120 -50.5t-50 -120.5v-512z" />
<glyph unicode="&#xd4;" d="M0 341v512q0 109 65 198t165 125l-82 82l279 278l276 -278l-82 -82q102 -34 167 -123t65 -200v-512q0 -140 -100.5 -240.5t-240.5 -100.5h-171q-140 0 -240.5 100.5t-100.5 240.5zM171 341q0 -70 50 -120t120 -50h171q70 0 120.5 50t50.5 120v512q0 70 -50.5 120.5 t-120.5 50.5h-171q-70 0 -120 -50.5t-50 -120.5v-512zM319 1195h215l-107 105z" />
<glyph unicode="&#xd5;" d="M0 341v512q0 140 100.5 241t240.5 101h171q140 0 240.5 -101t100.5 -241v-512q0 -140 -100.5 -240.5t-240.5 -100.5h-171q-140 0 -240.5 100.5t-100.5 240.5zM0 1195v85q0 106 75 181t181 75q108 0 171 -63q108 -108 170 -108q36 0 61 25t25 61v85h170v-85 q0 -106 -75 -181t-181 -75t-170 65q-106 106 -171 105q-36 0 -60.5 -24.5t-24.5 -60.5v-85h-171zM171 341q0 -70 50 -120t120 -50h171q70 0 120.5 50t50.5 120v512q0 70 -50.5 120.5t-120.5 50.5h-171q-70 0 -120 -50.5t-50 -120.5v-512z" />
<glyph unicode="&#xd6;" d="M0 341v512q0 140 100.5 241t240.5 101h171q140 0 240.5 -101t100.5 -241v-512q0 -140 -100.5 -240.5t-240.5 -100.5h-171q-140 0 -240.5 100.5t-100.5 240.5zM171 341q0 -70 50 -120t120 -50h171q70 0 120.5 50t50.5 120v512q0 70 -50.5 120.5t-120.5 50.5h-171 q-70 0 -120 -50.5t-50 -120.5v-512zM171 1451q0 36 24.5 60.5t60.5 24.5t60.5 -24.5t24.5 -60.5t-24.5 -61t-60.5 -25t-60.5 25t-24.5 61zM512 1451q0 36 24.5 60.5t60.5 24.5t61 -24.5t25 -60.5t-25 -61t-61 -25t-60.5 25t-24.5 61z" />
<glyph unicode="&#xd7;" d="M5 295l302 302l-302 302l120 120l302 -302l302 302l119 -120l-302 -302l302 -302l-119 -119l-302 302l-302 -302z" />
<glyph unicode="&#xd8;" d="M0 341v512q0 140 100.5 241t240.5 101h171q140 0 240.5 -101t100.5 -241v-512q0 -140 -100.5 -240.5t-240.5 -100.5h-171q-140 0 -240.5 100.5t-100.5 240.5zM171 459l486 486q-51 79 -145 79h-171q-70 0 -120 -50.5t-50 -120.5v-394zM200 249q51 -79 141 -78h171 q70 0 120.5 50t50.5 120v391z" />
<glyph unicode="&#xd9;" d="M0 341v854h171v-854q0 -70 50 -120t120 -50h171q70 0 120.5 50t50.5 120v854h170v-854q0 -142 -100.5 -241.5t-240.5 -99.5h-171q-140 0 -240.5 100t-100.5 241zM138 1418l118 118l276 -278l-116 -116z" />
<glyph unicode="&#xda;" d="M0 341v854h171v-854q0 -70 50 -120t120 -50h171q70 0 120.5 50t50.5 120v854h170v-854q0 -142 -100.5 -241.5t-240.5 -99.5h-171q-140 0 -240.5 100t-100.5 241zM319 1258l278 278l118 -118l-278 -276z" />
<glyph unicode="&#xdb;" d="M0 341v854h171v-854q0 -70 50 -120t120 -50h171q70 0 120.5 50t50.5 120v854h170v-854q0 -142 -100.5 -241.5t-240.5 -99.5h-171q-140 0 -240.5 100t-100.5 241zM148 1258l279 278l276 -278l-116 -116l-160 158l-161 -158z" />
<glyph unicode="&#xdc;" d="M0 341v854h171v-854q0 -70 50 -120t120 -50h171q70 0 120.5 50t50.5 120v854h170v-854q0 -142 -100.5 -241.5t-240.5 -99.5h-171q-140 0 -240.5 100t-100.5 241zM171 1451q0 36 24.5 60.5t60.5 24.5t60.5 -24.5t24.5 -60.5t-24.5 -61t-60.5 -25t-60.5 25t-24.5 61z M512 1451q0 36 24.5 60.5t60.5 24.5t61 -24.5t25 -60.5t-25 -61t-61 -25t-60.5 25t-24.5 61z" />
<glyph unicode="&#xdd;" d="M0 736v459h171v-395l256 -256l256 256v395h170v-459l-341 -342v-394h-171v394zM319 1258l278 278l118 -118l-278 -276z" />
<glyph unicode="&#xde;" d="M0 0v1195h171v-171h341q142 0 241.5 -99.5t99.5 -241.5q0 -140 -100.5 -241t-240.5 -101h-341v-341h-171zM171 512h341q70 0 120.5 50.5t50.5 120.5t-50.5 120t-120.5 50h-341v-341z" />
<glyph unicode="&#xdf;" d="M0 -169v1033q0 108 70 177l324 324h118q142 0 241.5 -99.5t99.5 -241.5q0 -171 -136 -273q-34 -26 -34 -68q0 -41 30 -65q140 -110 140 -277q0 -142 -100.5 -241.5t-240.5 -99.5h-171v171h171q70 0 120.5 50t50.5 120q0 101 -85.5 151.5t-85.5 147.5v85q0 70 44 115 q41 36 82 71q44 44 45 113q0 70 -50.5 120.5t-120.5 50.5q-39 0 -67 -14l-227 -225q-48 -48 -47 -118v-1007h-171z" />
<glyph unicode="&#xe0;" d="M0 341v171q0 142 100 241.5t241 99.5h512v-853h-170v236l-106 -108q-128 -128 -236 -128q-142 0 -241.5 100t-99.5 241zM171 341q0 -70 50 -120t120 -50q85 0 171 85l171 171v256h-342q-70 0 -120 -50.5t-50 -120.5v-171zM309 1280l118 118l276 -278l-116 -116z" />
<glyph unicode="&#xe1;" d="M0 341v171q0 142 100 241.5t241 99.5h512v-853h-170v236l-106 -108q-128 -128 -236 -128q-142 0 -241.5 100t-99.5 241zM171 341q0 -70 50 -120t120 -50q85 0 171 85l171 171v256h-342q-70 0 -120 -50.5t-50 -120.5v-171zM319 1120l278 278l118 -118l-278 -276z" />
<glyph unicode="&#xe2;" d="M0 341v171q0 142 100 241.5t241 99.5h512v-853h-170v236l-106 -108q-128 -128 -236 -128q-142 0 -241.5 100t-99.5 241zM148 1120l279 278l276 -278l-116 -116l-160 158l-161 -158zM171 341q0 -70 50 -120t120 -50q85 0 171 85l171 171v256h-342q-70 0 -120 -50.5 t-50 -120.5v-171z" />
<glyph unicode="&#xe3;" d="M0 341v171q0 142 100 241.5t241 99.5h512v-853h-170v236l-106 -108q-128 -128 -236 -128q-142 0 -241.5 100t-99.5 241zM0 1024v85q0 106 75 181t181 75q108 0 171 -63q108 -108 170 -107q36 0 61 24.5t25 60.5v85h170v-85q0 -106 -75 -181t-181 -75t-170 65 q-106 106 -171 106q-36 0 -60.5 -25t-24.5 -61v-85h-171zM171 341q0 -70 50 -120t120 -50q85 0 171 85l171 171v256h-342q-70 0 -120 -50.5t-50 -120.5v-171z" />
<glyph unicode="&#xe4;" d="M0 341v171q0 142 100 241.5t241 99.5h512v-853h-170v236l-106 -108q-128 -128 -236 -128q-142 0 -241.5 100t-99.5 241zM171 341q0 -70 50 -120t120 -50q85 0 171 85l171 171v256h-342q-70 0 -120 -50.5t-50 -120.5v-171zM171 1109q0 36 24.5 61t60.5 25t60.5 -25 t24.5 -61t-24.5 -60.5t-60.5 -24.5t-60.5 24.5t-24.5 60.5zM512 1109q0 36 24.5 61t60.5 25t61 -25t25 -61t-25 -60.5t-61 -24.5t-60.5 24.5t-24.5 60.5z" />
<glyph unicode="&#xe5;" d="M0 341v171q0 142 100 241.5t241 99.5h86q-106 0 -181 75.5t-75 180.5q0 106 75 181t181 75t181 -75t75 -181t-75.5 -181t-180.5 -75h426v-853h-170v236l-106 -108q-128 -128 -236 -128q-142 0 -241.5 100t-99.5 241zM171 341q0 -70 50 -120t120 -50q85 0 171 85l171 171 v256h-342q-70 0 -120 -50.5t-50 -120.5v-171zM341 1109q0 -36 25 -60.5t61 -24.5t60.5 24.5t24.5 60.5t-24.5 61t-60.5 25t-61 -25t-25 -61z" />
<glyph unicode="&#xe6;" d="M0 341v171q0 140 100.5 240.5t240.5 100.5h171q140 0 240.5 -100.5t100.5 -240.5v-171h-341v-170h341v-171h-512q-140 0 -240.5 100.5t-100.5 240.5zM171 341q0 -70 50 -120t120 -50v512q-70 0 -120 -50.5t-50 -120.5v-171zM512 512h171q0 70 -50.5 120.5t-120.5 50.5 v-171z" />
<glyph unicode="&#xe7;" d="M0 341v171q0 140 100.5 240.5t240.5 100.5h171q140 0 240.5 -100.5t100.5 -240.5h-170q0 70 -50.5 120.5t-120.5 50.5h-171q-70 0 -120 -50.5t-50 -120.5v-171q0 -70 50 -120t120 -50h512v-171h-373l64 -61l-278 -279l-118 118l226 222h-33q-142 0 -241.5 100.5 t-99.5 240.5zM374 0h106h-106z" />
<glyph unicode="&#xe8;" d="M0 341v171q0 140 100.5 240.5t240.5 100.5h171q140 0 240.5 -100.5t100.5 -240.5v-171h-682q0 -70 50 -120t120 -50h512v-171h-512q-140 0 -240.5 100.5t-100.5 240.5zM138 1280l118 118l276 -278l-116 -116zM171 512h512q0 70 -50.5 120.5t-120.5 50.5h-171 q-70 0 -120 -50.5t-50 -120.5z" />
<glyph unicode="&#xe9;" d="M0 341v171q0 140 100.5 240.5t240.5 100.5h171q140 0 240.5 -100.5t100.5 -240.5v-171h-682q0 -70 50 -120t120 -50h512v-171h-512q-140 0 -240.5 100.5t-100.5 240.5zM171 512h512q0 70 -50.5 120.5t-120.5 50.5h-171q-70 0 -120 -50.5t-50 -120.5zM319 1120l278 278 l118 -118l-278 -276z" />
<glyph unicode="&#xea;" d="M0 341v171q0 140 100.5 240.5t240.5 100.5h171q140 0 240.5 -100.5t100.5 -240.5v-171h-682q0 -70 50 -120t120 -50h512v-171h-512q-140 0 -240.5 100.5t-100.5 240.5zM148 1120l279 278l276 -278l-116 -116l-160 158l-161 -158zM171 512h512q0 70 -50.5 120.5 t-120.5 50.5h-171q-70 0 -120 -50.5t-50 -120.5z" />
<glyph unicode="&#xeb;" d="M0 341v171q0 140 100.5 240.5t240.5 100.5h171q140 0 240.5 -100.5t100.5 -240.5v-171h-682q0 -70 50 -120t120 -50h512v-171h-512q-140 0 -240.5 100.5t-100.5 240.5zM171 512h512q0 70 -50.5 120.5t-120.5 50.5h-171q-70 0 -120 -50.5t-50 -120.5zM171 1109 q0 36 24.5 61t60.5 25t60.5 -25t24.5 -61t-24.5 -60.5t-60.5 -24.5t-60.5 24.5t-24.5 60.5zM512 1109q0 36 24.5 61t60.5 25t61 -25t25 -61t-25 -60.5t-61 -24.5t-60.5 24.5t-24.5 60.5z" />
<glyph unicode="&#xec;" d="M138 1280l118 118l276 -278l-116 -116zM171 0v171h170v512h-170v170h341v-682h171v-171h-512z" />
<glyph unicode="&#xed;" d="M171 0v171h170v512h-170v170h341v-682h171v-171h-512zM319 1120l278 278l118 -118l-278 -276z" />
<glyph unicode="&#xee;" d="M148 1120l279 278l276 -278l-116 -116l-160 158l-161 -158zM171 0v171h170v512h-170v170h341v-682h171v-171h-512z" />
<glyph unicode="&#xef;" d="M171 0v171h170v512h-170v170h341v-682h171v-171h-512zM171 1109q0 36 24.5 61t60.5 25t60.5 -25t24.5 -61t-24.5 -60.5t-60.5 -24.5t-60.5 24.5t-24.5 60.5zM512 1109q0 36 24.5 61t60.5 25t61 -25t25 -61t-25 -60.5t-61 -24.5t-60.5 24.5t-24.5 60.5z" />
<glyph unicode="&#xf0;" d="M0 341v171q0 140 100.5 240.5t240.5 100.5h171q26 0 55 -5l-226 225l-105 -105l-122 121l106 106l-106 105l122 122l105 -106l106 106l121 -122l-105 -105l293 -296q97 -97 97 -237v-321q0 -142 -99.5 -241.5t-241.5 -99.5h-171q-140 0 -240.5 100.5t-100.5 240.5z M171 341q0 -70 50 -120t120 -50h171q70 0 120.5 50t50.5 120v171q0 70 -50.5 120.5t-120.5 50.5h-171q-70 0 -120 -50.5t-50 -120.5v-171z" />
<glyph unicode="&#xf1;" d="M0 0v853h171v-233l107 105q128 128 234 128q142 0 241.5 -99.5t99.5 -241.5v-512h-170v512q0 70 -50.5 120.5t-120.5 50.5q-85 0 -171 -86l-170 -170v-427h-171zM0 1024v85q0 106 75 181t181 75q108 0 171 -63q108 -108 170 -107q36 0 61 24.5t25 60.5v85h170v-85 q0 -106 -75 -181t-181 -75t-170 65q-106 106 -171 106q-36 0 -60.5 -25t-24.5 -61v-85h-171z" />
<glyph unicode="&#xf2;" d="M0 341v171q0 140 100.5 240.5t240.5 100.5h171q140 0 240.5 -100.5t100.5 -240.5v-171q0 -140 -100.5 -240.5t-240.5 -100.5h-171q-140 0 -240.5 100.5t-100.5 240.5zM138 1280l118 118l276 -278l-116 -116zM171 341q0 -70 50 -120t120 -50h171q70 0 120.5 50t50.5 120 v171q0 70 -50.5 120.5t-120.5 50.5h-171q-70 0 -120 -50.5t-50 -120.5v-171z" />
<glyph unicode="&#xf3;" d="M0 341v171q0 140 100.5 240.5t240.5 100.5h171q140 0 240.5 -100.5t100.5 -240.5v-171q0 -140 -100.5 -240.5t-240.5 -100.5h-171q-140 0 -240.5 100.5t-100.5 240.5zM171 341q0 -70 50 -120t120 -50h171q70 0 120.5 50t50.5 120v171q0 70 -50.5 120.5t-120.5 50.5h-171 q-70 0 -120 -50.5t-50 -120.5v-171zM319 1120l278 278l118 -118l-278 -276z" />
<glyph unicode="&#xf4;" d="M0 341v171q0 140 100.5 240.5t240.5 100.5h171q140 0 240.5 -100.5t100.5 -240.5v-171q0 -140 -100.5 -240.5t-240.5 -100.5h-171q-140 0 -240.5 100.5t-100.5 240.5zM148 1120l279 278l276 -278l-116 -116l-160 158l-161 -158zM171 341q0 -70 50 -120t120 -50h171 q70 0 120.5 50t50.5 120v171q0 70 -50.5 120.5t-120.5 50.5h-171q-70 0 -120 -50.5t-50 -120.5v-171z" />
<glyph unicode="&#xf5;" d="M0 341v171q0 140 100.5 240.5t240.5 100.5h171q140 0 240.5 -100.5t100.5 -240.5v-171q0 -140 -100.5 -240.5t-240.5 -100.5h-171q-140 0 -240.5 100.5t-100.5 240.5zM0 1024v85q0 106 75 181t181 75q108 0 171 -63q108 -108 170 -107q36 0 61 24.5t25 60.5v85h170v-85 q0 -106 -75 -181t-181 -75t-170 65q-106 106 -171 106q-36 0 -60.5 -25t-24.5 -61v-85h-171zM171 341q0 -70 50 -120t120 -50h171q70 0 120.5 50t50.5 120v171q0 70 -50.5 120.5t-120.5 50.5h-171q-70 0 -120 -50.5t-50 -120.5v-171z" />
<glyph unicode="&#xf6;" d="M0 341v171q0 140 100.5 240.5t240.5 100.5h171q140 0 240.5 -100.5t100.5 -240.5v-171q0 -140 -100.5 -240.5t-240.5 -100.5h-171q-140 0 -240.5 100.5t-100.5 240.5zM171 341q0 -70 50 -120t120 -50h171q70 0 120.5 50t50.5 120v171q0 70 -50.5 120.5t-120.5 50.5h-171 q-70 0 -120 -50.5t-50 -120.5v-171zM171 1109q0 36 24.5 61t60.5 25t60.5 -25t24.5 -61t-24.5 -60.5t-60.5 -24.5t-60.5 24.5t-24.5 60.5zM512 1109q0 36 24.5 61t60.5 25t61 -25t25 -61t-25 -60.5t-61 -24.5t-60.5 24.5t-24.5 60.5z" />
<glyph unicode="&#xf7;" d="M0 512v171h853v-171h-853zM341 256q0 36 25 60.5t61 24.5t60.5 -24.5t24.5 -60.5t-24.5 -60.5t-60.5 -24.5t-61 24.5t-25 60.5zM341 939q0 36 25 60.5t61 24.5t60.5 -24.5t24.5 -60.5t-24.5 -61t-60.5 -25t-61 25t-25 61z" />
<glyph unicode="&#xf8;" d="M0 341v171q0 140 100.5 240.5t240.5 100.5h171q140 0 240.5 -100.5t100.5 -240.5v-171q0 -140 -100.5 -240.5t-240.5 -100.5h-171q-140 0 -240.5 100.5t-100.5 240.5zM171 341q0 -7 8 -41l377 376q-27 7 -44 7h-171q-70 0 -120 -50.5t-50 -120.5v-171zM299 177 q27 -7 42 -6h171q70 0 120.5 50t50.5 120v171q0 22 -5 44z" />
<glyph unicode="&#xf9;" d="M0 341v512h171v-512q0 -70 50 -120t120 -50q85 0 171 85l171 171v426h170v-853h-170v236l-106 -108q-128 -128 -236 -128q-142 0 -241.5 100t-99.5 241zM138 1280l118 118l276 -278l-116 -116z" />
<glyph unicode="&#xfa;" d="M0 341v512h171v-512q0 -70 50 -120t120 -50q85 0 171 85l171 171v426h170v-853h-170v236l-106 -108q-128 -128 -236 -128q-142 0 -241.5 100t-99.5 241zM319 1120l278 278l118 -118l-278 -276z" />
<glyph unicode="&#xfb;" d="M0 341v512h171v-512q0 -70 50 -120t120 -50q85 0 171 85l171 171v426h170v-853h-170v236l-106 -108q-128 -128 -236 -128q-142 0 -241.5 100t-99.5 241zM148 1109l279 279l276 -279l-116 -117l-160 160l-161 -160z" />
<glyph unicode="&#xfc;" d="M0 341v512h171v-512q0 -70 50 -120t120 -50q85 0 171 85l171 171v426h170v-853h-170v236l-106 -108q-128 -128 -236 -128q-142 0 -241.5 100t-99.5 241zM171 1109q0 36 24.5 61t60.5 25t60.5 -25t24.5 -61t-24.5 -60.5t-60.5 -24.5t-60.5 24.5t-24.5 60.5zM512 1109 q0 36 24.5 61t60.5 25t61 -25t25 -61t-25 -60.5t-61 -24.5t-60.5 24.5t-24.5 60.5z" />
<glyph unicode="&#xfd;" d="M0 341v512h171v-512q0 -70 50 -120t120 -50h342v682h170v-853q0 -140 -100.5 -240t-240.5 -100h-341v171h341q70 0 120.5 50.5t50.5 118.5h-342q-140 0 -240.5 100.5t-100.5 240.5zM319 1120l278 278l118 -118l-278 -276z" />
<glyph unicode="&#xfe;" d="M0 -340v1535h171v-342h341q140 0 240.5 -100.5t100.5 -240.5v-171q0 -140 -100.5 -240.5t-240.5 -100.5h-341v-340h-171zM171 171h341q70 0 120.5 50t50.5 120v171q0 70 -50.5 120.5t-120.5 50.5h-341v-512z" />
<glyph unicode="&#xff;" d="M0 341v512h171v-512q0 -70 50 -120t120 -50h342v682h170v-853q0 -140 -100.5 -240t-240.5 -100h-341v171h341q70 0 120.5 50.5t50.5 118.5h-342q-140 0 -240.5 100.5t-100.5 240.5zM171 1109q0 36 24.5 61t60.5 25t60.5 -25t24.5 -61t-24.5 -60.5t-60.5 -24.5t-60.5 24.5 t-24.5 60.5zM512 1109q0 36 24.5 61t60.5 25t61 -25t25 -61t-25 -60.5t-61 -24.5t-60.5 24.5t-24.5 60.5z" />
<glyph unicode="&#x152;" d="M0 341v512q0 140 100.5 241t240.5 101h512v-171h-341v-341h171v-171h-171v-341h341v-171h-512q-140 0 -240.5 100.5t-100.5 240.5zM171 341q0 -70 50 -120t120 -50v853q-70 0 -120 -50.5t-50 -120.5v-512z" />
<glyph unicode="&#x153;" d="M0 256v341q0 106 75 181t181 75q101 0 176 -70q73 70 165 70q106 0 181 -75t75 -181v-256h-256q-36 0 -60.5 -24.5t-24.5 -60.5t24.5 -60.5t60.5 -24.5h256v-171h-256q-94 0 -167 68q-72 -68 -174 -68q-106 0 -181 75t-75 181zM171 256q0 -36 24.5 -60.5t60.5 -24.5 t60.5 24.5t24.5 60.5v341q0 36 -24.5 61t-60.5 25t-60.5 -25t-24.5 -61v-341zM512 597q0 -36 24.5 -60.5t60.5 -24.5t61 24.5t25 60.5t-25 61t-61 25t-60.5 -25t-24.5 -61z" />
<glyph unicode="&#x178;" d="M0 736v459h171v-395l256 -256l256 256v395h170v-459l-341 -342v-394h-171v394zM171 1451q0 36 24.5 60.5t60.5 24.5t60.5 -24.5t24.5 -60.5t-24.5 -61t-60.5 -25t-60.5 25t-24.5 61zM512 1451q0 36 24.5 60.5t60.5 24.5t61 -24.5t25 -60.5t-25 -61t-61 -25t-60.5 25 t-24.5 61z" />
<glyph unicode="&#x2c6;" d="M148 1120l279 278l276 -278l-116 -116l-160 158l-161 -158z" />
<glyph unicode="&#x2dc;" d="M0 1024v85q0 106 75 181t181 75q108 0 171 -63q108 -108 170 -107q36 0 61 24.5t25 60.5v85h170v-85q0 -106 -75 -181t-181 -75t-170 65q-106 106 -171 106q-36 0 -60.5 -25t-24.5 -61v-85h-171z" />
<glyph unicode="&#x2000;" horiz-adv-x="776" />
<glyph unicode="&#x2001;" horiz-adv-x="1553" />
<glyph unicode="&#x2002;" horiz-adv-x="776" />
<glyph unicode="&#x2003;" horiz-adv-x="1553" />
<glyph unicode="&#x2004;" horiz-adv-x="517" />
<glyph unicode="&#x2005;" horiz-adv-x="388" />
<glyph unicode="&#x2006;" horiz-adv-x="258" />
<glyph unicode="&#x2007;" horiz-adv-x="258" />
<glyph unicode="&#x2008;" horiz-adv-x="194" />
<glyph unicode="&#x2009;" horiz-adv-x="310" />
<glyph unicode="&#x200a;" horiz-adv-x="86" />
<glyph unicode="&#x2010;" d="M171 512v171h512v-171h-512z" />
<glyph unicode="&#x2011;" d="M171 512v171h512v-171h-512z" />
<glyph unicode="&#x2012;" d="M171 512v171h512v-171h-512z" />
<glyph unicode="&#x2013;" d="M171 512v171h512v-171h-512z" />
<glyph unicode="&#x2014;" d="M0 512v171h1024v-171h-1024z" />
<glyph unicode="&#x2018;" d="M341 683v227q0 135 101 235l106 106l119 -121l-104 -106q-51 -51 -51 -116v-225h-171z" />
<glyph unicode="&#x2019;" d="M357 748l104 105q51 51 51 116v226h171v-227q0 -135 -101 -236l-106 -106z" />
<glyph unicode="&#x201a;" d="M15 -104l104 104q51 51 52 116v225h170v-227q0 -133 -100 -233l-106 -106z" />
<glyph unicode="&#x201c;" d="M171 683v227q0 135 100 235l106 106l120 -121l-104 -106q-51 -51 -52 -116v-225h-170zM512 683v227q0 135 101 235l106 106l119 -121l-104 -106q-51 -51 -51 -116v-225h-171z" />
<glyph unicode="&#x201d;" d="M186 748l104 105q51 51 51 116v226h171v-227q0 -135 -101 -236l-106 -106zM527 748l104 105q51 51 52 116v226h170v-227q0 -135 -100 -236l-106 -106z" />
<glyph unicode="&#x201e;" d="M15 -104l104 104q51 51 52 116v225h170v-227q0 -133 -100 -233l-106 -106zM357 -104l104 104q51 51 51 116v225h171v-227q0 -133 -101 -233l-106 -106z" />
<glyph unicode="&#x2022;" d="M0 597q0 177 125.5 302t301.5 125q177 0 301.5 -125t124.5 -302t-124.5 -301.5t-301.5 -124.5t-302 124.5t-125 301.5z" />
<glyph unicode="&#x2026;" d="M0 85q0 36 24.5 61t60.5 25t61 -25t25 -61t-25 -60.5t-61 -24.5t-60.5 24.5t-24.5 60.5zM341 85q0 36 25 61t61 25t60.5 -25t24.5 -61t-24.5 -60.5t-60.5 -24.5t-61 24.5t-25 60.5zM683 85q0 36 24.5 61t60.5 25t60.5 -25t24.5 -61t-24.5 -60.5t-60.5 -24.5t-60.5 24.5 t-24.5 60.5z" />
<glyph unicode="&#x202f;" horiz-adv-x="310" />
<glyph unicode="&#x2039;" d="M0 341l167 393l157 -67l-143 -326l143 -326l-157 -64z" />
<glyph unicode="&#x203a;" d="M17 15l143 326l-143 326l157 67l167 -393l-167 -390z" />
<glyph unicode="&#x205f;" horiz-adv-x="388" />
<glyph unicode="&#x20ac;" d="M0 341v171h171v171h-171v170h171q0 140 100 241q101 101 241 101t241 -101t100 -241h-170q0 72 -49.5 121.5t-121.5 49.5t-121.5 -49.5t-49.5 -121.5h171v-170h-171v-171h171v-171h-171q0 -72 49.5 -121t121.5 -49t121.5 49.5t49.5 120.5h170q0 -140 -100 -240 q-101 -101 -241 -101t-241 101t-100 240h-171z" />
<glyph unicode="&#x2122;" d="M0 1024v171h683l85 -171l85 171h171v-512h-171v256l-85 -171l-85 171v-256h-171v341h-171v-341h-170v341h-171z" />
<glyph unicode="&#xe000;" horiz-adv-x="853" d="M0 0v853h853v-853h-853z" />
</font>
</defs>
</svg>
