<?xml version="1.0" standalone="no"?>
<!DOCTYPE svg PUBLIC "-//W3C//DTD SVG 1.1//EN" "http://www.w3.org/Graphics/SVG/1.1/DTD/svg11.dtd" >
<svg xmlns="http://www.w3.org/2000/svg">
<metadata></metadata>
<defs>
<font id="terminus_ttfmedium" horiz-adv-x="1024" >
<font-face units-per-em="2048" ascent="1706" descent="-342" />
<missing-glyph horiz-adv-x="500" />
<glyph horiz-adv-x="0" />
<glyph unicode="&#xd;" />
<glyph d="M127 41v321h129v-192h129v-129h-258zM127 553v258h129v-258h-129zM127 1001v322h258v-129h-129v-193h-129zM639 41v129h129v192h129v-321h-258zM639 1194v129h258v-322h-129v193h-129zM768 553v258h129v-258h-129z" />
<glyph d="M127 41v321h129v-192h129v-129h-258zM127 553v258h129v-258h-129zM127 1001v322h258v-129h-129v-193h-129zM639 41v129h129v192h129v-321h-258zM639 1194v129h258v-322h-129v193h-129zM768 553v258h129v-258h-129z" />
<glyph unicode=" " />
<glyph unicode="!" d="M449 41v258h126v-258h-126zM449 426v897h126v-897h-126z" />
<glyph unicode="&#x22;" d="M256 1130v383h129v-383h-129zM639 1130v383h129v-383h-129z" />
<glyph unicode="#" d="M127 362v127h129v385h-129v127h129v322h129v-322h254v322h129v-322h129v-127h-129v-385h129v-127h-129v-321h-129v321h-254v-321h-129v321h-129zM385 489h254v385h-254v-385z" />
<glyph unicode="$" d="M127 233v129h129v-129h193v385h-193v64h-63v63h-66v385h66v64h63v63h193v129h126v-129h193v-63h63v-64h66v-129h-129v129h-193v-385h193v-63h63v-64h66v-385h-66v-63h-63v-64h-193v-129h-126v129h-193v64h-63v63h-66zM256 745h193v385h-193v-385zM575 233h193v385h-193 v-385z" />
<glyph unicode="%" d="M127 41v129h66v129h63v127h63v127h66v129h64v129h63v127h63v127h64v129h66v129h126v-129h-63v-129h-63v-127h-66v-127h-64v-129h-63v-129h-63v-127h-64v-127h-66v-129h-63v-129h-129zM127 1001v256h66v66h256v-66h63v-256h-63v-63h-256v63h-66zM256 1065h129v129h-129 v-129zM449 106v256h63v64h256v-64h63v-256h-63v-65h-256v65h-63zM575 170h130v129h-130v-129z" />
<glyph unicode="&#x26;" d="M63 170v383h64v65h66v64h63v129h-63v63h-66v320h66v63h63v66h319v-66h64v-63h66v-320h-66v-63h-64v-66h-63v-63h63v-64h64v-65h129v129h129v-129h-66v-64h-63v-256h63v-63h66v-129h-129v129h-129v-64h-64v-65h-382v65h-66v64h-64zM193 170h319v63h63v66h64v127h-64v63 h-63v64h-63v65h-193v-65h-63v-383zM256 874h63v-63h193v63h63v320h-319v-320z" />
<glyph unicode="'" d="M449 1130v383h126v-383h-126z" />
<glyph unicode="(" d="M319 362v639h66v129h64v64h63v63h63v66h130v-66h-66v-63h-64v-64h-63v-129h-63v-639h63v-129h63v-63h64v-64h66v-65h-130v65h-63v64h-63v63h-64v129h-66z" />
<glyph unicode=")" d="M319 41v65h66v64h64v63h63v129h63v639h-63v129h-63v64h-64v63h-66v66h130v-66h63v-63h63v-64h64v-129h66v-639h-66v-129h-64v-63h-63v-64h-63v-65h-130z" />
<glyph unicode="*" d="M63 618v127h322v66h-66v63h-63v64h-63v63h-66v64h192v-64h66v-63h64v-64h63v64h63v63h64v64h192v-64h-63v-63h-63v-64h-66v-63h-64v-66h322v-127h-322v-65h64v-64h66v-63h63v-64h63v-63h-192v63h-64v64h-63v63h-63v-63h-64v-64h-66v-63h-192v63h66v64h63v63h63v64h66v65 h-322z" />
<glyph unicode="+" d="M127 618v127h322v320h126v-320h322v-127h-322v-319h-126v319h-322z" />
<glyph unicode="," d="M319 -23h66v64h64v258h126v-258h-63v-64h-63v-63h-130v63z" />
<glyph unicode="-" d="M127 618v127h770v-127h-770z" />
<glyph unicode="." d="M449 41v258h126v-258h-126z" />
<glyph unicode="/" d="M127 41v129h66v129h63v127h63v127h66v129h64v129h63v127h63v127h64v129h66v129h126v-129h-63v-129h-63v-127h-66v-127h-64v-129h-63v-129h-63v-127h-64v-127h-66v-129h-63v-129h-129z" />
<glyph unicode="0" d="M127 170v1024h66v63h63v66h512v-66h63v-63h66v-1024h-66v-64h-63v-65h-512v65h-63v64h-66zM256 170h512v641l-63 63v-63h-66v-66h-64v-63h-63v-64h-63v-65h-64v-64h-66v-63h-63v-256zM256 553h63v65h66v64h64v63h63v66h63v63h64v64h66v63h63v193h-512v-641z" />
<glyph unicode="1" d="M256 41v129h193v895h-64v-64h-129v129h63v64h66v63h64v66h126v-1153h193v-129h-512z" />
<glyph unicode="2" d="M127 41v192h66v66h63v63h63v64h66v63h64v64h63v65h63v64h64v63h66v66h63v383h-512v-320h-129v320h66v63h63v66h512v-66h63v-63h66v-383h-66v-66h-63v-63h-63v-64h-66v-65h-64v-64h-63v-63h-63v-64h-64v-63h-66v-66h-63v-63h641v-129h-770z" />
<glyph unicode="3" d="M127 170v129h129v-129h512v448h-449v127h449v449h-512v-129h-129v129h66v63h63v66h512v-66h63v-63h66v-449h-66v-127h66v-448h-66v-64h-63v-65h-512v65h-63v64h-66z" />
<glyph unicode="4" d="M127 362v320h66v63h63v66h63v63h66v64h64v63h63v64h63v65h64v64h66v63h63v66h129v-1282h-129v321h-641zM256 489h512v576l-63 65v-65h-66v-64h-64v-63h-63v-64h-63v-63h-64v-66h-66v-63h-63v-193z" />
<glyph unicode="5" d="M127 170v129h129v-129h512v512h-641v641h770v-129h-641v-383h512v-66h63v-63h66v-512h-66v-64h-63v-65h-512v65h-63v64h-66z" />
<glyph unicode="6" d="M127 170v1024h66v63h63v66h575v-129h-575v-383h512v-66h63v-63h66v-512h-66v-64h-63v-65h-512v65h-63v64h-66zM256 170h512v512h-512v-512z" />
<glyph unicode="7" d="M127 938v385h770v-322h-66v-127h-63v-129h-63v-127h-66v-129h-64v-448h-126v448h63v129h63v127h64v129h66v127h63v193h-512v-256h-129z" />
<glyph unicode="8" d="M127 170v448h66v127h-66v449h66v63h63v66h512v-66h63v-63h66v-449h-66v-127h66v-448h-66v-64h-63v-65h-512v65h-63v64h-66zM256 170h512v448h-512v-448zM256 745h512v449h-512v-449z" />
<glyph unicode="9" d="M127 682v512h66v63h63v66h512v-66h63v-63h66v-1024h-66v-64h-63v-65h-575v129h575v383h-512v65h-63v64h-66zM256 682h512v512h-512v-512z" />
<glyph unicode=":" d="M449 41v258h126v-258h-126zM449 682v256h126v-256h-126z" />
<glyph unicode=";" d="M319 -23h66v64h64v258h126v-258h-63v-64h-63v-63h-130v63zM449 682v256h126v-256h-126z" />
<glyph unicode="&#x3c;" d="M127 618v127h66v66h63v63h63v64h66v63h64v64h63v65h63v64h64v63h66v66h192v-66h-66v-63h-63v-64h-63v-65h-66v-64h-64v-63h-63v-64h-63v-63h-64v-66h-66v-127h66v-65h64v-64h63v-63h63v-64h64v-63h66v-66h63v-63h63v-64h66v-65h-192v65h-66v64h-64v63h-63v66h-63v63h-64 v64h-66v63h-63v64h-63v65h-66z" />
<glyph unicode="=" d="M127 426v127h770v-127h-770zM127 811v127h770v-127h-770z" />
<glyph unicode="&#x3e;" d="M127 41v65h66v64h63v63h63v66h66v63h64v64h63v63h63v64h64v65h66v127h-66v66h-64v63h-63v64h-63v63h-64v64h-66v65h-63v64h-63v63h-66v66h192v-66h66v-63h64v-64h63v-65h63v-64h64v-63h66v-64h63v-63h63v-66h66v-127h-66v-65h-63v-64h-63v-63h-66v-64h-64v-63h-63v-66 h-63v-63h-64v-64h-66v-65h-192z" />
<glyph unicode="?" d="M127 874v320h66v63h63v66h512v-66h63v-63h66v-320h-66v-63h-63v-66h-63v-63h-66v-64h-64v-192h-126v192h63v64h63v63h64v66h66v63h63v320h-512v-320h-129zM449 41v258h126v-258h-126z" />
<glyph unicode="@" d="M63 170v1024h64v63h66v66h575v-66h63v-63h66v-895h-66v63h-63v-63h-319v63h-64v64h-66v512h66v63h64v64h319v65h-63v64h-512v-1024h704v-129h-704v65h-66v64h-64zM449 426h256v63h63v449h-319v-512z" />
<glyph unicode="A" d="M127 41v1153h66v63h63v66h512v-66h63v-63h66v-1153h-129v512h-512v-512h-129zM256 682h512v512h-512v-512z" />
<glyph unicode="B" d="M127 41v1282h641v-66h63v-63h66v-320h-66v-63h-63v-129h63v-64h66v-448h-66v-64h-63v-65h-641zM256 170h512v448h-63v64h-449v-512zM256 811h449v63h63v320h-512v-383z" />
<glyph unicode="C" d="M127 170v1024h66v63h63v66h512v-66h63v-63h66v-193h-129v193h-512v-1024h512v192h129v-192h-66v-64h-63v-65h-512v65h-63v64h-66z" />
<glyph unicode="D" d="M127 41v1282h512v-66h129v-63h63v-129h66v-766h-66v-129h-63v-64h-129v-65h-512zM256 170h383v63h66v66h63v766h-63v65h-66v64h-383v-1024z" />
<glyph unicode="E" d="M127 41v1282h770v-129h-641v-449h449v-127h-449v-448h641v-129h-770z" />
<glyph unicode="F" d="M127 41v1282h770v-129h-641v-449h449v-127h-449v-577h-129z" />
<glyph unicode="G" d="M127 170v1024h66v63h63v66h512v-66h63v-63h66v-193h-129v193h-512v-1024h512v448h-256v127h385v-575h-66v-64h-63v-65h-512v65h-63v64h-66z" />
<glyph unicode="H" d="M127 41v1282h129v-578h512v578h129v-1282h-129v577h-512v-577h-129z" />
<glyph unicode="I" d="M319 41v129h130v1024h-130v129h386v-129h-130v-1024h130v-129h-386z" />
<glyph unicode="J" d="M127 170v256h129v-256h449v1024h-130v129h386v-129h-130v-1024h-63v-64h-63v-65h-449v65h-63v64h-66z" />
<glyph unicode="K" d="M127 41v1282h129v-512h63v63h66v64h64v63h63v64h63v65h64v64h66v63h63v66h129v-66h-66v-63h-63v-64h-63v-65h-66v-64h-64v-63h-63v-64h-63v-63h-64v-66h-66v-127h66v-65h64v-64h63v-63h63v-64h64v-63h66v-66h63v-63h63v-64h66v-65h-129v65h-63v64h-66v63h-64v66h-63v63 h-63v64h-64v63h-66v64h-63v-512h-129z" />
<glyph unicode="L" d="M127 41v1282h129v-1153h641v-129h-770z" />
<glyph unicode="M" d="M63 41v1282l64 -66h66v-63h63v-64h63v-65h66v-64h190v64h64v65h66v64h63v63h63v66h66v-1282h-129v1024h-63v-64h-66v-63h-64v-64h-63v-63h-63v63h-64v64h-66v63h-63v64h-63v-1024h-130z" />
<glyph unicode="N" d="M127 41v1282h129v-322h63v-63h66v-64h64v-63h63v-66h63v-63h64v-64h66v-65h63v770h129v-1282h-129v385h-63v63h-66v64h-64v65h-63v64h-63v63h-64v66h-66v63h-63v-833h-129z" />
<glyph unicode="O" d="M127 170v1024h66v63h63v66h512v-66h63v-63h66v-1024h-66v-64h-63v-65h-512v65h-63v64h-66zM256 170h512v1024h-512v-1024z" />
<glyph unicode="P" d="M127 41v1282h641v-66h63v-63h66v-512h-66v-64h-63v-65h-512v-512h-129zM256 682h512v512h-512v-512z" />
<glyph unicode="Q" d="M127 170v1024h66v63h63v66h512v-66h63v-63h66v-1024h-66v-64h-63v-65h63v-64h66v-63h-129v63h-63v64h-449v65h-63v64h-66zM256 170h256v63h-63v66h126v-66h64v-63h129v1024h-512v-1024z" />
<glyph unicode="R" d="M127 41v1282h641v-66h63v-63h66v-512h-66v-64h-63v-65h-319v-64h63v-63h63v-64h64v-63h66v-66h63v-63h63v-64h66v-65h-129v65h-63v64h-66v63h-64v66h-63v63h-63v64h-64v63h-66v64h-63v-512h-129zM256 682h512v512h-512v-512z" />
<glyph unicode="S" d="M127 170v129h129v-129h512v448h-512v64h-63v63h-66v449h66v63h63v66h512v-66h63v-63h66v-129h-129v129h-512v-449h512v-63h63v-64h66v-448h-66v-64h-63v-65h-512v65h-63v64h-66z" />
<glyph unicode="T" d="M127 1194v129h770v-129h-322v-1153h-126v1153h-322z" />
<glyph unicode="U" d="M127 170v1153h129v-1153h512v1153h129v-1153h-66v-64h-63v-65h-512v65h-63v64h-66z" />
<glyph unicode="V" d="M127 1065v258h129v-258h63v-254h66v-258h64v-254h126v254h64v258h66v254h63v258h129v-258h-66v-254h-63v-258h-63v-254h-66v-129h-64v-129h-126v129h-64v129h-66v254h-63v258h-63v254h-66z" />
<glyph unicode="W" d="M63 41v1282h130v-1024h63v63h63v64h66v63h64v64h63v-64h63v-63h64v-64h66v-63h63v1024h129v-1282h-66v65h-63v64h-63v63h-66v66h-64v63h-190v-63h-66v-66h-63v-63h-63v-64h-66v-65h-64z" />
<glyph unicode="X" d="M127 41v129h66v129h63v127h63v127h66v258h-66v127h-63v127h-63v129h-66v129h129v-129h63v-129h66v-127h64v-127h126v127h64v127h66v129h63v129h129v-129h-66v-129h-63v-127h-63v-127h-66v-258h66v-127h63v-127h63v-129h66v-129h-129v129h-63v129h-66v127h-64v127h-126 v-127h-64v-127h-66v-129h-63v-129h-129z" />
<glyph unicode="Y" d="M127 1130v193h129v-193h63v-129h66v-127h64v-129h126v129h64v127h66v129h63v193h129v-193h-66v-129h-63v-127h-63v-129h-66v-127h-64v-577h-126v577h-64v127h-66v129h-63v127h-63v129h-66z" />
<glyph unicode="Z" d="M127 41v385h66v63h63v64h63v65h66v64h64v63h63v66h63v63h64v64h66v63h63v193h-641v129h770v-322h-66v-63h-63v-64h-63v-63h-66v-66h-64v-63h-63v-64h-63v-65h-64v-64h-66v-63h-63v-256h641v-129h-770z" />
<glyph unicode="[" d="M256 41v1282h449v-129h-320v-1024h320v-129h-449z" />
<glyph unicode="\" d="M127 1194v129h129v-129h63v-129h66v-127h64v-127h63v-129h63v-129h64v-127h66v-127h63v-129h63v-129h-126v129h-66v129h-64v127h-63v127h-63v129h-64v129h-66v127h-63v127h-63v129h-66z" />
<glyph unicode="]" d="M256 41v129h319v1024h-319v129h449v-1282h-449z" />
<glyph unicode="^" d="M127 1130v64h66v63h63v66h63v63h66v64h64v63h126v-63h64v-64h66v-63h63v-66h63v-63h66v-64h-192v64h-66v63h-64v66h-126v-66h-64v-63h-66v-64h-192z" />
<glyph unicode="_" d="M127 -23h770v-127h-770v127z" />
<glyph unicode="`" d="M256 1577v65h193v-65h63v-64h63v-63h64v-64h-190v64h-64v63h-66v64h-63z" />
<glyph unicode="a" d="M127 170v319h66v64h63v65h512v193h-575v127h575v-64h63v-63h66v-770h-641v65h-63v64h-66zM256 170h512v319h-512v-319z" />
<glyph unicode="b" d="M127 41v1282h129v-385h512v-64h63v-63h66v-641h-66v-64h-63v-65h-641zM256 170h512v641h-512v-641z" />
<glyph unicode="c" d="M127 170v641h66v63h63v64h512v-64h63v-63h66v-129h-129v129h-512v-641h512v129h129v-129h-66v-64h-63v-65h-512v65h-63v64h-66z" />
<glyph unicode="d" d="M127 170v641h66v63h63v64h512v385h129v-1282h-641v65h-63v64h-66zM256 170h512v641h-512v-641z" />
<glyph unicode="e" d="M127 170v641h66v63h63v64h512v-64h63v-63h66v-385h-641v-256h512v63h129v-63h-66v-64h-63v-65h-512v65h-63v64h-66zM256 553h512v258h-512v-258z" />
<glyph unicode="f" d="M193 811v127h256v256h63v63h63v66h386v-129h-386v-256h256v-127h-256v-770h-126v770h-256z" />
<glyph unicode="g" d="M127 170v641h66v63h63v64h641v-1088h-66v-63h-63v-66h-575v129h575v191h-512v65h-63v64h-66zM256 170h512v641h-512v-641z" />
<glyph unicode="h" d="M127 41v1282h129v-385h512v-64h63v-63h66v-770h-129v770h-512v-770h-129z" />
<glyph unicode="i" d="M319 41v129h130v641h-130v127h256v-768h130v-129h-386zM449 1065v258h126v-258h-126z" />
<glyph unicode="j" d="M193 41h126v-191h386v961h-130v127h256v-1088h-63v-63h-63v-66h-386v66h-63v63h-63v191zM705 1065v258h126v-258h-126z" />
<glyph unicode="k" d="M193 41v1282h126v-770h130v65h63v64h63v63h64v66h66v63h63v64h129v-64h-66v-63h-63v-66h-63v-63h-66v-64h-64v-65h-63v-127h63v-64h64v-63h66v-66h63v-63h63v-64h66v-65h-129v65h-63v64h-66v63h-64v66h-63v63h-63v64h-130v-385h-126z" />
<glyph unicode="l" d="M319 41v129h130v1024h-130v129h256v-1153h130v-129h-386z" />
<glyph unicode="m" d="M127 41v897h641v-64h63v-63h66v-770h-129v770h-193v-770h-126v770h-193v-770h-129z" />
<glyph unicode="n" d="M127 41v897h641v-64h63v-63h66v-770h-129v770h-512v-770h-129z" />
<glyph unicode="o" d="M127 170v641h66v63h63v64h512v-64h63v-63h66v-641h-66v-64h-63v-65h-512v65h-63v64h-66zM256 170h512v641h-512v-641z" />
<glyph unicode="p" d="M127 -279v1217h641v-64h63v-63h66v-641h-66v-64h-63v-65h-512v-320h-129zM256 170h512v641h-512v-641z" />
<glyph unicode="q" d="M127 170v641h66v63h63v64h641v-1217h-129v320h-512v65h-63v64h-66zM256 170h512v641h-512v-641z" />
<glyph unicode="r" d="M127 41v897h129v-193h63v66h66v63h64v64h448v-127h-448v-66h-64v-63h-66v-64h-63v-577h-129z" />
<glyph unicode="s" d="M127 170v63h129v-63h512v256h-512v63h-63v64h-66v258h66v63h63v64h512v-64h63v-63h66v-66h-129v66h-512v-258h512v-64h63v-63h66v-256h-66v-64h-63v-65h-512v65h-63v64h-66z" />
<glyph unicode="t" d="M127 811v127h258v385h127v-385h256v-127h-256v-641h385v-129h-385v65h-63v64h-64v641h-258z" />
<glyph unicode="u" d="M127 170v768h129v-768h512v768h129v-897h-641v65h-63v64h-66z" />
<glyph unicode="v" d="M127 745v193h129v-193h63v-192h66v-191h64v-192h126v192h64v191h66v192h63v193h129v-193h-66v-192h-63v-191h-63v-192h-66v-129h-254v129h-66v192h-63v191h-63v192h-66z" />
<glyph unicode="w" d="M127 170v768h129v-768h193v512h126v-512h193v768h129v-768h-66v-64h-63v-65h-512v65h-63v64h-66z" />
<glyph unicode="x" d="M127 41v192h66v66h63v63h63v64h66v127h-66v65h-63v64h-63v63h-66v193h129v-193h63v-63h66v-64h64v-65h126v65h64v64h66v63h63v193h129v-193h-66v-63h-63v-64h-63v-65h-66v-127h66v-64h63v-63h63v-66h66v-192h-129v192h-63v66h-66v63h-64v64h-126v-64h-64v-63h-66v-66h-63 v-192h-129z" />
<glyph unicode="y" d="M127 170v768h129v-768h512v768h129v-1088h-66v-63h-63v-66h-575v129h575v191h-512v65h-63v64h-66z" />
<glyph unicode="z" d="M127 41v192h66v66h63v63h63v64h66v63h64v64h63v65h63v64h64v63h66v66h-578v127h770v-127h-66v-66h-63v-63h-63v-64h-66v-65h-64v-64h-63v-63h-63v-64h-64v-63h-66v-66h-63v-63h641v-129h-770z" />
<glyph unicode="{" d="M256 618v127h129v449h64v63h63v66h256v-129h-256v-449h-63v-127h63v-448h256v-129h-256v65h-63v64h-64v448h-129z" />
<glyph unicode="|" d="M449 41v1282h126v-1282h-126z" />
<glyph unicode="}" d="M256 41v129h256v448h63v127h-63v449h-256v129h256v-66h63v-63h64v-449h129v-127h-129v-448h-64v-64h-63v-65h-256z" />
<glyph unicode="~" d="M127 1130v256h66v64h63v63h193v-63h63v-64h63v-129h193v256h129v-256h-66v-63h-63v-64h-193v64h-63v63h-63v129h-193v-256h-129z" />
<glyph unicode="&#xa0;" />
<glyph unicode="&#xa1;" d="M449 41v897h126v-897h-126zM449 1065v258h126v-258h-126z" />
<glyph unicode="&#xa2;" d="M127 170v641h66v63h63v64h193v192h126v-192h193v-64h63v-63h66v-129h-129v129h-193v-641h193v129h129v-129h-66v-64h-63v-65h-193v-191h-126v191h-193v65h-63v64h-66zM256 170h193v641h-193v-641z" />
<glyph unicode="&#xa3;" d="M127 41v129h129v448h-129v127h129v449h63v63h66v66h320v-66h63v-63h63v-129h-126v129h-320v-449h320v-127h-320v-448h383v129h129v-258h-770z" />
<glyph unicode="&#xa4;" d="M127 233v66h66v63h63v127h-63v385h63v127h-63v64h-66v65h129v-65h63v-64h386v64h63v65h129v-65h-66v-64h-63v-127h63v-385h-63v-127h63v-63h66v-66h-129v66h-63v63h-386v-63h-63v-66h-129zM319 489h386v385h-386v-385z" />
<glyph unicode="&#xa5;" d="M127 1194v129h129v-129h63v-129h66v-127h64v-127h126v127h64v127h66v129h63v129h129v-129h-66v-129h-63v-127h-63v-127h-66v-129h-64v-129h256v-127h-256v-127h256v-129h-256v-129h-126v129h-256v129h256v127h-256v127h256v129h-64v129h-66v127h-63v127h-63v129h-66z" />
<glyph unicode="&#xa6;" d="M449 41v512h126v-512h-126zM449 811v512h126v-512h-126z" />
<glyph unicode="&#xa7;" d="M193 106v127h126v-127h386v193h-66v63h-254v64h-66v63h-63v64h-63v385h63v127h-63v258h63v63h63v64h386v-64h63v-63h63v-129h-126v129h-386v-193h66v-65h254v-64h66v-63h63v-64h63v-385h-63v-127h63v-256h-63v-65h-63v-64h-386v64h-63v65h-63zM319 553h66v-64h320v385 h-66v64h-320v-385z" />
<glyph unicode="&#xa8;" d="M256 1386v256h129v-256h-129zM639 1386v256h129v-256h-129z" />
<glyph unicode="&#xa9;" d="M63 299v766h64v65h66v64h638v-64h66v-65h64v-766h-64v-66h-66v-63h-638v63h-66v66h-64zM193 299h638v766h-638v-766zM256 426v512h63v63h386v-63h63v-127h-129v63h-254v-385h254v64h129v-127h-63v-64h-386v64h-63z" />
<glyph unicode="&#xaa;" d="M193 618v127h638v-127h-638zM193 1001v193h63v63h63v66h386v127h-449v127h449v-64h63v-63h63v-576h-512v64h-63v63h-63zM319 1001h386v193h-386v-193z" />
<glyph unicode="&#xab;" d="M63 426v127h64v65h66v64h63v63h63v66h66v63h64v64h190v-64h-64v-63h-63v-66h-63v-63h-64v-64h-66v-65h-63v-127h63v-64h66v-63h64v-66h63v-63h63v-64h64v-65h-190v65h-64v64h-66v63h-63v66h-63v63h-66v64h-64zM385 426v127h64v65h63v64h63v63h64v66h66v63h63v64h193v-64 h-64v-63h-66v-66h-63v-63h-63v-64h-66v-65h-64v-127h64v-64h66v-63h63v-66h63v-63h66v-64h64v-65h-193v65h-63v64h-66v63h-64v66h-63v63h-63v64h-64z" />
<glyph unicode="&#xac;" d="M127 811v127h770v-512h-129v385h-641z" />
<glyph unicode="&#xad;" d="M193 618v127h638v-127h-638z" />
<glyph unicode="&#xae;" d="M63 299v766h64v65h66v64h638v-64h66v-65h64v-766h-64v-66h-66v-63h-638v63h-66v66h-64zM193 299h638v766h-638v-766zM256 362v639h449v-63h63v-256h-63v-64h-66v-129h66v-63h63v-64h-193v64h-63v63h-63v64h-64v-191h-129zM385 682h254v192h-254v-192z" />
<glyph unicode="&#xaf;" d="M256 1450v127h512v-127h-512z" />
<glyph unicode="&#xb0;" d="M256 1065v385h63v63h386v-63h63v-385h-63v-64h-386v64h-63zM385 1130h254v256h-254v-256z" />
<glyph unicode="&#xb1;" d="M127 41v129h770v-129h-770zM127 618v127h322v320h126v-320h322v-127h-322v-319h-126v319h-322z" />
<glyph unicode="&#xb2;" d="M256 938v63h63v64h66v65h64v64h63v63h63v129h-190v-129h-129v193h63v63h320v-63h66v-193h-66v-63h-64v-64h-63v-65h193v-127h-449z" />
<glyph unicode="&#xb3;" d="M256 1001v129h129v-65h254v129h-190v129h190v63h-254v-63h-129v127h63v63h386v-63h63v-127h-63v-129h63v-193h-63v-63h-386v63h-63z" />
<glyph unicode="&#xb4;" d="M385 1386v64h64v63h63v64h63v65h193v-65h-63v-64h-66v-63h-64v-64h-190z" />
<glyph unicode="&#xb5;" d="M127 -279v1217h129v-768h383v63h66v66h63v639h129v-897h-129v129h-63v-64h-66v-65h-383v-320h-129z" />
<glyph unicode="&#xb6;" d="M63 682v575h64v66h770v-1282h-129v1153h-193v-1153h-126v577h-322v64h-64zM193 745h256v449h-256v-449z" />
<glyph unicode="&#xb7;" d="M449 553v258h126v-258h-126z" />
<glyph unicode="&#xb8;" d="M319 -213h66v63h64v191h126v-191h-63v-63h-63v-66h-130v66z" />
<glyph unicode="&#xb9;" d="M319 938v63h130v322h-130v63h66v64h64v63h126v-512h130v-63h-386z" />
<glyph unicode="&#xba;" d="M193 618v127h638v-127h-638zM193 1001v449h63v63h63v64h386v-64h63v-63h63v-449h-63v-63h-63v-64h-386v64h-63v63h-63zM319 1001h386v449h-386v-449z" />
<glyph unicode="&#xbb;" d="M63 41v65h64v64h66v63h63v66h63v63h66v64h64v127h-64v65h-66v64h-63v63h-63v66h-66v63h-64v64h193v-64h63v-63h66v-66h64v-63h63v-64h63v-65h64v-127h-64v-64h-63v-63h-63v-66h-64v-63h-66v-64h-63v-65h-193zM385 41v65h64v64h63v63h63v66h64v63h66v64h63v127h-63v65h-66 v64h-64v63h-63v66h-63v63h-64v64h190v-64h64v-63h66v-66h63v-63h63v-64h66v-65h64v-127h-64v-64h-66v-63h-63v-66h-63v-63h-66v-64h-64v-65h-190z" />
<glyph unicode="&#xbc;" d="M63 170v129h64v63h66v64h63v63h63v64h66v65h64v64h63v63h63v66h64v63h66v64h63v63h63v64l66 -64v-63h-66v-64h-63v-63h-63v-66h-66v-63h-64v-64h-63v-65h-63v-64h-64v-63h-66v-64h-63v-63h-63v-66h-66v-63h-64zM127 1130v64h66v63h63v66h129v-578h-129v385h-129zM385 170 v129h64v63h63v64h63v63h64v64h66v65h63v64h129v-641h-129v129h-383zM575 299h193v127l-63 63v-63h-66v-64h-64v-63z" />
<glyph unicode="&#xbd;" d="M63 299v127h64v63h66v64h63v65h63v64h66v63h64v66h63v63h63v64h64v63h66v64h63v65h63v64l66 -64v-65h-66v-64h-63v-63h-63v-64h-66v-63h-64v-66h-63v-63h-63v-64h-64v-65h-66v-64h-63v-63h-63v-64h-66v-63h-64zM63 1130v64h64v63h66v66h126v-578h-126v385h-130zM449 41 v65h63v64h63v63h64v66h66v63h63v127h-193v-127h-126v191h63v65h319v-65h66v-191h-66v-63h-63v-66h-63v-63h192v-129h-448z" />
<glyph unicode="&#xbe;" d="M63 106v127h64v66h66v63h63v64h63v63h66v64h64v65h63v64h63v63h64v66h66v63h63v64h63v63l66 -63v-64h-66v-63h-63v-66h-63v-63h-66v-64h-64v-65h-63v-64h-63v-63h-64v-64h-66v-63h-63v-66h-63v-63h-66v-64h-64zM63 811v127h130v-64h256v127h-193v129h193v64h-256v-64 h-130v127h64v66h385v-66h63v-127h-63v-129h63v-190h-63v-66h-385v66h-64zM385 170v129h64v63h63v64h63v63h64v64h66v65h63v64h129v-641h-129v129h-383zM575 299h193v127l-63 63v-63h-66v-64h-64v-63z" />
<glyph unicode="&#xbf;" d="M127 170v319h66v64h63v65h63v64h66v63h64v193h126v-193h-63v-63h-63v-64h-64v-65h-66v-64h-63v-319h512v319h129v-319h-66v-64h-63v-65h-512v65h-63v64h-66zM449 1065v258h126v-258h-126z" />
<glyph unicode="&#xc0;" d="M127 41v1153h66v63h63v66h512v-66h63v-63h66v-1153h-129v512h-512v-512h-129zM256 682h512v512h-512v-512zM256 1577v65h193v-65h63v-64h63v-63h64v-64h-190v64h-64v63h-66v64h-63z" />
<glyph unicode="&#xc1;" d="M127 41v1153h66v63h63v66h512v-66h63v-63h66v-1153h-129v512h-512v-512h-129zM256 682h512v512h-512v-512zM385 1386v64h64v63h63v64h63v65h193v-65h-63v-64h-66v-63h-64v-64h-190z" />
<glyph unicode="&#xc2;" d="M127 41v1153h66v63h63v66h512v-66h63v-63h66v-1153h-129v512h-512v-512h-129zM256 682h512v512h-512v-512zM256 1386v64h63v63h66v64h64v65h126v-65h64v-64h66v-63h63v-64h-129v64h-64v63h-126v-63h-64v-64h-129z" />
<glyph unicode="&#xc3;" d="M127 41v1153h66v63h63v66h512v-66h63v-63h66v-1153h-129v512h-512v-512h-129zM193 1386v191h63v65h256v-65h63v-127h130v192h126v-192h-63v-64h-256v64h-63v127h-130v-191h-126zM256 682h512v512h-512v-512z" />
<glyph unicode="&#xc4;" d="M127 41v1153h66v63h63v66h512v-66h63v-63h66v-1153h-129v512h-512v-512h-129zM256 682h512v512h-512v-512zM256 1386v256h129v-256h-129zM639 1386v256h129v-256h-129z" />
<glyph unicode="&#xc5;" d="M127 41v1153h66v63h63v66h129v63h-66v191h66v65h254v-65h66v-191h-66v-63h129v-66h63v-63h66v-1153h-129v512h-512v-512h-129zM256 682h512v512h-512v-512zM449 1386h126v191h-126v-191z" />
<glyph unicode="&#xc6;" d="M63 41v1153h64v63h66v66h831v-129h-385v-449h322v-127h-322v-448h385v-129h-512v577h-319v-577h-130zM193 745h319v449h-319v-449zM639 170h385v1024h-385v-449h322v-127h-322v-448z" />
<glyph unicode="&#xc7;" d="M127 170v1024h66v63h63v66h512v-66h63v-63h66v-193h-129v193h-512v-1024h512v192h129v-192h-66v-64h-63v-65h-193v-191h-63v-63h-63v-66h-130v66h66v63h64v191h-193v65h-63v64h-66z" />
<glyph unicode="&#xc8;" d="M127 41v1282h770v-129h-641v-449h449v-127h-449v-448h641v-129h-770zM256 1577v65h193v-65h63v-64h63v-63h64v-64h-190v64h-64v63h-66v64h-63z" />
<glyph unicode="&#xc9;" d="M127 41v1282h770v-129h-641v-449h449v-127h-449v-448h641v-129h-770zM385 1386v64h64v63h63v64h63v65h193v-65h-63v-64h-66v-63h-64v-64h-190z" />
<glyph unicode="&#xca;" d="M127 41v1282h770v-129h-641v-449h449v-127h-449v-448h641v-129h-770zM256 1386v64h63v63h66v64h64v65h126v-65h64v-64h66v-63h63v-64h-129v64h-64v63h-126v-63h-64v-64h-129z" />
<glyph unicode="&#xcb;" d="M127 41v1282h770v-129h-641v-449h449v-127h-449v-448h641v-129h-770zM256 1386v256h129v-256h-129zM639 1386v256h129v-256h-129z" />
<glyph unicode="&#xcc;" d="M256 1577v65h193v-65h63v-64h63v-63h64v-64h-190v64h-64v63h-66v64h-63zM319 41v129h130v1024h-130v129h386v-129h-130v-1024h130v-129h-386z" />
<glyph unicode="&#xcd;" d="M319 41v129h130v1024h-130v129h386v-129h-130v-1024h130v-129h-386zM385 1386v64h64v63h63v64h63v65h193v-65h-63v-64h-66v-63h-64v-64h-190z" />
<glyph unicode="&#xce;" d="M256 1386v64h63v63h66v64h64v65h126v-65h64v-64h66v-63h63v-64h-129v64h-64v63h-126v-63h-64v-64h-129zM319 41v129h130v1024h-130v129h386v-129h-130v-1024h130v-129h-386z" />
<glyph unicode="&#xcf;" d="M256 1386v256h129v-256h-129zM319 41v129h130v1024h-130v129h386v-129h-130v-1024h130v-129h-386zM639 1386v256h129v-256h-129z" />
<glyph unicode="&#xd0;" d="M63 618v127h64v578h512v-66h129v-63h63v-129h66v-766h-66v-129h-63v-64h-129v-65h-512v577h-64zM256 170h383v63h66v66h63v766h-63v65h-66v64h-383v-449h319v-127h-319v-448z" />
<glyph unicode="&#xd1;" d="M127 41v1282h129v-322h63v-63h66v-64h64v-63h63v-66h63v-63h64v-64h66v-65h63v770h129v-1282h-129v385h-63v63h-66v64h-64v65h-63v64h-63v63h-64v66h-66v63h-63v-833h-129zM193 1386v191h63v65h256v-65h63v-127h130v192h126v-192h-63v-64h-256v64h-63v127h-130v-191h-126 z" />
<glyph unicode="&#xd2;" d="M127 170v1024h66v63h63v66h512v-66h63v-63h66v-1024h-66v-64h-63v-65h-512v65h-63v64h-66zM256 170h512v1024h-512v-1024zM256 1577v65h193v-65h63v-64h63v-63h64v-64h-190v64h-64v63h-66v64h-63z" />
<glyph unicode="&#xd3;" d="M127 170v1024h66v63h63v66h512v-66h63v-63h66v-1024h-66v-64h-63v-65h-512v65h-63v64h-66zM256 170h512v1024h-512v-1024zM385 1386v64h64v63h63v64h63v65h193v-65h-63v-64h-66v-63h-64v-64h-190z" />
<glyph unicode="&#xd4;" d="M127 170v1024h66v63h63v66h512v-66h63v-63h66v-1024h-66v-64h-63v-65h-512v65h-63v64h-66zM256 170h512v1024h-512v-1024zM256 1386v64h63v63h66v64h64v65h126v-65h64v-64h66v-63h63v-64h-129v64h-64v63h-126v-63h-64v-64h-129z" />
<glyph unicode="&#xd5;" d="M127 170v1024h66v63h63v66h512v-66h63v-63h66v-1024h-66v-64h-63v-65h-512v65h-63v64h-66zM193 1386v191h63v65h256v-65h63v-127h130v192h126v-192h-63v-64h-256v64h-63v127h-130v-191h-126zM256 170h512v1024h-512v-1024z" />
<glyph unicode="&#xd6;" d="M127 170v1024h66v63h63v66h512v-66h63v-63h66v-1024h-66v-64h-63v-65h-512v65h-63v64h-66zM256 170h512v1024h-512v-1024zM256 1386v256h129v-256h-129zM639 1386v256h129v-256h-129z" />
<glyph unicode="&#xd7;" d="M63 299v63h64v64h66v63h63v64h63v65h66v127h-66v66h-63v63h-63v64h-66v63h-64v64h130v-64h63v-63h63v-64h66v-63h190v63h64v64h66v63h63v64h129v-64h-66v-63h-63v-64h-63v-63h-66v-66h-64v-127h64v-65h66v-64h63v-63h63v-64h66v-63h-129v63h-63v64h-66v63h-64v64h-190 v-64h-66v-63h-63v-64h-63v-63h-130z" />
<glyph unicode="&#xd8;" d="M63 233v129h64v832h66v63h63v66h512v-66h63v-63h130v-129h-64v-895h-66v-64h-63v-65h-512v65h-63v64h-66v63h-64zM256 170h512v641l-63 63v-63h-66v-66h-64v-63h-63v-64h-63v-65h-64v-64h-66v-63h-63v-256zM256 553h63v65h66v64h64v63h63v66h63v63h64v64h66v63h63v193 h-512v-641z" />
<glyph unicode="&#xd9;" d="M127 170v1153h129v-1153h512v1153h129v-1153h-66v-64h-63v-65h-512v65h-63v64h-66zM256 1577v65h193v-65h63v-64h63v-63h64v-64h-190v64h-64v63h-66v64h-63z" />
<glyph unicode="&#xda;" d="M127 170v1153h129v-1153h512v1153h129v-1153h-66v-64h-63v-65h-512v65h-63v64h-66zM385 1386v64h64v63h63v64h63v65h193v-65h-63v-64h-66v-63h-64v-64h-190z" />
<glyph unicode="&#xdb;" d="M127 170v1153h129v-1153h512v1153h129v-1153h-66v-64h-63v-65h-512v65h-63v64h-66zM256 1386v64h63v63h66v64h64v65h126v-65h64v-64h66v-63h63v-64h-129v64h-64v63h-126v-63h-64v-64h-129z" />
<glyph unicode="&#xdc;" d="M127 170v1153h129v-1153h512v1153h129v-1153h-66v-64h-63v-65h-512v65h-63v64h-66zM256 1386v256h129v-256h-129zM639 1386v256h129v-256h-129z" />
<glyph unicode="&#xdd;" d="M127 1130v193h129v-193h63v-129h66v-127h64v-129h126v129h64v127h66v129h63v193h129v-193h-66v-129h-63v-127h-63v-129h-66v-127h-64v-577h-126v577h-64v127h-66v129h-63v127h-63v129h-66zM385 1386v64h64v63h63v64h63v65h193v-65h-63v-64h-66v-63h-64v-64h-190z" />
<glyph unicode="&#xde;" d="M127 41v1282h129v-258h512v-64h63v-63h66v-512h-66v-64h-63v-63h-512v-258h-129zM256 426h512v512h-512v-512z" />
<glyph unicode="&#xdf;" d="M127 41v1216h66v66h512v-66h63v-63h63v-320h-63v-192h63v-64h66v-448h-66v-64h-63v-65h-383v65h-66v64h-63v-129h-129zM256 299h63v-66h66v-63h383v448h-63v64h-449v-383zM256 811h383v63h66v320h-449v-383z" />
<glyph unicode="&#xe0;" d="M127 170v319h66v64h63v65h512v193h-575v127h575v-64h63v-63h66v-770h-641v65h-63v64h-66zM256 170h512v319h-512v-319zM256 1257v66h193v-66h63v-63h63v-64h64v-65h-190v65h-64v64h-66v63h-63z" />
<glyph unicode="&#xe1;" d="M127 170v319h66v64h63v65h512v193h-575v127h575v-64h63v-63h66v-770h-641v65h-63v64h-66zM256 170h512v319h-512v-319zM385 1065v65h64v64h63v63h63v66h193v-66h-63v-63h-66v-64h-64v-65h-190z" />
<glyph unicode="&#xe2;" d="M127 170v319h66v64h63v65h512v193h-575v127h575v-64h63v-63h66v-770h-641v65h-63v64h-66zM256 170h512v319h-512v-319zM256 1065v65h63v64h66v63h64v66h126v-66h64v-63h66v-64h63v-65h-129v65h-64v64h-126v-64h-64v-65h-129z" />
<glyph unicode="&#xe3;" d="M127 170v319h66v64h63v65h512v193h-575v127h575v-64h63v-63h66v-770h-641v65h-63v64h-66zM193 1065v192h63v66h256v-66h63v-127h130v193h126v-193h-63v-65h-256v65h-63v127h-130v-192h-126zM256 170h512v319h-512v-319z" />
<glyph unicode="&#xe4;" d="M127 170v319h66v64h63v65h512v193h-575v127h575v-64h63v-63h66v-770h-641v65h-63v64h-66zM256 170h512v319h-512v-319zM256 1065v258h129v-258h-129zM639 1065v258h129v-258h-129z" />
<glyph unicode="&#xe5;" d="M127 170v319h66v64h63v65h512v193h-575v127h575v-64h63v-63h66v-770h-641v65h-63v64h-66zM256 170h512v319h-512v-319zM319 1065v192h66v66h254v-66h66v-192h-66v-64h-254v64h-66zM449 1065h126v192h-126v-192z" />
<glyph unicode="&#xe6;" d="M63 170v319h64v64h66v65h256v193h-322v127h322v-64h63v64h319v-64h66v-63h64v-385h-386v-256h256v63h130v-127h-64v-65h-322v65h-63v-65h-319v65h-66v64h-64zM193 170h256v319h-256v-319zM575 553h256v258h-256v-258z" />
<glyph unicode="&#xe7;" d="M127 170v641h66v63h63v64h512v-64h63v-63h66v-129h-129v129h-512v-641h512v129h129v-129h-66v-64h-63v-65h-193v-191h-63v-63h-63v-66h-130v66h66v63h64v191h-193v65h-63v64h-66z" />
<glyph unicode="&#xe8;" d="M127 170v641h66v63h63v64h512v-64h63v-63h66v-385h-641v-256h512v63h129v-63h-66v-64h-63v-65h-512v65h-63v64h-66zM256 553h512v258h-512v-258zM256 1257v66h193v-66h63v-63h63v-64h64v-65h-190v65h-64v64h-66v63h-63z" />
<glyph unicode="&#xe9;" d="M127 170v641h66v63h63v64h512v-64h63v-63h66v-385h-641v-256h512v63h129v-63h-66v-64h-63v-65h-512v65h-63v64h-66zM256 553h512v258h-512v-258zM385 1065v65h64v64h63v63h63v66h193v-66h-63v-63h-66v-64h-64v-65h-190z" />
<glyph unicode="&#xea;" d="M127 170v641h66v63h63v64h512v-64h63v-63h66v-385h-641v-256h512v63h129v-63h-66v-64h-63v-65h-512v65h-63v64h-66zM256 553h512v258h-512v-258zM256 1065v65h63v64h66v63h64v66h126v-66h64v-63h66v-64h63v-65h-129v65h-64v64h-126v-64h-64v-65h-129z" />
<glyph unicode="&#xeb;" d="M127 170v641h66v63h63v64h512v-64h63v-63h66v-385h-641v-256h512v63h129v-63h-66v-64h-63v-65h-512v65h-63v64h-66zM256 553h512v258h-512v-258zM256 1065v258h129v-258h-129zM639 1065v258h129v-258h-129z" />
<glyph unicode="&#xec;" d="M193 1257v66h192v-66h64v-63h63v-64h63v-65h-190v65h-66v64h-63v63h-63zM319 41v129h130v641h-130v127h256v-768h130v-129h-386z" />
<glyph unicode="&#xed;" d="M319 41v129h130v641h-130v127h256v-768h130v-129h-386zM385 1065v65h64v64h63v63h63v66h193v-66h-63v-63h-66v-64h-64v-65h-190z" />
<glyph unicode="&#xee;" d="M256 1065v65h63v64h66v63h64v66h126v-66h64v-63h66v-64h63v-65h-129v65h-64v64h-126v-64h-64v-65h-129zM319 41v129h130v641h-130v127h256v-768h130v-129h-386z" />
<glyph unicode="&#xef;" d="M256 1065v258h129v-258h-129zM319 41v129h130v641h-130v127h256v-768h130v-129h-386zM639 1065v258h129v-258h-129z" />
<glyph unicode="&#xf0;" d="M127 170v641h66v63h63v64h256v63h-63v64h-64v65h-66v-65h-192v65h66v64h63v63h-63v66h192v-66h64v66h190v-66h-64v-63h-63v-64h63v-65h64v-64h66v-63h63v-64h63v-63h66v-641h-66v-64h-63v-65h-512v65h-63v64h-66zM256 170h512v641h-512v-641z" />
<glyph unicode="&#xf1;" d="M127 41v897h641v-64h63v-63h66v-770h-129v770h-512v-770h-129zM193 1065v192h63v66h256v-66h63v-127h130v193h126v-193h-63v-65h-256v65h-63v127h-130v-192h-126z" />
<glyph unicode="&#xf2;" d="M127 170v641h66v63h63v64h512v-64h63v-63h66v-641h-66v-64h-63v-65h-512v65h-63v64h-66zM256 170h512v641h-512v-641zM256 1257v66h193v-66h63v-63h63v-64h64v-65h-190v65h-64v64h-66v63h-63z" />
<glyph unicode="&#xf3;" d="M127 170v641h66v63h63v64h512v-64h63v-63h66v-641h-66v-64h-63v-65h-512v65h-63v64h-66zM256 170h512v641h-512v-641zM385 1065v65h64v64h63v63h63v66h193v-66h-63v-63h-66v-64h-64v-65h-190z" />
<glyph unicode="&#xf4;" d="M127 170v641h66v63h63v64h512v-64h63v-63h66v-641h-66v-64h-63v-65h-512v65h-63v64h-66zM256 170h512v641h-512v-641zM256 1065v65h63v64h66v63h64v66h126v-66h64v-63h66v-64h63v-65h-129v65h-64v64h-126v-64h-64v-65h-129z" />
<glyph unicode="&#xf5;" d="M127 170v641h66v63h63v64h512v-64h63v-63h66v-641h-66v-64h-63v-65h-512v65h-63v64h-66zM193 1065v192h63v66h256v-66h63v-127h130v193h126v-193h-63v-65h-256v65h-63v127h-130v-192h-126zM256 170h512v641h-512v-641z" />
<glyph unicode="&#xf6;" d="M127 170v641h66v63h63v64h512v-64h63v-63h66v-641h-66v-64h-63v-65h-512v65h-63v64h-66zM256 170h512v641h-512v-641zM256 1065v258h129v-258h-129zM639 1065v258h129v-258h-129z" />
<glyph unicode="&#xf7;" d="M127 618v127h770v-127h-770zM449 233v256h126v-256h-126zM449 874v256h126v-256h-126z" />
<glyph unicode="&#xf8;" d="M0 41v65h63v64h64v641h66v63h63v64h512v-64h63v64h130v-127h-64v-641h-66v-64h-63v-65h-512v65h-129v-65h-127zM256 170h512v448l-63 64v-64h-66v-65h-64v-64h-63v-63h-63v-64h-64v-63h-66v-66h-63v-63zM256 362h63v64h66v63h64v64h63v65h63v64h64v63h66v66h-449v-449z " />
<glyph unicode="&#xf9;" d="M127 170v768h129v-768h512v768h129v-897h-641v65h-63v64h-66zM256 1257v66h193v-66h63v-63h63v-64h64v-65h-190v65h-64v64h-66v63h-63z" />
<glyph unicode="&#xfa;" d="M127 170v768h129v-768h512v768h129v-897h-641v65h-63v64h-66zM385 1065v65h64v64h63v63h63v66h193v-66h-63v-63h-66v-64h-64v-65h-190z" />
<glyph unicode="&#xfb;" d="M127 170v768h129v-768h512v768h129v-897h-641v65h-63v64h-66zM256 1065v65h63v64h66v63h64v66h126v-66h64v-63h66v-64h63v-65h-129v65h-64v64h-126v-64h-64v-65h-129z" />
<glyph unicode="&#xfc;" d="M127 170v768h129v-768h512v768h129v-897h-641v65h-63v64h-66zM256 1065v258h129v-258h-129zM639 1065v258h129v-258h-129z" />
<glyph unicode="&#xfd;" d="M127 170v768h129v-768h512v768h129v-1088h-66v-63h-63v-66h-575v129h575v191h-512v65h-63v64h-66zM385 1065v65h64v64h63v63h63v66h193v-66h-63v-63h-66v-64h-64v-65h-190z" />
<glyph unicode="&#xfe;" d="M127 -279v1602h129v-385h512v-64h63v-63h66v-641h-66v-64h-63v-65h-512v-320h-129zM256 170h512v641h-512v-641z" />
<glyph unicode="&#xff;" d="M127 170v768h129v-768h512v768h129v-1088h-66v-63h-63v-66h-575v129h575v191h-512v65h-63v64h-66zM256 1065v258h129v-258h-129zM639 1065v258h129v-258h-129z" />
<glyph unicode="&#x152;" d="M63 170v1024h64v63h66v66h831v-129h-385v-449h322v-127h-322v-448h385v-129h-831v65h-66v64h-64zM193 170h319v1024h-319v-1024zM639 170h385v1024h-385v-449h322v-127h-322v-448z" />
<glyph unicode="&#x153;" d="M63 170v641h64v63h66v64h638v-64h66v-63h64v-385h-386v-256h256v63h130v-127h-64v-65h-704v65h-66v64h-64zM193 170h256v641h-256v-641zM575 553h256v258h-256v-258z" />
<glyph unicode="&#x178;" d="M127 1130v193h129v-193h63v-129h66v-127h64v-129h126v129h64v127h66v129h63v193h129v-193h-66v-129h-63v-127h-63v-129h-66v-127h-64v-577h-126v577h-64v127h-66v129h-63v127h-63v129h-66zM256 1386v256h129v-256h-129zM639 1386v256h129v-256h-129z" />
<glyph unicode="&#x2c6;" d="M256 1386v64h63v63h66v64h64v65h126v-65h64v-64h66v-63h63v-64h-129v64h-64v63h-126v-63h-64v-64h-129z" />
<glyph unicode="&#x2dc;" d="M193 1386v191h63v65h256v-65h63v-127h130v192h126v-192h-63v-64h-256v64h-63v127h-130v-191h-126z" />
<glyph unicode="&#x2000;" horiz-adv-x="821" />
<glyph unicode="&#x2001;" horiz-adv-x="1642" />
<glyph unicode="&#x2002;" horiz-adv-x="821" />
<glyph unicode="&#x2003;" horiz-adv-x="1642" />
<glyph unicode="&#x2004;" horiz-adv-x="547" />
<glyph unicode="&#x2005;" horiz-adv-x="410" />
<glyph unicode="&#x2006;" horiz-adv-x="273" />
<glyph unicode="&#x2007;" horiz-adv-x="273" />
<glyph unicode="&#x2008;" horiz-adv-x="205" />
<glyph unicode="&#x2009;" horiz-adv-x="328" />
<glyph unicode="&#x200a;" horiz-adv-x="91" />
<glyph unicode="&#x2010;" d="M127 618v127h770v-127h-770z" />
<glyph unicode="&#x2011;" d="M127 618v127h770v-127h-770z" />
<glyph unicode="&#x2012;" d="M127 618v127h770v-127h-770z" />
<glyph unicode="&#x2013;" d="M127 618v127h770v-127h-770z" />
<glyph unicode="&#x2014;" d="M63 618v127h834v-127h-834z" />
<glyph unicode="&#x2018;" d="M449 1130v256h63v127h127v-127h-64v-256h-126z" />
<glyph unicode="&#x2019;" d="M385 1130v127h64v256h126v-256h-63v-127h-127z" />
<glyph unicode="&#x201a;" d="M385 41h64v258h126v-258h-63v-127h-127v127z" />
<glyph unicode="&#x201c;" d="M256 1130v256h63v127h130v-127h-64v-256h-129zM639 1130v256h66v127h126v-127h-63v-256h-129z" />
<glyph unicode="&#x201d;" d="M193 1130v127h63v256h129v-256h-66v-127h-126zM575 1130v127h64v256h129v-256h-63v-127h-130z" />
<glyph unicode="&#x201e;" d="M193 41h63v258h129v-258h-66v-127h-126v127zM575 41h64v258h129v-258h-63v-127h-130v127z" />
<glyph unicode="&#x2022;" d="M319 553v258h66v63h254v-63h66v-258h-66v-64h-254v64h-66z" />
<glyph unicode="&#x2026;" d="M127 41v258h129v-258h-129zM449 41v258h126v-258h-126zM768 41v258h129v-258h-129z" />
<glyph unicode="&#x202f;" horiz-adv-x="328" />
<glyph unicode="&#x2039;" d="M193 426v127h63v65h63v64h66v63h64v66h63v63h63v64h193v-64h-63v-63h-66v-66h-64v-63h-63v-64h-63v-65h-64v-127h64v-64h63v-63h63v-66h64v-63h66v-64h63v-65h-193v65h-63v64h-63v63h-64v66h-66v63h-63v64h-63z" />
<glyph unicode="&#x203a;" d="M193 41v65h63v64h63v63h66v66h64v63h63v64h63v127h-63v65h-63v64h-64v63h-66v66h-63v63h-63v64h192v-64h64v-63h63v-66h63v-63h64v-64h66v-65h63v-127h-63v-64h-66v-63h-64v-66h-63v-63h-63v-64h-64v-65h-192z" />
<glyph unicode="&#x205f;" horiz-adv-x="410" />
<glyph unicode="&#x20ac;" d="M0 489v129h127v127h-127v129h127v191h66v65h63v64h63v63h66v66h320v-66h63v-63h63v-64h66v-65h-129v65h-63v64h-320v-64h-66v-65h-63v-191h383v-129h-383v-127h383v-129h-383v-190h63v-66h66v-63h320v63h63v66h129v-66h-66v-63h-63v-64h-63v-65h-320v65h-66v64h-63v63 h-63v66h-66v190h-127zM0 618h127v127h-127v-127z" />
<glyph unicode="&#x2122;" d="M63 1194v129h386v-129h-130v-383h-126v383h-130zM512 811v512l63 -66h64v-63h192v63h66v66h64v-512h-130v319h-63v-65h-63v65h-66v-319h-127z" />
<glyph unicode="&#xe000;" horiz-adv-x="942" d="M0 0v942h942v-942h-942z" />
</font>
</defs>
</svg>
