<?xml version="1.0" standalone="no"?>
<!DOCTYPE svg PUBLIC "-//W3C//DTD SVG 1.1//EN" "http://www.w3.org/Graphics/SVG/1.1/DTD/svg11.dtd" >
<svg xmlns="http://www.w3.org/2000/svg">
<metadata></metadata>
<defs>
<font id="monotonelight" horiz-adv-x="477" >
<font-face units-per-em="2048" ascent="1536" descent="-512" />
<missing-glyph horiz-adv-x="307" />
<glyph horiz-adv-x="2048" />
<glyph horiz-adv-x="2048" />
<glyph unicode="&#xd;" horiz-adv-x="307" />
<glyph unicode=" "  horiz-adv-x="307" />
<glyph unicode="&#x09;" horiz-adv-x="307" />
<glyph unicode="&#xa0;" horiz-adv-x="307" />
<glyph unicode="!" horiz-adv-x="245" d="M80 0v88h88v-88h-88zM80 225v760h88v-760h-88z" />
<glyph unicode="&#x22;" horiz-adv-x="421" d="M82 786v199h88v-199h-88zM252 786v199h88v-199h-88z" />
<glyph unicode="#" horiz-adv-x="686" d="M74 225v86h112v138h-112v88h112v225h88v-225h138v225h88v-225h112v-88h-112v-138h112v-86h-112v-225h-88v225h-138v-225h-88v225h-112zM274 311h138v138h-138v-138z" />
<glyph unicode="$" horiz-adv-x="464" d="M76 100v211h88v-223h51v361h-39q-43 4 -70 30q-20 16 -26 45q-4 16 -4 25v336q2 40 33 71q29 29 67 29h39v113h33v-113h41q37 0 69 -29q27 -27 31 -69v-213h-88v223h-53v-360h41q43 -4 69 -31q27 -29 31 -68v-340q-2 -39 -31 -69q-4 -4 -6 -5t-6 -6q-25 -18 -55 -18h-43 v-113h-33v113h-39q-33 0 -57 18q-4 4 -6 5.5t-7 5.5q-20 20 -26 47q-4 16 -4 24zM164 537h51v360h-51v-360zM248 88h53v361h-53v-361z" />
<glyph unicode="%" horiz-adv-x="667" d="M66 662q-1 40 30 69q12 12 19 17q18 10 49 14q33 -4 51 -17q12 -8 16 -14q31 -29 31 -69q0 -41 -29 -70q-6 -6 -18 -14q-18 -12 -49 -17h-2q-12 2 -25.5 5t-23.5 9q-6 4 -19 17q-20 16 -26 45q-4 16 -4 25zM96 659q0 -4 1 -7t1 -7q6 -16 19 -33q20 -18 47 -18h2 q27 0 45 18q20 20 20 50q0 29 -20 49q-18 18 -47 18t-47 -20q-20 -20 -21 -45v-5zM236 0l110 985h86l-108 -985h-88zM406 324v2q0 37 28 69h2q4 6 17 15l4 2q18 12 45 12t51 -14v-2h2q8 -4 14 -13h2q31 -31 31 -69v-2q0 -39 -31 -70q-10 -10 -16 -14h-2q-20 -14 -49 -15 q-29 0 -49 15h-2q-12 8 -17 14q-23 23 -28 47q-2 6 -2 23zM436 324q0 -10 2 -17q2 -18 19 -31q20 -20 47 -20q23 0 47 20q20 20 20 48v2q0 27 -20 47q-25 20 -47 20h-2q-25 0 -45 -20t-21 -47v-2z" />
<glyph unicode="&#x26;" horiz-adv-x="581" d="M76 98v334l164 164l-52 180v111q0 16 7 33q10 24 24 36q29 29 68 29h114q41 0 70 -29q18 -16 25 -36q6 -16 6 -33v-109l-176 -176l114 -401h45l-34 -35l47 -166h-86l-29 98l-98 -98h-109q-37 0 -70 29q-20 20 -26 47q-2 2 -2 8q-2 6 -2 14zM164 88h131l70 70l-107 377 l-94 -93v-354zM276 772l31 -108l107 104v131h-138v-127z" />
<glyph unicode="'" horiz-adv-x="249" d="M82 786v199h88v-199h-88z" />
<glyph unicode="(" horiz-adv-x="352" d="M82 98v789q0 41 31 69q29 29 67 29h103v-86h-113v-811h113v-88h-101q-41 0 -69 29q-23 23 -29 47q-2 6 -2 22z" />
<glyph unicode=")" horiz-adv-x="352" d="M72 0v88h112v811h-112v86h100q37 0 70 -29q20 -20 26 -47q4 -12 4 -22v-789q-2 -39 -30 -69q-29 -29 -68 -29h-102z" />
<glyph unicode="*" horiz-adv-x="473" d="M80 786v88h74l-70 68l39 39l70 -68v72h88v-72l67 68l39 -39l-68 -68h74v-88h-74l68 -69l-39 -39l-67 70v-74h-88v74l-70 -70l-39 39l70 69h-74z" />
<glyph unicode="+" horiz-adv-x="452" d="M70 449v88h112v112h88v-112h113v-88h-113v-111h-88v111h-112z" />
<glyph unicode="," horiz-adv-x="282" d="M74 0l51 201h86l-49 -201h-88z" />
<glyph unicode="-" d="M82 303v88h313v-88h-313z" />
<glyph unicode="." horiz-adv-x="249" d="M82 0v88h88v-88h-88z" />
<glyph unicode="/" horiz-adv-x="333" d="M68 0l110 985h88l-110 -985h-88z" />
<glyph unicode="0" d="M82 100v787q4 43 31 69q27 27 67 31h117q39 -4 68 -31q31 -29 30 -69v-789q0 -37 -28 -69q-29 -25 -70 -29h-113q-45 4 -69 29v2q-29 27 -33 69zM170 88h137v811h-137v-811z" />
<glyph unicode="1" horiz-adv-x="346" d="M63 899v88h201v-987h-88v899h-113z" />
<glyph unicode="2" horiz-adv-x="471" d="M82 0v96l225 451v352h-137v-225h-88v213q0 41 31 69q14 15 28 21q10 4 19.5 6t19.5 4h115q10 -2 19.5 -4t19.5 -6q8 -4 15 -9t16 -12q27 -27 30 -69v-334l-233 -465h233v-88h-313z" />
<glyph unicode="3" d="M82 98v215h88v-225h137v361h-112v88h112v362h-137v-225h-88v213q0 41 31 69q14 14 28 21q10 4 19.5 6t19.5 4h115q10 -2 19.5 -4t19.5 -6q8 -4 15 -9t16 -12q29 -29 30 -69v-340q0 -23 -14 -47l-4 -6l4 -7q14 -25 14 -49v-340q-2 -20 -8 -36.5t-22 -32.5q-25 -25 -68 -29 h-115q-45 4 -69 29v2q-10 10 -17.5 21t-11.5 24q-2 8 -2 22z" />
<glyph unicode="4" horiz-adv-x="462" d="M68 547v440h88v-450h137v450h88v-987h-88v449h-125q-39 2 -70 30q-20 20 -26 45q-2 6 -3 11.5t-1 11.5z" />
<glyph unicode="5" horiz-adv-x="471" d="M82 98v215h88v-225h137v361h-225v538h313v-88h-225v-362h125q37 0 70 -29q29 -31 30 -70v-340q-2 -39 -30 -69q-25 -25 -68 -29h-117q-43 4 -67 29v2q-23 18 -29 45q-2 8 -2 22z" />
<glyph unicode="6" horiz-adv-x="475" d="M82 98v789q0 41 31 69q14 14 28 21q10 4 19.5 6t19.5 4h115q10 -2 20.5 -4t18.5 -6q14 -6 31 -21q31 -29 30 -69v-213h-88v225h-137v-362h125q41 0 70 -29q31 -31 30 -70v-340q0 -39 -30 -69q-25 -25 -68 -29h-115q-41 4 -69 29v2q-20 16 -27 45q-2 6 -3 11t-1 11z M170 88h137v361h-137v-361z" />
<glyph unicode="7" horiz-adv-x="452" d="M74 899v88h313v-100l-223 -887h-86l225 899h-229z" />
<glyph unicode="8" d="M82 98v340q0 27 12 49l4 7l-4 6q-12 20 -12 47v340q0 41 31 69q27 27 67 31h115q39 -2 70 -31q27 -27 30 -69v-340q-4 -29 -14 -47l-4 -6l4 -7q10 -18 14 -49v-340q-2 -39 -30 -69q-25 -25 -68 -29h-117q-43 4 -67 29v2q-23 18 -29 45q-2 8 -2 22zM170 88h137v361h-137 v-361zM170 537h137v362h-137v-362z" />
<glyph unicode="9" d="M82 98v215h88v-225h137v361h-125q-39 2 -69 30q-20 16 -27 45q-2 6 -3 11.5t-1 11.5v340q0 41 31 69q27 27 67 31h115q43 -4 70 -31q31 -29 30 -69v-789q0 -39 -30 -69q-25 -25 -68 -29h-115q-41 4 -69 29v2q-20 16 -27 45q-2 6 -3 11t-1 11zM170 537h137v362h-137v-362z " />
<glyph unicode=":" horiz-adv-x="249" d="M82 0v88h88v-88h-88zM82 449v88h88v-88h-88z" />
<glyph unicode=";" horiz-adv-x="288" d="M72 0l51 201h86l-49 -201h-88zM125 451v86h88v-86h-88z" />
<glyph unicode="&#x3c;" horiz-adv-x="436" d="M63 494l218 268h79l-215 -268l215 -269h-79z" />
<glyph unicode="=" d="M82 338v88h313v-88h-313zM82 563v86h313v-86h-313z" />
<glyph unicode="&#x3e;" horiz-adv-x="436" d="M76 225l217 269l-217 268h82l215 -268l-215 -269h-82z" />
<glyph unicode="?" horiz-adv-x="452" d="M68 674v213q0 41 28 69q33 29 68 29h117q39 0 67 -29h2q27 -27 31 -69v-340q-4 -41 -31 -68q-31 -29 -67 -30h-15v-224h-88v213q0 37 29 70q33 29 67 29h17v362h-137v-225h-88zM180 0v88h88v-88h-88z" />
<glyph unicode="@" horiz-adv-x="925" d="M82 98v789q0 16 6 33q7 20 25 36q29 29 67 29h565q37 0 70 -29q14 -16 25 -36q6 -16 6 -33v-563q-4 -45 -31 -70q-29 -29 -67 -29h-340q-41 0 -70 29q-20 18 -29 47q-2 6 -2 23v114q0 39 31 70q29 29 68 29h126v137h-225v88h213q39 -2 70 -31q27 -29 31 -67v-353h137v588 h-588v-811h676v-88h-664q-41 0 -69 29q-20 18 -29 47q-2 6 -2 22zM395 311h137v138h-137v-138z" />
<glyph unicode="A" d="M82 0v887q0 36 29 69q33 29 69 29h115q37 0 70 -29q29 -31 30 -69v-887h-88v449h-137v-449h-88zM170 537h137v360h-137v-360z" />
<glyph unicode="B" d="M82 0v985h213q39 0 67 -29h3q29 -31 30 -69v-340q-2 -27 -14 -49l-4 -6l4 -7q12 -20 14 -47v-340q-4 -43 -30 -69q-33 -29 -68 -29h-215zM170 88h137v361h-137v-361zM170 537h137v360h-137v-360z" />
<glyph unicode="C" horiz-adv-x="475" d="M82 113v774q0 38 31 69q29 29 67 29h115q41 0 70 -29q31 -31 30 -69v-213h-88v223h-137v-809h137v223h88v-198h-2v-13q-2 -23 -8 -39t-23 -32q-29 -29 -67 -29h-113q-39 0 -67 29q-31 31 -31 71z" />
<glyph unicode="D" d="M82 0v985h213q41 0 70 -29q31 -31 30 -69v-789q0 -43 -30 -69q-29 -29 -68 -29h-215zM170 88h137v809h-137v-809z" />
<glyph unicode="E" horiz-adv-x="462" d="M82 0v985h313v-88h-225v-360h113v-88h-113v-361h225v-88h-313z" />
<glyph unicode="F" horiz-adv-x="452" d="M82 0v985h313v-88h-225v-360h113v-88h-113v-449h-88z" />
<glyph unicode="G" horiz-adv-x="475" d="M82 113v774q2 39 31 69q29 29 67 29h117q39 0 68 -29q31 -31 30 -69v-213h-88v223h-137v-809h137v361h-55v88h143v-439q0 -12 -4 -32q-10 -18 -24 -37q-33 -29 -70 -29h-113h-16q-31 6 -53 29q-31 31 -31 71v13h-2z" />
<glyph unicode="H" d="M82 0v985h88v-448h137v448h88v-985h-88v449h-137v-449h-88z" />
<glyph unicode="I" horiz-adv-x="249" d="M82 0v985h88v-985h-88z" />
<glyph unicode="J" horiz-adv-x="352" d="M72 0v88h112v809h-112v88h200v-885q-2 -41 -32 -71q-29 -29 -68 -29h-100z" />
<glyph unicode="K" horiz-adv-x="471" d="M82 0v987h88v-987h-88zM180 494l125 493h86l-123 -493l123 -494h-86z" />
<glyph unicode="L" horiz-adv-x="452" d="M82 0v985h88v-897h225v-88h-313z" />
<glyph unicode="M" horiz-adv-x="589" d="M82 0v985h90l123 -549l123 549h90v-985h-88v604l-125 -561l-125 561v-604h-88z" />
<glyph unicode="N" d="M82 0v985h92l133 -604v604h88v-985h-90l-135 604v-604h-88z" />
<glyph unicode="O" d="M82 100v787q0 36 29 69q2 2 4 3.5t4 3.5q4 4 12 8q20 14 47 14h117q39 0 67 -29h3q29 -31 30 -69v-789q-4 -43 -30 -69q-33 -29 -68 -29h-115q-27 0 -51 14q-4 2 -6 4t-6 5l-6 6q-31 31 -31 71zM170 88h137v809h-137v-809z" />
<glyph unicode="P" horiz-adv-x="462" d="M82 0v985h213q29 0 59 -20l8 -9h3q8 -8 13 -16t9 -18q4 -8 5 -16.5t3 -18.5v-340q-2 -10 -3 -18.5t-5 -16.5q-4 -10 -9 -18.5t-13 -16.5q-4 -2 -11 -8q-27 -20 -57 -20h-127v-449h-88zM170 537h137v360h-137v-360z" />
<glyph unicode="Q" d="M82 98v789q0 39 31 69q29 29 67 29h115q37 0 70 -29q31 -31 30 -69v-871l-20 21l-8 -6l-2 -2q-33 -29 -68 -29h-115q-41 0 -69 29q-31 27 -31 69zM170 88h154l-113 111h96v698h-137v-809z" />
<glyph unicode="R" horiz-adv-x="475" d="M82 0v985h213q41 0 70 -29q31 -31 30 -69v-340v-10q-4 -23 -14 -39q-4 -4 -7 -9.5t-9 -11.5q-4 -4 -17 -12l-6 -4l51 -461h-86l-51 449h-86v-449h-88zM170 537h141l-4 262v98h-137v-360z" />
<glyph unicode="S" horiz-adv-x="475" d="M82 100v211h88v-223h137v361h-125q-41 4 -69 28v2q-20 20 -27 45q-2 4 -2 13q-2 4 -2 12v336q2 41 33 71q29 29 67 29h113q8 0 24 -4q23 -7 46 -25q29 -31 30 -69v-213h-88v223h-137v-360h125q8 0 24 -5q25 -6 46 -26q27 -29 30 -68v-340q0 -43 -30 -69q-16 -16 -46 -27 q-6 -2 -22 -2h-115q-37 0 -69 29q-23 25 -27 47q-4 16 -4 24z" />
<glyph unicode="T" horiz-adv-x="452" d="M70 897v88h313v-88h-113v-897h-88v897h-112z" />
<glyph unicode="U" d="M82 100v885h88v-897h137v897h88v-885q-2 -39 -33 -71q-33 -29 -67 -29h-113q-37 0 -69 29q-23 25 -27 47q-4 16 -4 24z" />
<glyph unicode="V" horiz-adv-x="458" d="M74 985h88l67 -604l68 604h88l-111 -985h-90z" />
<glyph unicode="W" horiz-adv-x="589" d="M82 0v985h88v-604l125 561l125 -561v604h88v-985h-90l-123 549l-123 -549h-90z" />
<glyph unicode="X" horiz-adv-x="466" d="M80 0l110 492l-110 493h88l65 -297l68 297h86l-108 -493l108 -492h-86l-68 297l-65 -297h-88z" />
<glyph unicode="Y" horiz-adv-x="452" d="M72 985h88l65 -330l68 330h88l-111 -547v-438h-88v438z" />
<glyph unicode="Z" horiz-adv-x="460" d="M74 897v88h311l-201 -897h203v-88h-309l201 897h-205z" />
<glyph unicode="[" horiz-adv-x="352" d="M82 0v985h201v-86h-113v-811h113v-88h-201z" />
<glyph unicode="\" horiz-adv-x="331" d="M68 985h86l110 -985h-88z" />
<glyph unicode="]" horiz-adv-x="354" d="M72 0v88h112v811h-112v86h200v-985h-200z" />
<glyph unicode="^" horiz-adv-x="442" d="M70 561l151 402l152 -402h-86l-66 172l-65 -172h-86z" />
<glyph unicode="_" horiz-adv-x="589" d="M82 0v88h426v-88h-426z" />
<glyph unicode="`" horiz-adv-x="307" d="M68 649h77l88 -88h-77z" />
<glyph unicode="a" horiz-adv-x="473" d="M80 104v109q0 41 31 70q27 27 67 30h127v136h-225v88h213q36 0 69 -29q31 -31 31 -70v-438h-213q-41 4 -69 29v2q-20 20 -27 45q-2 6 -3 12t-1 16zM168 88h137v137h-137v-137z" />
<glyph unicode="b" horiz-adv-x="466" d="M82 0v762h88v-225h127q39 0 68 -29q31 -31 30 -70v-336q-4 -45 -33 -73q-25 -25 -67 -29h-213zM170 88h137v361h-137v-361z" />
<glyph unicode="c" horiz-adv-x="475" d="M82 111v327q2 39 31 70q29 29 67 29h117q39 0 68 -29q31 -31 30 -70v-100h-88v111h-137v-361h137v113h88v-99q-4 -45 -33 -73q-25 -25 -67 -29h-111q-45 4 -69 29v2q-10 10 -17.5 21t-11.5 24q-2 6 -2 14t-2 21z" />
<glyph unicode="d" horiz-adv-x="466" d="M72 102v336q0 39 30 70q29 29 68 29h127v225h88v-762h-213q-41 4 -70 29v2q-20 16 -26 45q-4 16 -4 26zM160 88h137v361h-137v-361z" />
<glyph unicode="e" horiz-adv-x="475" d="M82 100v336q2 41 33 72q29 29 67 29h113q41 0 70 -29q31 -31 30 -70v-213h-225v-137h225v-88h-213q-43 4 -67 29v2q-23 18 -29 45q-4 16 -4 24zM170 313h137v136h-137v-136z" />
<glyph unicode="f" horiz-adv-x="348" d="M82 0v664q2 39 31 67q27 27 67 31h103v-88h-113v-137h113v-88h-113v-449h-88z" />
<glyph unicode="g" horiz-adv-x="475" d="M80 113v325q4 43 31 70q29 29 67 29h215v-664q-4 -41 -33 -68q-29 -29 -67 -30h-213v88h225v137h-123q-45 4 -69 29q-18 18 -29 47q-2 6 -2 15t-2 22zM168 88h137v361h-137v-361z" />
<glyph unicode="h" horiz-adv-x="466" d="M82 0v762h88v-225h125q37 0 70 -29q29 -31 30 -70v-438h-88v449h-137v-449h-88z" />
<glyph unicode="i" horiz-adv-x="245" d="M80 0v424h88v-424h-88zM80 561v88h88v-88h-88z" />
<glyph unicode="j" horiz-adv-x="339" d="M61 -137h113v561h88v-551q0 -41 -31 -68q-4 -6 -10 -10q-23 -16 -57 -20h-103v88zM174 561v88h88v-88h-88z" />
<glyph unicode="k" horiz-adv-x="464" d="M82 0v762h88v-338h137v113h88v-103q0 -27 -12 -47q-4 -6 -8 -11t-8 -9t-8.5 -6.5t-8.5 -6.5l-6 -4l49 -350h-86l-49 338h-88v-338h-88z" />
<glyph unicode="l" horiz-adv-x="249" d="M82 0v762h88v-762h-88z" />
<glyph unicode="m" horiz-adv-x="702" d="M82 0v537h440q39 0 68 -29q31 -31 31 -70v-438h-89v449h-137v-449h-88v449h-137v-449h-88z" />
<glyph unicode="n" d="M82 0v537h213q41 0 70 -29q31 -31 30 -70v-438h-88v449h-137v-449h-88z" />
<glyph unicode="o" horiz-adv-x="473" d="M80 100v338q2 39 31 70q29 29 67 29h117q39 0 67 -29q31 -31 31 -70v-338q0 -25 -14 -49q-8 -12 -19 -22l-6 -6q-29 -23 -61 -23h-111q-45 4 -69 29v2q-20 16 -27 45zM168 88h137v361h-137v-361z" />
<glyph unicode="p" horiz-adv-x="466" d="M82 -225v762h213q41 0 70 -29q31 -31 30 -70v-338q-2 -41 -33 -71q-25 -20 -49 -27q-4 0 -9 -1t-9 -1h-125v-225h-88zM170 88h137v361h-137v-361z" />
<glyph unicode="q" horiz-adv-x="466" d="M72 98v340q3 45 30 70q27 27 68 31h215v-764h-88v225h-125q-37 0 -70 29q-20 20 -26 47q-4 12 -4 22zM160 88h137v363h-137v-363z" />
<glyph unicode="r" horiz-adv-x="350" d="M82 0v539h201v-88h-113v-451h-88z" />
<glyph unicode="s" horiz-adv-x="475" d="M82 0v88h225v137h-125q-37 0 -69 29q-20 20 -27 47q-4 12 -4 23v114q4 45 31 70q27 27 67 31h215v-88h-225v-138h125q43 -4 70 -30q31 -29 30 -70v-115q0 -43 -30 -69q-29 -29 -68 -29h-215z" />
<glyph unicode="t" horiz-adv-x="352" d="M82 98v666h88v-113h113v-88h-113v-475h113v-88h-101q-37 0 -69 29q-23 25 -27 47q-4 12 -4 22z" />
<glyph unicode="u" d="M82 98v441h88v-451h137v451h88v-441q-4 -43 -30 -69q-29 -29 -68 -29h-117q-39 0 -67 29q-23 23 -29 47q-2 6 -2 22z" />
<glyph unicode="v" horiz-adv-x="456" d="M74 539h88l59 -303l2 -5l4 -24l68 332h88l-109 -539h-92z" />
<glyph unicode="w" horiz-adv-x="702" d="M82 113v426h88v-451h137v451h88v-451h137v451h89v-433q-2 -47 -33 -77q-29 -29 -68 -29h-338q-39 0 -67 29q-23 23 -29 47q-2 6 -2 24v13h-2z" />
<glyph unicode="x" horiz-adv-x="462" d="M80 0l108 268l-108 271h86l65 -162l66 162h86l-109 -271l109 -268h-86l-66 160l-65 -160h-86z" />
<glyph unicode="y" horiz-adv-x="475" d="M80 113v426h88v-451h137v451h88v-666v-12q-2 -31 -28 -58q-32 -28 -66 -28h-2h-217v88h225v137h-123q-41 0 -69 29q-20 18 -29 47q-2 6 -2 24v13h-2z" />
<glyph unicode="z" horiz-adv-x="473" d="M80 451v88h307l-180 -451h186v-88h-307l180 451h-186z" />
<glyph unicode="{" horiz-adv-x="395" d="M72 494l51 51v342q0 40 31 69q29 29 67 29h103v-86h-113v-344l-61 -61l61 -62v-344h113v-88h-101q-41 0 -69 29q-20 20 -27 47q-4 12 -4 22v344z" />
<glyph unicode="|" horiz-adv-x="249" d="M82 0v985h88v-985h-88z" />
<glyph unicode="}" horiz-adv-x="397" d="M74 0v88h112v344l62 62l-62 61v344h-112v86h100q37 0 70 -29q20 -20 26 -47q4 -12 4 -22v-342l52 -51l-52 -52v-344q-2 -20 -8 -36.5t-22 -32.5q-29 -29 -68 -29h-102z" />
<glyph unicode="~" horiz-adv-x="466" d="M78 561q6 31 33 57q27 27 67 31h211q-4 -34 -29 -59q-29 -29 -67 -29h-215z" />
<glyph unicode="&#xa1;" horiz-adv-x="1705" d="M80 0v88h88v-88h-88zM80 225v760h88v-760h-88z" />
<glyph unicode="&#xa2;" horiz-adv-x="456" d="M74 328v338q0 37 28 65q31 27 68 31h43v110h33v-110h41q39 -2 69 -31q8 -8 11 -12q16 -20 20 -55v-101h-88v113h-53v-363h53v113h88v-100q-2 -37 -33 -68q-31 -29 -69 -31h-39v-110h-33v110h-39q-39 2 -70 31q-20 18 -26 45q-4 12 -4 25zM162 313h51v363h-51v-363z" />
<glyph unicode="&#xa3;" horiz-adv-x="573" d="M74 16v84q2 39 32 70q29 29 68 29l10 2v248h-55v88h55v348q4 44 33 71q29 29 68 29h110q41 0 70 -29q31 -29 31 -69v-101h-88v111h-136v-360h113v-88h-113v-242l119 -119h105q-6 -35 -31 -59q-4 -4 -6 -5t-6 -6q-25 -18 -56 -18h-51l-113 113h-63z" />
<glyph unicode="&#xa4;" horiz-adv-x="577" d="M80 258l61 76l-2 6q-2 2 -2 6q-2 6 -3 11t-1 14v12v213q0 8 1 14t3 15l2 6l-59 76l39 36l55 -67l8 4q25 14 49 14h115q25 0 49 -14l11 -6l53 69l39 -36l-58 -76l2 -6q2 -8 3 -14.5t1 -14.5v-225q0 -16 -6 -29l-2 -6l60 -78l-39 -39l-53 72l-11 -6q-20 -14 -49 -15h-113 q-29 0 -49 15l-10 6l-55 -72zM221 358h137v248h-137v-248z" />
<glyph unicode="&#xa5;" horiz-adv-x="464" d="M76 113v86h112v137h-112v88h114l-112 561h88l67 -330l66 330h88l-113 -561h115v-88h-113v-137h113v-86h-113v-113h-88v113h-112z" />
<glyph unicode="&#xa6;" horiz-adv-x="249" d="M82 -117v537h88v-537h-88zM82 557v537h88v-537h-88z" />
<glyph unicode="&#xa7;" horiz-adv-x="468" d="M78 209v336q2 41 33 71q29 29 67 29h125v137h-125q-41 0 -69 29q-31 31 -31 70v114q0 39 31 70q29 29 67 29h115q39 0 67 -29q4 -2 5.5 -4t3.5 -4q14 -16 20 -39q0 -4 1 -5t1 -5h-223v-138h125q39 -4 67 -30q23 -18 29 -45q2 -6 2 -12.5t2 -12.5v-338q-4 -41 -33 -70 q-33 -29 -67 -28h-125v-137h125q39 -2 69 -31q27 -29 31 -68v-114q0 -4 -1 -9.5t-1 -9.5q-6 -29 -29 -51q-6 -8 -14 -12q-20 -14 -53 -19h-115q-39 2 -69 31q-20 16 -27 45q0 2 -1 3t-1 3v6h223v138h-125q-37 0 -69 28q-20 20 -27 47q-4 16 -4 25zM166 420h137v137h-137 v-137z" />
<glyph unicode="&#xa8;" d="M82 561v88h88v-88h-88zM307 561v88h88v-88h-88z" />
<glyph unicode="&#xa9;" horiz-adv-x="458" d="M82 662v335h295v-335h-295zM123 702h211v254h-211v-254zM178 758v143h103v-16h-84v-109h84v-18h-103z" />
<glyph unicode="&#xab;" horiz-adv-x="673" d="M72 494l217 268h80l-215 -268l215 -269h-80zM297 494l217 268h80l-215 -268l215 -269h-80z" />
<glyph unicode="&#xac;" horiz-adv-x="462" d="M68 449v88h313v-201h-88v113h-225z" />
<glyph unicode="&#xad;" d="M82 303v88h313v-88h-313z" />
<glyph unicode="&#xae;" horiz-adv-x="458" d="M82 662v335h295v-335h-295zM111 692h235v277h-235v-277zM178 758v143h103v-100h-39l39 -43h-25l-61 59v-59h-17zM195 817h67v68h-67v-68z" />
<glyph unicode="&#xb0;" horiz-adv-x="350" d="M76 885q0 41 30 69q6 6 19 15q18 12 49 16q31 -4 51 -16q13 -9 17 -15q31 -29 30 -69q0 -41 -30 -72q-4 -4 -8.5 -7t-8.5 -7q-25 -14 -49 -15h-2q-25 0 -49 15q-4 4 -9 7t-10 7q-20 20 -26 47q-4 16 -4 25zM106 883q0 -10 3 -15v-2q6 -16 18 -30q20 -18 47 -21h2 q29 4 45 21q20 20 21 49q0 29 -21 49q-18 18 -47 18q-27 0 -47 -20t-21 -47v-2z" />
<glyph unicode="&#xb1;" horiz-adv-x="464" d="M76 313v88h112v136h-112v88h112v112h88v-112h113v-88h-113v-136h113v-88h-313z" />
<glyph unicode="&#xb2;" horiz-adv-x="274" d="M82 674v176h68v92h-68v43h111v-176h-68v-92h68v-43h-111z" />
<glyph unicode="&#xb3;" horiz-adv-x="274" d="M82 674v43h68v92h-68v41h68v92h-68v43h111v-311h-111z" />
<glyph unicode="&#xb4;" horiz-adv-x="307" d="M74 561l88 86h78l-88 -86h-78z" />
<glyph unicode="&#xb5;" horiz-adv-x="462" d="M82 -336v762h88v-338h137v338h88v-426h-30v25l-21 -11q-20 -12 -47 -14h-127v-336h-88z" />
<glyph unicode="&#xb6;" horiz-adv-x="690" d="M78 436v449q0 14 6 30q11 25 27 41q29 29 67 29h438v-88h-112v-1122h-88v1122h-137v-1122h-89v561h-12q-39 2 -69 31q-20 20 -27 45q-4 16 -4 24z" />
<glyph unicode="&#xb7;" horiz-adv-x="249" d="M82 449v88h88v-88h-88z" />
<glyph unicode="&#xb9;" horiz-adv-x="204" d="M82 674v311h43v-311h-43z" />
<glyph unicode="&#xba;" horiz-adv-x="350" d="M78 606q0 41 31 70q6 6 18 14q18 12 49 17q31 -4 51 -17q13 -8 17 -14q31 -29 30 -70q0 -41 -30 -71q-4 -4 -8.5 -7.5t-8.5 -7.5q-25 -14 -49 -14h-2q-25 0 -49 14q-4 4 -9 7t-9 8q-20 20 -27 47q-4 16 -4 24zM109 604q0 -10 2 -14v-2q6 -16 18 -31q20 -18 47 -20h2 q29 4 45 20q20 20 21 49q0 29 -21 49q-18 18 -47 19q-27 -1 -47 -21t-20 -47v-2z" />
<glyph unicode="&#xbb;" horiz-adv-x="673" d="M80 225l217 269l-217 268h82l215 -268l-215 -269h-82zM305 225l217 269l-217 268h82l215 -268l-215 -269h-82z" />
<glyph unicode="&#xbf;" horiz-adv-x="1705" d="M68 674v213q0 41 28 69q33 29 68 29h117q39 0 67 -29h2q27 -27 31 -69v-340q-4 -41 -31 -68q-31 -29 -67 -30h-15v-224h-88v213q0 37 29 70q33 29 67 29h17v362h-137v-225h-88zM180 0v88h88v-88h-88z" />
<glyph unicode="&#xc0;" d="M82 0v887q0 36 29 69q33 29 69 29h115q37 0 70 -29q29 -31 30 -69v-887h-88v449h-137v-449h-88zM156 1098h77l88 -88h-77zM170 537h137v360h-137v-360z" />
<glyph unicode="&#xc1;" d="M82 0v887q0 36 29 69q33 29 69 29h115q37 0 70 -29q29 -31 30 -69v-887h-88v449h-137v-449h-88zM156 1010l88 86h78l-88 -86h-78zM170 537h137v360h-137v-360z" />
<glyph unicode="&#xc2;" d="M82 0v887q0 36 29 69q33 29 69 29h115q37 0 70 -29q29 -31 30 -69v-887h-88v449h-137v-449h-88zM95 1010l145 191l143 -191h-81l-62 82l-63 -82h-82zM170 537h137v360h-137v-360z" />
<glyph unicode="&#xc3;" d="M82 0v887q0 36 29 69q33 29 69 29h115q37 0 70 -29q29 -31 30 -69v-887h-88v449h-137v-449h-88zM82 1010q6 31 33 57q27 27 67 31h211q-4 -34 -29 -59q-29 -29 -67 -29h-215zM170 537h137v360h-137v-360z" />
<glyph unicode="&#xc4;" d="M82 0v887q0 36 29 69q33 29 69 29h115q37 0 70 -29q29 -31 30 -69v-887h-88v449h-137v-449h-88zM82 1010v88h88v-88h-88zM170 537h137v360h-137v-360zM307 1010v88h88v-88h-88z" />
<glyph unicode="&#xc5;" d="M82 0v887q0 36 29 69q33 29 69 29h115q37 0 70 -29q29 -31 30 -69v-887h-88v449h-137v-449h-88zM139 1055q0 41 31 70q6 6 18 14q18 12 49 17q31 -4 51 -17q13 -8 17 -14q31 -29 30 -70q0 -41 -30 -71q-4 -4 -8.5 -7.5t-8.5 -7.5q-25 -14 -49 -14h-2q-25 0 -49 14 q-4 4 -9 7t-9 8q-20 20 -27 47q-4 16 -4 24zM170 537h137v360h-137v-360zM170 1053q0 -10 2 -14v-2q6 -16 18 -31q20 -18 47 -20h2q29 4 45 20q20 20 21 49q0 29 -21 49q-18 18 -47 19q-27 -1 -47 -21t-20 -47v-2z" />
<glyph unicode="&#xc6;" horiz-adv-x="579" d="M76 0l110 967h316v-86h-113v-355h113v-86h-113v-354h113v-86h-201v440h-86l-51 -440h-88zM225 526h76v355h-37z" />
<glyph unicode="&#xc7;" horiz-adv-x="468" d="M80 102v787q2 38 31 69q29 29 67 29h117q39 0 67 -29q31 -31 31 -69v-213h-88v223h-137v-809h137v223h88v-211q-2 -41 -33 -71q-29 -29 -67 -29l-10 -2l-2 -10q0 -41 -29 -70q-4 -4 -6 -5t-6 -5q-23 -16 -47 -19v109l-11 2q-41 0 -69 29q-31 31 -33 71z" />
<glyph unicode="&#xc8;" horiz-adv-x="462" d="M82 0v985h313v-88h-225v-360h113v-88h-113v-361h225v-88h-313zM148 1098h77l88 -88h-77z" />
<glyph unicode="&#xc9;" horiz-adv-x="462" d="M82 0v985h313v-88h-225v-360h113v-88h-113v-361h225v-88h-313zM148 1010l88 86h78l-88 -86h-78z" />
<glyph unicode="&#xca;" horiz-adv-x="462" d="M82 0v985h313v-88h-225v-360h113v-88h-113v-361h225v-88h-313zM86 1010l145 191l143 -191h-81l-62 82l-63 -82h-82z" />
<glyph unicode="&#xcb;" horiz-adv-x="462" d="M78 1010v88h88v-88h-88zM82 0v985h313v-88h-225v-360h113v-88h-113v-361h225v-88h-313zM303 1010v88h88v-88h-88z" />
<glyph unicode="&#xcc;" horiz-adv-x="249" d="M45 1098h77l88 -88h-77zM82 0v985h88v-985h-88z" />
<glyph unicode="&#xcd;" horiz-adv-x="249" d="M45 1010l88 86h78l-88 -86h-78zM82 0v985h88v-985h-88z" />
<glyph unicode="&#xce;" horiz-adv-x="249" d="M-16 1010l145 191l143 -191h-81l-62 82l-63 -82h-82zM82 0v985h88v-985h-88z" />
<glyph unicode="&#xcf;" horiz-adv-x="249" d="M-29 1010v88h88v-88h-88zM82 0v985h88v-985h-88zM196 1010v88h88v-88h-88z" />
<glyph unicode="&#xd0;" horiz-adv-x="526" d="M74 449v88h57v448h213q41 0 70 -29q31 -29 30 -69v-789q0 -43 -30 -69q-29 -29 -68 -29h-215v449h-57zM219 88h137v809h-137v-360h55v-88h-55v-361z" />
<glyph unicode="&#xd1;" d="M82 0v985h92l133 -604v604h88v-985h-90l-135 604v-604h-88zM82 1010q6 31 33 57q27 27 67 31h211q-4 -34 -29 -59q-29 -29 -67 -29h-215z" />
<glyph unicode="&#xd2;" d="M82 100v787q0 36 29 69q2 2 4 3.5t4 3.5q4 4 12 8q20 14 47 14h117q39 0 67 -29h3q29 -31 30 -69v-789q-4 -43 -30 -69q-33 -29 -68 -29h-115q-27 0 -51 14q-4 2 -6 4t-6 5l-6 6q-31 31 -31 71zM156 1098h77l88 -88h-77zM170 88h137v809h-137v-809z" />
<glyph unicode="&#xd3;" d="M82 100v787q0 36 29 69q2 2 4 3.5t4 3.5q4 4 12 8q20 14 47 14h117q39 0 67 -29h3q29 -31 30 -69v-789q-4 -43 -30 -69q-33 -29 -68 -29h-115q-27 0 -51 14q-4 2 -6 4t-6 5l-6 6q-31 31 -31 71zM156 1010l88 86h78l-88 -86h-78zM170 88h137v809h-137v-809z" />
<glyph unicode="&#xd4;" d="M82 100v787q0 36 29 69q2 2 4 3.5t4 3.5q4 4 12 8q20 14 47 14h117q39 0 67 -29h3q29 -31 30 -69v-789q-4 -43 -30 -69q-33 -29 -68 -29h-115q-27 0 -51 14q-4 2 -6 4t-6 5l-6 6q-31 31 -31 71zM95 1010l145 191l143 -191h-81l-62 82l-63 -82h-82zM170 88h137v809h-137 v-809z" />
<glyph unicode="&#xd5;" d="M82 100v787q0 36 29 69q2 2 4 3.5t4 3.5q4 4 12 8q20 14 47 14h117q39 0 67 -29h3q29 -31 30 -69v-789q-4 -43 -30 -69q-33 -29 -68 -29h-115q-27 0 -51 14q-4 2 -6 4t-6 5l-6 6q-31 31 -31 71zM82 1010q6 31 33 57q27 27 67 31h211q-4 -34 -29 -59q-29 -29 -67 -29h-215 zM170 88h137v809h-137v-809z" />
<glyph unicode="&#xd6;" d="M82 100v787q0 36 29 69q2 2 4 3.5t4 3.5q4 4 12 8q20 14 47 14h117q39 0 67 -29h3q29 -31 30 -69v-789q-4 -43 -30 -69q-33 -29 -68 -29h-115q-27 0 -51 14q-4 2 -6 4t-6 5l-6 6q-31 31 -31 71zM82 1010v88h88v-88h-88zM170 88h137v809h-137v-809zM307 1010v88h88v-88 h-88z" />
<glyph unicode="&#xd7;" horiz-adv-x="450" d="M80 340l104 156l-104 155h82l63 -94l64 94h82l-105 -155l105 -156h-82l-64 94l-63 -94h-82z" />
<glyph unicode="&#xd8;" d="M82 100v787q0 38 31 69q29 29 67 29h115q37 0 70 -29q12 -12 18 -24q12 -23 12 -45v-789q-4 -45 -30 -69q-29 -29 -68 -29h-115q-37 0 -69 29q-12 12 -19 26v-2q-12 20 -12 47zM170 379l117 518h-117v-518zM193 88h114v516z" />
<glyph unicode="&#xd9;" d="M82 100v885h88v-897h137v897h88v-885q-2 -39 -33 -71q-33 -29 -67 -29h-113q-37 0 -69 29q-23 25 -27 47q-4 16 -4 24zM156 1098h77l88 -88h-77z" />
<glyph unicode="&#xda;" d="M82 100v885h88v-897h137v897h88v-885q-2 -39 -33 -71q-33 -29 -67 -29h-113q-37 0 -69 29q-23 25 -27 47q-4 16 -4 24zM156 1010l88 86h78l-88 -86h-78z" />
<glyph unicode="&#xdb;" d="M82 100v885h88v-897h137v897h88v-885q-2 -39 -33 -71q-33 -29 -67 -29h-113q-37 0 -69 29q-23 25 -27 47q-4 16 -4 24zM95 1010l145 191l143 -191h-81l-62 82l-63 -82h-82z" />
<glyph unicode="&#xdc;" d="M82 100v885h88v-897h137v897h88v-885q-2 -39 -33 -71q-33 -29 -67 -29h-113q-37 0 -69 29q-23 25 -27 47q-4 16 -4 24zM82 1010v88h88v-88h-88zM307 1010v88h88v-88h-88z" />
<glyph unicode="&#xdd;" horiz-adv-x="452" d="M72 985h88l65 -330l68 330h88l-111 -547v-438h-88v438zM144 1010l88 86h78l-88 -86h-78z" />
<glyph unicode="&#xde;" horiz-adv-x="456" d="M82 0v981h88v-223h123q41 -2 69 -31q31 -29 31 -65v-340q-4 -41 -33 -68q-29 -29 -67 -31h-123v-223h-88zM170 309h135v363h-135v-363z" />
<glyph unicode="&#xdf;" d="M82 0v985h213q37 0 70 -29q26 -26 30 -69v-340q-2 -10 -4 -19.5t-6 -19.5q-2 -2 -2 -4t-2 -4l-4 -8l4 -7q10 -18 14 -47v-340q-4 -43 -30 -69q-29 -29 -68 -29h-47v88h57v361h-57v88h57v360h-137v-897h-88z" />
<glyph unicode="&#xe0;" horiz-adv-x="473" d="M80 104v109q0 41 31 70q27 27 67 30h127v136h-225v88h213q36 0 69 -29q31 -31 31 -70v-438h-213q-41 4 -69 29v2q-20 20 -27 45q-2 6 -3 12t-1 16zM154 649h77l88 -88h-77zM168 88h137v137h-137v-137z" />
<glyph unicode="&#xe1;" horiz-adv-x="473" d="M80 104v109q0 41 31 70q27 27 67 30h127v136h-225v88h213q36 0 69 -29q31 -31 31 -70v-438h-213q-41 4 -69 29v2q-20 20 -27 45q-2 6 -3 12t-1 16zM154 561l88 86h78l-88 -86h-78zM168 88h137v137h-137v-137z" />
<glyph unicode="&#xe2;" horiz-adv-x="473" d="M80 104v109q0 41 31 70q27 27 67 30h127v136h-225v88h213q36 0 69 -29q31 -31 31 -70v-438h-213q-41 4 -69 29v2q-20 20 -27 45q-2 6 -3 12t-1 16zM92 561l145 191l143 -191h-81l-62 82l-63 -82h-82zM168 88h137v137h-137v-137z" />
<glyph unicode="&#xe3;" horiz-adv-x="473" d="M80 104v109q0 41 31 70q27 27 67 30h127v136h-225v88h213q36 0 69 -29q31 -31 31 -70v-438h-213q-41 4 -69 29v2q-20 20 -27 45q-2 6 -3 12t-1 16zM80 561q6 31 33 57q27 27 67 31h211q-4 -34 -29 -59q-29 -29 -67 -29h-215zM168 88h137v137h-137v-137z" />
<glyph unicode="&#xe4;" horiz-adv-x="473" d="M80 104v109q0 41 31 70q27 27 67 30h127v136h-225v88h213q36 0 69 -29q31 -31 31 -70v-438h-213q-41 4 -69 29v2q-20 20 -27 45q-2 6 -3 12t-1 16zM82 561v88h88v-88h-88zM168 88h137v137h-137v-137zM307 561v88h88v-88h-88z" />
<glyph unicode="&#xe5;" horiz-adv-x="473" d="M80 104v109q0 41 31 70q27 27 67 30h127v136h-225v88h213q36 0 69 -29q31 -31 31 -70v-438h-213q-41 4 -69 29v2q-20 20 -27 45q-2 6 -3 12t-1 16zM137 606q0 41 31 70q6 6 18 14q18 12 49 17q31 -4 51 -17q13 -8 17 -14q31 -29 30 -70q0 -41 -30 -71q-4 -4 -8.5 -7.5 t-8.5 -7.5q-25 -14 -49 -14h-2q-25 0 -49 14q-4 4 -9 7t-9 8q-20 20 -27 47q-4 16 -4 24zM168 88h137v137h-137v-137zM168 604q0 -10 2 -14v-2q6 -16 18 -31q20 -18 47 -20h2q29 4 45 20q20 20 21 49q0 29 -21 49q-18 18 -47 19q-27 -1 -47 -21t-20 -47v-2z" />
<glyph unicode="&#xe6;" horiz-adv-x="702" d="M82 96v113q0 33 24 61l7 6q29 29 67 29h127v135h-225v86h438q45 -4 70 -28q31 -29 31 -68v-211h-226v-133h226v-86h-439q-33 0 -57 18q-4 4 -6 5.5t-6 5.5t-7 8q-18 18 -20 37q-4 12 -4 22zM170 86h137v133h-137v-133zM395 305h137v135h-137v-135z" />
<glyph unicode="&#xe7;" horiz-adv-x="462" d="M78 100v13v325q0 33 22 62q4 4 9 6q27 27 67 31h113q39 -2 69 -31q31 -29 31 -66v-102h-88v113h-135v-363h135v113h88v-101q-2 -37 -33 -67q-6 -6 -18 -15q-18 -12 -49 -16h-13v-14q0 -39 -28 -68q-27 -27 -58 -29v111h-12q-39 2 -69 31q-20 20 -27 45q-4 12 -4 22z" />
<glyph unicode="&#xe8;" horiz-adv-x="475" d="M82 100v336q2 41 33 72q29 29 67 29h113q41 0 70 -29q31 -31 30 -70v-213h-225v-137h225v-88h-213q-43 4 -67 29v2q-23 18 -29 45q-4 16 -4 24zM154 649h77l88 -88h-77zM170 313h137v136h-137v-136z" />
<glyph unicode="&#xe9;" horiz-adv-x="475" d="M82 100v336q2 41 33 72q29 29 67 29h113q41 0 70 -29q31 -31 30 -70v-213h-225v-137h225v-88h-213q-43 4 -67 29v2q-23 18 -29 45q-4 16 -4 24zM154 561l88 86h78l-88 -86h-78zM170 313h137v136h-137v-136z" />
<glyph unicode="&#xea;" horiz-adv-x="475" d="M82 100v336q2 41 33 72q29 29 67 29h113q41 0 70 -29q31 -31 30 -70v-213h-225v-137h225v-88h-213q-43 4 -67 29v2q-23 18 -29 45q-4 16 -4 24zM92 561l145 191l143 -191h-81l-62 82l-63 -82h-82zM170 313h137v136h-137v-136z" />
<glyph unicode="&#xeb;" horiz-adv-x="475" d="M82 100v336q2 41 33 72q29 29 67 29h113q41 0 70 -29q31 -31 30 -70v-213h-225v-137h225v-88h-213q-43 4 -67 29v2q-23 18 -29 45q-4 16 -4 24zM82 561v88h88v-88h-88zM170 313h137v136h-137v-136zM307 561v88h88v-88h-88z" />
<glyph unicode="&#xec;" horiz-adv-x="305" d="M70 649h77l89 -88h-78zM109 0v424h88v-424h-88z" />
<glyph unicode="&#xed;" horiz-adv-x="305" d="M70 561l88 86h78l-89 -86h-77zM109 0v424h88v-424h-88z" />
<glyph unicode="&#xee;" horiz-adv-x="419" d="M66 561l145 191l143 -191h-82l-61 82l-64 -82h-81zM166 0v424h88v-424h-88z" />
<glyph unicode="&#xef;" horiz-adv-x="452" d="M70 561v88h88v-88h-88zM182 0v424h88v-424h-88zM295 561v88h88v-88h-88z" />
<glyph unicode="&#xf0;" horiz-adv-x="468" d="M76 109v319q2 39 30 70q29 27 68 28h137l-80 154l-43 -14v28l31 11l-22 40h86l8 -18l43 14v-28l-31 -11l86 -167v-439q-4 -41 -33 -67q-8 -8 -12 -11q-25 -18 -55 -18h-111q-33 0 -57 18q-4 2 -12 11q-10 10 -17.5 21t-11.5 24q-2 6 -2 14t-2 21zM164 84h137v356h-137 v-356z" />
<glyph unicode="&#xf1;" d="M82 0v537h213q41 0 70 -29q31 -31 30 -70v-438h-88v449h-137v-449h-88zM82 561q6 31 33 57q27 27 67 31h211q-4 -34 -29 -59q-29 -29 -67 -29h-215z" />
<glyph unicode="&#xf2;" horiz-adv-x="473" d="M80 100v338q2 39 31 70q29 29 67 29h117q39 0 67 -29q31 -31 31 -70v-338q0 -25 -14 -49q-8 -12 -19 -22l-6 -6q-29 -23 -61 -23h-111q-45 4 -69 29v2q-20 16 -27 45zM154 649h77l88 -88h-77zM168 88h137v361h-137v-361z" />
<glyph unicode="&#xf3;" horiz-adv-x="473" d="M80 100v338q2 39 31 70q29 29 67 29h117q39 0 67 -29q31 -31 31 -70v-338q0 -25 -14 -49q-8 -12 -19 -22l-6 -6q-29 -23 -61 -23h-111q-45 4 -69 29v2q-20 16 -27 45zM154 561l88 86h78l-88 -86h-78zM168 88h137v361h-137v-361z" />
<glyph unicode="&#xf4;" horiz-adv-x="473" d="M80 100v338q2 39 31 70q29 29 67 29h117q39 0 67 -29q31 -31 31 -70v-338q0 -25 -14 -49q-8 -12 -19 -22l-6 -6q-29 -23 -61 -23h-111q-45 4 -69 29v2q-20 16 -27 45zM92 561l145 191l143 -191h-81l-62 82l-63 -82h-82zM168 88h137v361h-137v-361z" />
<glyph unicode="&#xf5;" horiz-adv-x="473" d="M80 100v338q2 39 31 70q29 29 67 29h117q39 0 67 -29q31 -31 31 -70v-338q0 -25 -14 -49q-8 -12 -19 -22l-6 -6q-29 -23 -61 -23h-111q-45 4 -69 29v2q-20 16 -27 45zM80 561q6 31 33 57q27 27 67 31h211q-4 -34 -29 -59q-29 -29 -67 -29h-215zM168 88h137v361h-137v-361 z" />
<glyph unicode="&#xf6;" horiz-adv-x="473" d="M80 100v338q2 39 31 70q29 29 67 29h117q39 0 67 -29q31 -31 31 -70v-338q0 -25 -14 -49q-8 -12 -19 -22l-6 -6q-29 -23 -61 -23h-111q-45 4 -69 29v2q-20 16 -27 45zM82 561v88h88v-88h-88zM168 88h137v361h-137v-361zM307 561v88h88v-88h-88z" />
<glyph unicode="&#xf7;" horiz-adv-x="452" d="M70 449v88h313v-88h-313zM182 336v63h88v-63h-88zM182 586v61h88v-61h-88z" />
<glyph unicode="&#xf8;" horiz-adv-x="475" d="M82 109v319q2 39 31 70q29 25 67 28h117q39 -2 68 -28q10 -11 14 -17q16 -23 16 -51v-334q-4 -41 -33 -67q-4 -6 -10 -11q-25 -18 -57 -18h-111q-33 0 -57 18q-4 2 -12 11q-4 4 -7.5 7t-7.5 7q-4 8 -7 15.5t-7 15.5q0 6 -1 11t-1 11zM170 201l98 239h-98v-239zM211 84h96 v242z" />
<glyph unicode="&#xf9;" d="M82 98v441h88v-451h137v451h88v-441q-4 -43 -30 -69q-29 -29 -68 -29h-117q-39 0 -67 29q-23 23 -29 47q-2 6 -2 22zM156 649h77l88 -88h-77z" />
<glyph unicode="&#xfa;" d="M82 98v441h88v-451h137v451h88v-441q-4 -43 -30 -69q-29 -29 -68 -29h-117q-39 0 -67 29q-23 23 -29 47q-2 6 -2 22zM156 561l88 86h78l-88 -86h-78z" />
<glyph unicode="&#xfb;" d="M82 98v441h88v-451h137v451h88v-441q-4 -43 -30 -69q-29 -29 -68 -29h-117q-39 0 -67 29q-23 23 -29 47q-2 6 -2 22zM95 561l145 191l143 -191h-81l-62 82l-63 -82h-82z" />
<glyph unicode="&#xfc;" d="M82 98v441h88v-451h137v451h88v-441q-4 -43 -30 -69q-29 -29 -68 -29h-117q-39 0 -67 29q-23 23 -29 47q-2 6 -2 22zM82 561v88h88v-88h-88zM307 561v88h88v-88h-88z" />
<glyph unicode="&#xfd;" horiz-adv-x="475" d="M80 113v426h88v-451h137v451h88v-666v-12q-2 -31 -28 -58q-33 -29 -68 -28h-217v88h225v137h-123q-41 0 -69 29q-20 18 -29 47q-2 6 -2 24v13h-2zM154 561l88 86h78l-88 -86h-78z" />
<glyph unicode="&#xfe;" horiz-adv-x="456" d="M82 -223v981h88v-223h123q41 -2 69 -31q31 -29 31 -66v-340q-4 -41 -33 -67q-29 -29 -67 -31h-123v-223h-88zM170 86h135v363h-135v-363z" />
<glyph unicode="&#xff;" horiz-adv-x="475" d="M80 113v426h88v-451h137v451h88v-666v-12q-2 -31 -28 -58q-33 -29 -68 -28h-217v88h225v137h-123q-41 0 -69 29q-20 18 -29 47q-2 6 -2 24v13h-2zM82 561v88h88v-88h-88zM307 561v88h88v-88h-88z" />
<glyph unicode="&#x152;" horiz-adv-x="585" d="M82 98v789q0 41 31 69q29 29 67 29h328v-88h-111v-360h111v-88h-111v-361h111v-88h-326h-2q-39 0 -67 29q-31 26 -31 69zM170 88h139v809h-139v-809z" />
<glyph unicode="&#x153;" horiz-adv-x="702" d="M82 111v319q0 39 31 68q25 25 67 28h115q27 0 51 -14l6 -4l6 4q25 14 50 14h112q41 -3 70 -28q25 -25 31 -58v-10v-211h-226v-133h226v-86h-213q-23 0 -52 14l-6 4l-6 -4q-25 -14 -49 -14h-113q-37 0 -69 29q-20 20 -27 45q-2 8 -2 24zM170 86h137v354h-137v-354z M395 309l137 -2v133h-137v-131z" />
<glyph unicode="&#x178;" horiz-adv-x="452" d="M70 1010v88h88v-88h-88zM72 985h88l65 -330l68 330h88l-111 -547v-438h-88v438zM295 1010v88h88v-88h-88z" />
<glyph unicode="&#x2c6;" horiz-adv-x="432" d="M72 561l145 191l143 -191h-81l-62 82l-63 -82h-82z" />
<glyph unicode="&#x2dc;" horiz-adv-x="466" d="M78 561q6 31 33 57q27 27 67 31h211q-4 -34 -29 -59q-29 -29 -67 -29h-215z" />
<glyph unicode="&#x2000;" horiz-adv-x="682" />
<glyph unicode="&#x2001;" horiz-adv-x="1365" />
<glyph unicode="&#x2002;" horiz-adv-x="682" />
<glyph unicode="&#x2003;" horiz-adv-x="1365" />
<glyph unicode="&#x2004;" horiz-adv-x="455" />
<glyph unicode="&#x2005;" horiz-adv-x="341" />
<glyph unicode="&#x2006;" horiz-adv-x="227" />
<glyph unicode="&#x2007;" horiz-adv-x="227" />
<glyph unicode="&#x2008;" horiz-adv-x="170" />
<glyph unicode="&#x2009;" horiz-adv-x="273" />
<glyph unicode="&#x200a;" horiz-adv-x="75" />
<glyph unicode="&#x2010;" d="M82 303v88h313v-88h-313z" />
<glyph unicode="&#x2011;" d="M82 303v88h313v-88h-313z" />
<glyph unicode="&#x2012;" d="M82 303v88h313v-88h-313z" />
<glyph unicode="&#x2013;" d="M82 449v88h313v-88h-313z" />
<glyph unicode="&#x2014;" horiz-adv-x="589" d="M82 451v88h426v-88h-426z" />
<glyph unicode="&#x2018;" horiz-adv-x="284" d="M74 784l51 201h88l-51 -201h-88z" />
<glyph unicode="&#x2019;" horiz-adv-x="284" d="M72 985h88l51 -201h-88z" />
<glyph unicode="&#x201a;" horiz-adv-x="1705" d="M358 0l50 201h88l-50 -201h-88z" />
<glyph unicode="&#x201c;" horiz-adv-x="462" d="M78 784l49 201h88l-49 -201h-88zM246 784l51 201h88l-51 -201h-88z" />
<glyph unicode="&#x201d;" horiz-adv-x="462" d="M78 985h88l49 -201h-88zM246 985h88l51 -201h-88z" />
<glyph unicode="&#x201e;" horiz-adv-x="1705" d="M358 0l50 201h88l-50 -201h-88zM526 0l52 201h88l-52 -201h-88z" />
<glyph unicode="&#x2022;" horiz-adv-x="364" d="M82 393v201h201v-201h-201z" />
<glyph unicode="&#x2026;" horiz-adv-x="702" d="M82 0v88h88v-88h-88zM307 0v88h88v-88h-88zM532 0v88h89v-88h-89z" />
<glyph unicode="&#x202f;" horiz-adv-x="273" />
<glyph unicode="&#x2039;" horiz-adv-x="436" d="M63 494l218 268h79l-215 -268l215 -269h-79z" />
<glyph unicode="&#x203a;" horiz-adv-x="436" d="M76 225l217 269l-217 268h82l215 -268l-215 -269h-82z" />
<glyph unicode="&#x205f;" horiz-adv-x="341" />
<glyph unicode="&#x20ac;" horiz-adv-x="524" d="M76 336v88h55v137h-55v88h55v236q6 46 35 71q29 29 67 29h113q39 0 68 -29q31 -29 30 -69v-101h-88v111h-137v-248h113v-88h-113v-137h113v-88h-113v-248h137v111h88v-101q0 -41 -28 -69q-4 -4 -6 -5t-7 -6q-25 -18 -55 -18h-115q-33 0 -57 18q-4 4 -6 5.5t-6 5.5 q-10 10 -16.5 22t-10.5 25l-6 24v236h-55z" />
<glyph unicode="&#x2122;" horiz-adv-x="473" d="M78 973v12h88v-12h-39v-74h-12v74h-37zM227 899v86h164v-86h-14v74h-62v-74h-12v74h-63v-74h-13z" />
<glyph unicode="&#xe000;" horiz-adv-x="542" d="M0 0v543h543v-543h-543z" />
<glyph unicode="&#xfb01;" horiz-adv-x="473" d="M82 0v664q0 39 31 69q27 27 67 31h105v-88h-115v-137h227v-539h-88v451h-139v-451h-88z" />
<glyph unicode="&#xfb02;" d="M82 0v662q0 23 7 38t22 31q31 27 67 31h217v-762h-88v451h-137v-451h-88zM170 537h137v139h-137v-139z" />
</font>
</defs>
</svg>
